STARTFONT 2.1
COMMENT
COMMENT Converted from OpenType font "DejaVuSansCondensed.ttf" by "otf2bdf 3.0".
COMMENT
FONT -FreeType-DejaVu Sans Condensed-Medium-R-Normal--25-180-100-100-P-128-ISO10646-1
SIZE 18 100 100
FONTBOUNDINGBOX 61 37 -23 -10
STARTPROPERTIES 19
FOUNDRY "FreeType"
FAMILY_NAME "DejaVu Sans Condensed"
WEIGHT_NAME "Medium"
SLANT "R"
SETWIDTH_NAME "Normal"
ADD_STYLE_NAME ""
PIXEL_SIZE 25
POINT_SIZE 180
RESOLUTION_X 100
RESOLUTION_Y 100
SPACING "P"
AVERAGE_WIDTH 128
CHARSET_REGISTRY "ISO10646"
CHARSET_ENCODING "1"
FONT_ASCENT 23
FONT_DESCENT 5
COPYRIGHT "Copyright (c) 2003 by Bitstream, Inc. All Rights Reserved.  Copyright (c) 2006 by Tavmjong Bah. All Rights Reserved.  DejaVu changes are in public domain  "
_OTF_FONTFILE "DejaVuSansCondensed.ttf"
_OTF_PSNAME "DejaVuSansCondensed"
ENDPROPERTIES
CHARS 5370
STARTCHAR 0020
ENCODING 32
SWIDTH 280 0
DWIDTH 7 0
BBX 0 0 0 0
BITMAP
ENDCHAR
STARTCHAR 0021
ENCODING 33
SWIDTH 360 0
DWIDTH 9 0
BBX 3 18 3 0
BITMAP
E0
E0
E0
E0
E0
E0
E0
E0
E0
E0
60
40
00
00
00
E0
E0
E0
ENDCHAR
STARTCHAR 0022
ENCODING 34
SWIDTH 400 0
DWIDTH 10 0
BBX 6 7 2 11
BITMAP
CC
CC
CC
CC
CC
CC
CC
ENDCHAR
STARTCHAR 0023
ENCODING 35
SWIDTH 760 0
DWIDTH 19 0
BBX 15 18 2 0
BITMAP
0318
0318
0210
0630
0630
7FFE
7FFE
0C60
0C60
0C60
0C60
FFFC
FFFC
18C0
18C0
1080
3180
3180
ENDCHAR
STARTCHAR 0024
ENCODING 36
SWIDTH 560 0
DWIDTH 14 0
BBX 10 23 2 -4
BITMAP
0C00
0C00
0C00
3F80
7F80
CC00
CC00
CC00
CC00
FC00
7F00
0F80
0DC0
0CC0
0CC0
0CC0
8DC0
FF80
7F00
0C00
0C00
0C00
0C00
ENDCHAR
STARTCHAR 0025
ENCODING 37
SWIDTH 840 0
DWIDTH 21 0
BBX 19 19 1 0
BITMAP
000300
7E0600
660600
C30C00
C30C00
C31800
C31000
433000
662000
3C6100
00C7C0
00CC60
018C60
018860
030860
030860
060C60
040CC0
0C07C0
ENDCHAR
STARTCHAR 0026
ENCODING 38
SWIDTH 720 0
DWIDTH 18 0
BBX 15 19 1 0
BITMAP
0200
0FC0
1CC0
3800
3000
3000
1800
1C00
1E00
3606
6306
6386
E1CC
E0EC
E078
6038
707C
3FEE
1FC6
ENDCHAR
STARTCHAR 0027
ENCODING 39
SWIDTH 240 0
DWIDTH 6 0
BBX 2 7 2 11
BITMAP
C0
C0
C0
C0
C0
C0
C0
ENDCHAR
STARTCHAR 0028
ENCODING 40
SWIDTH 360 0
DWIDTH 9 0
BBX 5 22 2 -3
BITMAP
18
30
30
60
60
60
E0
C0
C0
C0
C0
C0
C0
C0
C0
C0
60
60
60
30
30
18
ENDCHAR
STARTCHAR 0029
ENCODING 41
SWIDTH 360 0
DWIDTH 9 0
BBX 5 22 2 -3
BITMAP
C0
40
60
60
30
30
30
30
18
18
18
18
18
18
38
30
30
30
60
60
60
C0
ENDCHAR
STARTCHAR 002A
ENCODING 42
SWIDTH 440 0
DWIDTH 11 0
BBX 10 12 1 7
BITMAP
0800
0800
0800
C880
6B00
1E00
1C00
7B00
C9C0
8800
0800
0800
ENDCHAR
STARTCHAR 002B
ENCODING 43
SWIDTH 760 0
DWIDTH 19 0
BBX 14 16 2 0
BITMAP
0100
0100
0100
0100
0100
0100
0100
FFFC
FFFC
0100
0100
0100
0100
0100
0100
0100
ENDCHAR
STARTCHAR 002C
ENCODING 44
SWIDTH 280 0
DWIDTH 7 0
BBX 3 6 2 -3
BITMAP
60
60
60
C0
C0
80
ENDCHAR
STARTCHAR 002D
ENCODING 45
SWIDTH 320 0
DWIDTH 8 0
BBX 6 2 1 6
BITMAP
FC
FC
ENDCHAR
STARTCHAR 002E
ENCODING 46
SWIDTH 280 0
DWIDTH 7 0
BBX 3 3 2 0
BITMAP
E0
E0
E0
ENDCHAR
STARTCHAR 002F
ENCODING 47
SWIDTH 320 0
DWIDTH 8 0
BBX 7 20 0 -2
BITMAP
06
06
06
06
0C
0C
0C
08
18
18
18
30
30
30
30
60
60
60
C0
C0
ENDCHAR
STARTCHAR 0030
ENCODING 48
SWIDTH 560 0
DWIDTH 14 0
BBX 12 19 1 0
BITMAP
0200
1F80
3DC0
30E0
6060
6060
6070
6070
E030
E030
E030
6030
6070
6070
6060
7060
30E0
3FC0
1F80
ENDCHAR
STARTCHAR 0031
ENCODING 49
SWIDTH 560 0
DWIDTH 14 0
BBX 10 18 2 0
BITMAP
7E00
FE00
CE00
0E00
0E00
0E00
0E00
0E00
0E00
0E00
0E00
0E00
0E00
0E00
0E00
0E00
7FC0
7FC0
ENDCHAR
STARTCHAR 0032
ENCODING 50
SWIDTH 560 0
DWIDTH 14 0
BBX 10 19 2 0
BITMAP
0800
FF00
FF80
81C0
00C0
00C0
00C0
01C0
0180
0380
0700
0E00
0C00
1800
3000
7000
E000
FFC0
FFC0
ENDCHAR
STARTCHAR 0033
ENCODING 51
SWIDTH 560 0
DWIDTH 14 0
BBX 11 19 2 0
BITMAP
0800
FF00
FF80
01C0
00C0
00C0
00C0
01C0
1F80
1F00
0380
00C0
00C0
00E0
00C0
00C0
01C0
FF80
FF00
ENDCHAR
STARTCHAR 0034
ENCODING 52
SWIDTH 560 0
DWIDTH 14 0
BBX 12 18 1 0
BITMAP
03C0
03C0
06C0
06C0
0CC0
08C0
18C0
30C0
30C0
60C0
60C0
C0C0
FFF0
FFF0
00C0
00C0
00C0
00C0
ENDCHAR
STARTCHAR 0035
ENCODING 53
SWIDTH 560 0
DWIDTH 14 0
BBX 10 18 2 0
BITMAP
FF80
FF80
C000
C000
C000
C000
FE00
FF80
8380
01C0
00C0
00C0
00C0
00C0
00C0
81C0
FF80
FF00
ENDCHAR
STARTCHAR 0036
ENCODING 54
SWIDTH 560 0
DWIDTH 14 0
BBX 11 19 2 0
BITMAP
0200
1FC0
3FC0
7000
6000
C000
C000
DF00
FF80
F1C0
E0E0
C0E0
C060
C060
C060
E0E0
60C0
7FC0
3F00
ENDCHAR
STARTCHAR 0037
ENCODING 55
SWIDTH 560 0
DWIDTH 14 0
BBX 10 18 2 0
BITMAP
FFC0
FFC0
01C0
0180
0180
0380
0300
0300
0700
0600
0600
0E00
0C00
0C00
1C00
1800
1800
3800
ENDCHAR
STARTCHAR 0038
ENCODING 56
SWIDTH 560 0
DWIDTH 14 0
BBX 11 19 2 0
BITMAP
0400
3F80
73C0
E0C0
C0C0
C0C0
C0C0
E1C0
7F80
3F00
73C0
C0C0
C0E0
C060
C060
C0E0
E0C0
7FC0
3F80
ENDCHAR
STARTCHAR 0039
ENCODING 57
SWIDTH 560 0
DWIDTH 14 0
BBX 12 18 1 1
BITMAP
1F80
3BC0
70E0
6060
E060
E060
E070
6070
60F0
71F0
3FF0
0E70
0060
0060
00E0
41C0
7F80
7F00
ENDCHAR
STARTCHAR 003A
ENCODING 58
SWIDTH 320 0
DWIDTH 8 0
BBX 2 13 3 0
BITMAP
C0
C0
C0
00
00
00
00
00
00
00
C0
C0
C0
ENDCHAR
STARTCHAR 003B
ENCODING 59
SWIDTH 320 0
DWIDTH 8 0
BBX 3 16 2 -3
BITMAP
60
60
60
00
00
00
00
00
00
00
60
60
60
C0
C0
80
ENDCHAR
STARTCHAR 003C
ENCODING 60
SWIDTH 760 0
DWIDTH 19 0
BBX 14 12 2 2
BITMAP
000C
007C
01F0
0FC0
3E00
F800
F000
7E00
0F80
03F0
007C
001C
ENDCHAR
STARTCHAR 003D
ENCODING 61
SWIDTH 760 0
DWIDTH 19 0
BBX 14 7 2 4
BITMAP
FFFC
FFFC
0000
0000
0000
FFFC
FFFC
ENDCHAR
STARTCHAR 003E
ENCODING 62
SWIDTH 760 0
DWIDTH 19 0
BBX 14 13 2 2
BITMAP
E000
F800
3F00
07C0
01F8
003C
001C
00FC
03E0
1F80
7C00
F000
8000
ENDCHAR
STARTCHAR 003F
ENCODING 63
SWIDTH 480 0
DWIDTH 12 0
BBX 8 19 2 0
BITMAP
10
FE
EF
83
03
03
03
06
0E
1C
18
38
30
30
00
00
38
38
38
ENDCHAR
STARTCHAR 0040
ENCODING 64
SWIDTH 920 0
DWIDTH 23 0
BBX 20 22 1 -4
BITMAP
002000
03FE00
070700
1C0180
1800C0
300060
60F620
61FE30
430E30
430630
C20630
C20630
420630
430660
430E60
61FFC0
20F700
300000
180000
0C0300
079F00
03FC00
ENDCHAR
STARTCHAR 0041
ENCODING 65
SWIDTH 600 0
DWIDTH 15 0
BBX 15 18 0 0
BITMAP
0380
03C0
07C0
06C0
06E0
0E60
0C60
0C70
1C30
1830
1838
3FF8
3FF8
301C
700C
600C
600E
E006
ENDCHAR
STARTCHAR 0042
ENCODING 66
SWIDTH 600 0
DWIDTH 15 0
BBX 12 18 2 0
BITMAP
FF80
FFC0
C0E0
C060
C060
C060
C0E0
FFC0
FF80
C0E0
C060
C070
C070
C070
C070
C0E0
FFE0
FF80
ENDCHAR
STARTCHAR 0043
ENCODING 67
SWIDTH 640 0
DWIDTH 16 0
BBX 13 19 1 0
BITMAP
0080
0FF0
1F78
3808
7000
6000
6000
E000
E000
E000
E000
E000
E000
6000
7000
7000
3808
1FF8
0FF0
ENDCHAR
STARTCHAR 0044
ENCODING 68
SWIDTH 680 0
DWIDTH 17 0
BBX 14 18 2 0
BITMAP
FF80
FFE0
C070
C038
C018
C01C
C01C
C00C
C00C
C00C
C00C
C01C
C01C
C018
C038
C0F0
FFE0
FF80
ENDCHAR
STARTCHAR 0045
ENCODING 69
SWIDTH 560 0
DWIDTH 14 0
BBX 11 18 2 0
BITMAP
FFE0
FFE0
C000
C000
C000
C000
C000
FFC0
FFC0
C000
C000
C000
C000
C000
C000
C000
FFE0
FFE0
ENDCHAR
STARTCHAR 0046
ENCODING 70
SWIDTH 520 0
DWIDTH 13 0
BBX 10 18 2 0
BITMAP
FFC0
FFC0
C000
C000
C000
C000
C000
FF80
FF80
C000
C000
C000
C000
C000
C000
C000
C000
C000
ENDCHAR
STARTCHAR 0047
ENCODING 71
SWIDTH 680 0
DWIDTH 17 0
BBX 15 19 1 0
BITMAP
0080
0FF8
1F7C
380C
7000
6000
6000
E000
E000
E07E
E07E
E07E
E00E
600E
600E
700E
380E
1FFC
07F8
ENDCHAR
STARTCHAR 0048
ENCODING 72
SWIDTH 680 0
DWIDTH 17 0
BBX 13 18 2 0
BITMAP
C038
C038
C038
C038
C038
C038
C038
FFF8
FFF8
C038
C038
C038
C038
C038
C038
C038
C038
C038
ENDCHAR
STARTCHAR 0049
ENCODING 73
SWIDTH 280 0
DWIDTH 7 0
BBX 2 18 2 0
BITMAP
C0
C0
C0
C0
C0
C0
C0
C0
C0
C0
C0
C0
C0
C0
C0
C0
C0
C0
ENDCHAR
STARTCHAR 004A
ENCODING 74
SWIDTH 280 0
DWIDTH 7 0
BBX 5 23 -1 -5
BITMAP
18
18
18
18
18
18
18
18
18
18
18
18
18
18
18
18
18
18
18
18
38
F0
E0
ENDCHAR
STARTCHAR 004B
ENCODING 75
SWIDTH 600 0
DWIDTH 15 0
BBX 13 18 2 0
BITMAP
C070
C0E0
C1C0
C380
C700
CE00
DC00
F800
F800
DC00
CC00
CE00
C700
C380
C1C0
C0E0
C070
C038
ENDCHAR
STARTCHAR 004C
ENCODING 76
SWIDTH 520 0
DWIDTH 13 0
BBX 10 18 2 0
BITMAP
C000
C000
C000
C000
C000
C000
C000
C000
C000
C000
C000
C000
C000
C000
C000
C000
FFC0
FFC0
ENDCHAR
STARTCHAR 004D
ENCODING 77
SWIDTH 760 0
DWIDTH 19 0
BBX 15 18 2 0
BITMAP
F00E
F01E
D01E
D81E
D836
C836
CC36
CC66
C466
C666
C6C6
C2C6
C3C6
C386
C186
C006
C006
C006
ENDCHAR
STARTCHAR 004E
ENCODING 78
SWIDTH 680 0
DWIDTH 17 0
BBX 13 18 2 0
BITMAP
F038
F038
F838
D838
D838
CC38
CC38
C638
C638
C338
C338
C1B8
C1B8
C1F8
C0F8
C0F8
C078
C078
ENDCHAR
STARTCHAR 004F
ENCODING 79
SWIDTH 720 0
DWIDTH 18 0
BBX 15 19 1 0
BITMAP
0180
0FF0
1EF8
381C
700C
600E
6006
E006
E006
E006
E006
E006
E006
6006
700E
700C
381C
1FF8
0FE0
ENDCHAR
STARTCHAR 0050
ENCODING 80
SWIDTH 560 0
DWIDTH 14 0
BBX 11 18 2 0
BITMAP
FF00
FFC0
C1C0
C0E0
C0E0
C0E0
C0E0
C0C0
C3C0
FF80
FC00
C000
C000
C000
C000
C000
C000
C000
ENDCHAR
STARTCHAR 0051
ENCODING 81
SWIDTH 720 0
DWIDTH 18 0
BBX 15 22 1 -3
BITMAP
0180
0FF0
1EF8
381C
700C
600E
6006
E006
E006
E006
E006
E006
E006
6006
700E
700C
381C
1FF8
0FE0
0070
0030
0018
ENDCHAR
STARTCHAR 0052
ENCODING 82
SWIDTH 640 0
DWIDTH 16 0
BBX 13 18 2 0
BITMAP
FF80
FFC0
C1C0
C0E0
C0E0
C0E0
C0E0
C0C0
FFC0
FF00
C380
C1C0
C0E0
C060
C060
C070
C030
C038
ENDCHAR
STARTCHAR 0053
ENCODING 83
SWIDTH 560 0
DWIDTH 14 0
BBX 12 19 1 0
BITMAP
0200
3FE0
7DE0
6020
6000
E000
6000
7000
7E00
3FC0
07E0
00F0
0070
0030
0030
0070
4070
7FE0
7FC0
ENDCHAR
STARTCHAR 0054
ENCODING 84
SWIDTH 560 0
DWIDTH 14 0
BBX 14 18 0 0
BITMAP
FFFC
FFFC
0300
0300
0300
0300
0300
0300
0300
0300
0300
0300
0300
0300
0300
0300
0300
0300
ENDCHAR
STARTCHAR 0055
ENCODING 85
SWIDTH 640 0
DWIDTH 16 0
BBX 13 18 2 0
BITMAP
C038
C038
C038
C038
C038
C038
C038
C038
C038
C038
C038
C038
C030
C030
E030
7070
7FE0
1FC0
ENDCHAR
STARTCHAR 0056
ENCODING 86
SWIDTH 600 0
DWIDTH 15 0
BBX 15 18 0 0
BITMAP
E006
600E
600C
700C
301C
3018
3818
1838
1830
0C30
0C70
0C60
0660
06E0
06C0
03C0
0380
0380
ENDCHAR
STARTCHAR 0057
ENCODING 87
SWIDTH 880 0
DWIDTH 22 0
BBX 20 18 1 0
BITMAP
C07030
C0F030
E0F030
60F070
60D060
609860
619860
719860
3188E0
318CC0
330CC0
3B0CC0
1B0DC0
1B0580
1A0780
1E0780
0E0780
0E0780
ENDCHAR
STARTCHAR 0058
ENCODING 88
SWIDTH 600 0
DWIDTH 15 0
BBX 13 18 1 0
BITMAP
6018
7030
3070
1860
1CE0
0DC0
0F80
0780
0700
0780
0F80
0DC0
18C0
3860
3070
7030
6038
C018
ENDCHAR
STARTCHAR 0059
ENCODING 89
SWIDTH 560 0
DWIDTH 14 0
BBX 13 18 0 0
BITMAP
E018
6038
3030
3870
1860
1CC0
0DC0
0780
0780
0300
0300
0300
0300
0300
0300
0300
0300
0300
ENDCHAR
STARTCHAR 005A
ENCODING 90
SWIDTH 600 0
DWIDTH 15 0
BBX 13 18 1 0
BITMAP
FFF8
FFF8
0038
0070
00E0
00C0
01C0
0380
0300
0600
0E00
1C00
1800
3800
7000
E000
FFF8
FFF8
ENDCHAR
STARTCHAR 005B
ENCODING 91
SWIDTH 360 0
DWIDTH 9 0
BBX 5 22 2 -3
BITMAP
F8
F8
C0
C0
C0
C0
C0
C0
C0
C0
C0
C0
C0
C0
C0
C0
C0
C0
C0
C0
C0
F8
ENDCHAR
STARTCHAR 005C
ENCODING 92
SWIDTH 320 0
DWIDTH 8 0
BBX 7 20 0 -2
BITMAP
C0
C0
60
60
60
20
30
30
30
18
18
18
08
0C
0C
0C
06
06
06
06
ENDCHAR
STARTCHAR 005D
ENCODING 93
SWIDTH 360 0
DWIDTH 9 0
BBX 5 22 2 -3
BITMAP
F8
F8
18
18
18
18
18
18
18
18
18
18
18
18
18
18
18
18
18
18
18
F8
ENDCHAR
STARTCHAR 005E
ENCODING 94
SWIDTH 760 0
DWIDTH 19 0
BBX 14 7 2 11
BITMAP
0380
07C0
0EE0
1C70
3838
701C
E00C
ENDCHAR
STARTCHAR 005F
ENCODING 95
SWIDTH 440 0
DWIDTH 11 0
BBX 11 2 0 -6
BITMAP
FFE0
FFE0
ENDCHAR
STARTCHAR 0060
ENCODING 96
SWIDTH 440 0
DWIDTH 11 0
BBX 5 5 2 15
BITMAP
C0
60
30
10
18
ENDCHAR
STARTCHAR 0061
ENCODING 97
SWIDTH 560 0
DWIDTH 14 0
BBX 11 14 1 0
BITMAP
3F00
7F80
41C0
00C0
0060
07E0
3FE0
7060
6060
C0E0
C0E0
61E0
7F60
3E60
ENDCHAR
STARTCHAR 0062
ENCODING 98
SWIDTH 560 0
DWIDTH 14 0
BBX 11 19 2 0
BITMAP
C000
C000
C000
C000
C000
CF00
DF80
F1C0
E0C0
C060
C060
C060
C060
C060
C060
E0E0
E0C0
FFC0
DF80
ENDCHAR
STARTCHAR 0063
ENCODING 99
SWIDTH 480 0
DWIDTH 12 0
BBX 10 14 1 0
BITMAP
0F80
3FC0
7040
6000
6000
E000
C000
C000
C000
E000
6000
7000
3FC0
1FC0
ENDCHAR
STARTCHAR 0064
ENCODING 100
SWIDTH 560 0
DWIDTH 14 0
BBX 11 19 1 0
BITMAP
0060
0060
0060
0060
0060
1E60
3FE0
70E0
60E0
6060
C060
C060
C060
C060
E060
6060
70E0
3FE0
1F60
ENDCHAR
STARTCHAR 0065
ENCODING 101
SWIDTH 560 0
DWIDTH 14 0
BBX 12 14 1 0
BITMAP
0F80
3FC0
70E0
6060
6060
C030
FFF0
FFF0
C000
E000
6000
7000
3FE0
1FE0
ENDCHAR
STARTCHAR 0066
ENCODING 102
SWIDTH 320 0
DWIDTH 8 0
BBX 7 19 1 0
BITMAP
1E
3E
30
70
60
FE
FE
60
60
60
60
60
60
60
60
60
60
60
60
ENDCHAR
STARTCHAR 0067
ENCODING 103
SWIDTH 560 0
DWIDTH 14 0
BBX 11 19 1 -5
BITMAP
1E60
3FE0
70E0
60E0
E060
C060
C060
C060
C060
E060
60E0
70E0
3FE0
1E60
0060
0060
00C0
3FC0
3F80
ENDCHAR
STARTCHAR 0068
ENCODING 104
SWIDTH 560 0
DWIDTH 14 0
BBX 10 19 2 0
BITMAP
C000
C000
C000
C000
C000
CF00
DF80
F1C0
E0C0
C0C0
C0C0
C0C0
C0C0
C0C0
C0C0
C0C0
C0C0
C0C0
C0C0
ENDCHAR
STARTCHAR 0069
ENCODING 105
SWIDTH 240 0
DWIDTH 6 0
BBX 2 19 2 0
BITMAP
C0
C0
C0
00
00
C0
C0
C0
C0
C0
C0
C0
C0
C0
C0
C0
C0
C0
C0
ENDCHAR
STARTCHAR 006A
ENCODING 106
SWIDTH 240 0
DWIDTH 6 0
BBX 4 24 0 -5
BITMAP
30
30
30
00
00
30
30
30
30
30
30
30
30
30
30
30
30
30
30
30
30
30
F0
E0
ENDCHAR
STARTCHAR 006B
ENCODING 107
SWIDTH 520 0
DWIDTH 13 0
BBX 11 19 2 0
BITMAP
C000
C000
C000
C000
C000
C0E0
C1C0
C380
C600
CC00
D800
F000
F800
DC00
CE00
C700
C380
C1C0
C0E0
ENDCHAR
STARTCHAR 006C
ENCODING 108
SWIDTH 240 0
DWIDTH 6 0
BBX 2 19 2 0
BITMAP
C0
C0
C0
C0
C0
C0
C0
C0
C0
C0
C0
C0
C0
C0
C0
C0
C0
C0
C0
ENDCHAR
STARTCHAR 006D
ENCODING 109
SWIDTH 880 0
DWIDTH 22 0
BBX 18 14 2 0
BITMAP
CF0F00
DF9F80
F1F180
E0E0C0
C0C0C0
C0C0C0
C0C0C0
C0C0C0
C0C0C0
C0C0C0
C0C0C0
C0C0C0
C0C0C0
C0C0C0
ENDCHAR
STARTCHAR 006E
ENCODING 110
SWIDTH 560 0
DWIDTH 14 0
BBX 10 14 2 0
BITMAP
CF00
DF80
F1C0
E0C0
C0C0
C0C0
C0C0
C0C0
C0C0
C0C0
C0C0
C0C0
C0C0
C0C0
ENDCHAR
STARTCHAR 006F
ENCODING 111
SWIDTH 560 0
DWIDTH 14 0
BBX 12 14 1 0
BITMAP
1F00
3FC0
70C0
6060
6060
E060
C070
C070
C060
E060
6060
70E0
3FC0
1F80
ENDCHAR
STARTCHAR 0070
ENCODING 112
SWIDTH 560 0
DWIDTH 14 0
BBX 11 19 2 -5
BITMAP
CF00
DF80
F1C0
E0C0
C060
C060
C060
C060
C060
C060
E0E0
E0C0
FFC0
DF80
C000
C000
C000
C000
C000
ENDCHAR
STARTCHAR 0071
ENCODING 113
SWIDTH 560 0
DWIDTH 14 0
BBX 11 19 1 -5
BITMAP
1E60
3FE0
70E0
60E0
6060
C060
C060
C060
C060
E060
6060
70E0
3FE0
1F60
0060
0060
0060
0060
0060
ENDCHAR
STARTCHAR 0072
ENCODING 114
SWIDTH 360 0
DWIDTH 9 0
BBX 7 14 2 0
BITMAP
CE
DE
F0
E0
C0
C0
C0
C0
C0
C0
C0
C0
C0
C0
ENDCHAR
STARTCHAR 0073
ENCODING 115
SWIDTH 480 0
DWIDTH 12 0
BBX 10 14 1 0
BITMAP
3F00
7F80
6080
C000
C000
6000
7E00
1F80
0380
01C0
00C0
8180
FF80
FF00
ENDCHAR
STARTCHAR 0074
ENCODING 116
SWIDTH 360 0
DWIDTH 9 0
BBX 7 18 1 0
BITMAP
60
60
60
60
FE
FE
60
60
60
60
60
60
60
60
60
60
3E
1E
ENDCHAR
STARTCHAR 0075
ENCODING 117
SWIDTH 560 0
DWIDTH 14 0
BBX 10 14 2 0
BITMAP
C0C0
C0C0
C0C0
C0C0
C0C0
C0C0
C0C0
C0C0
C0C0
C0C0
C0C0
E1C0
7FC0
3EC0
ENDCHAR
STARTCHAR 0076
ENCODING 118
SWIDTH 520 0
DWIDTH 13 0
BBX 12 14 1 0
BITMAP
C070
C060
E060
60E0
60C0
70C0
31C0
3180
3980
1B80
1B00
1F00
0F00
0E00
ENDCHAR
STARTCHAR 0077
ENCODING 119
SWIDTH 720 0
DWIDTH 18 0
BBX 16 14 1 0
BITMAP
C183
C1C3
C3C3
63C3
6346
6366
6266
3666
3626
363C
343C
1C3C
1C3C
1C18
ENDCHAR
STARTCHAR 0078
ENCODING 120
SWIDTH 520 0
DWIDTH 13 0
BBX 11 14 1 0
BITMAP
E060
60E0
31C0
3980
1B80
0F00
0E00
0E00
1F00
1B80
3180
70C0
60E0
C060
ENDCHAR
STARTCHAR 0079
ENCODING 121
SWIDTH 520 0
DWIDTH 13 0
BBX 12 19 1 -5
BITMAP
C070
C060
E060
60E0
60C0
30C0
3180
3180
1980
1B00
1B00
0F00
0E00
0600
0E00
0C00
0C00
7800
7800
ENDCHAR
STARTCHAR 007A
ENCODING 122
SWIDTH 480 0
DWIDTH 12 0
BBX 10 14 1 0
BITMAP
FFC0
FFC0
01C0
0380
0300
0600
0E00
1C00
1800
3000
7000
E000
FFC0
FFC0
ENDCHAR
STARTCHAR 007B
ENCODING 123
SWIDTH 560 0
DWIDTH 14 0
BBX 9 23 3 -4
BITMAP
0780
0F80
1C00
1800
1800
1800
1800
1800
1800
1800
3800
E000
7800
1800
1800
1800
1800
1800
1800
1800
1C00
0F80
0780
ENDCHAR
STARTCHAR 007C
ENCODING 124
SWIDTH 320 0
DWIDTH 8 0
BBX 2 25 3 -6
BITMAP
C0
C0
C0
C0
C0
C0
C0
C0
C0
C0
C0
C0
C0
C0
C0
C0
C0
C0
C0
C0
C0
C0
C0
C0
C0
ENDCHAR
STARTCHAR 007D
ENCODING 125
SWIDTH 560 0
DWIDTH 14 0
BBX 9 23 3 -4
BITMAP
F000
F800
1800
1800
1800
1800
1800
1800
1800
1800
0E00
0780
0E00
1800
1800
1800
1800
1800
1800
1800
1800
F800
F000
ENDCHAR
STARTCHAR 007E
ENCODING 126
SWIDTH 760 0
DWIDTH 19 0
BBX 14 4 2 6
BITMAP
0C00
7F0C
F7FC
80F0
ENDCHAR
STARTCHAR 00A0
ENCODING 160
SWIDTH 280 0
DWIDTH 7 0
BBX 0 0 0 0
BITMAP
ENDCHAR
STARTCHAR 00A1
ENCODING 161
SWIDTH 360 0
DWIDTH 9 0
BBX 3 19 3 -5
BITMAP
E0
E0
E0
00
00
00
40
40
E0
E0
E0
E0
E0
E0
E0
E0
E0
E0
E0
ENDCHAR
STARTCHAR 00A2
ENCODING 162
SWIDTH 560 0
DWIDTH 14 0
BBX 10 21 2 -4
BITMAP
0600
0600
0600
0F80
3FC0
7640
6600
C600
C600
C600
C600
C600
C600
E600
7640
3FC0
1FC0
0600
0600
0600
0600
ENDCHAR
STARTCHAR 00A3
ENCODING 163
SWIDTH 560 0
DWIDTH 14 0
BBX 11 18 1 1
BITMAP
07E0
0E60
1C00
1800
1800
1800
1800
1800
1FC0
7FC0
1800
1800
1800
1800
1800
1800
FFE0
FFE0
ENDCHAR
STARTCHAR 00A4
ENCODING 164
SWIDTH 560 0
DWIDTH 14 0
BBX 12 13 1 2
BITMAP
C030
6F70
3FE0
30C0
3060
2060
6060
2060
30C0
3FC0
7FE0
E030
4000
ENDCHAR
STARTCHAR 00A5
ENCODING 165
SWIDTH 560 0
DWIDTH 14 0
BBX 12 18 1 0
BITMAP
C030
6070
6060
30E0
30C0
18C0
1980
FDF0
0F00
0700
0600
FFF0
0600
0600
0600
0600
0600
0600
ENDCHAR
STARTCHAR 00A6
ENCODING 166
SWIDTH 320 0
DWIDTH 8 0
BBX 2 21 3 -4
BITMAP
C0
C0
C0
C0
C0
C0
C0
C0
C0
00
00
00
C0
C0
C0
C0
C0
C0
C0
C0
C0
ENDCHAR
STARTCHAR 00A7
ENCODING 167
SWIDTH 440 0
DWIDTH 11 0
BBX 9 21 1 -2
BITMAP
0800
3F00
7100
6000
6000
7000
3800
7C00
C700
C380
C180
E180
7180
3980
1F00
0700
0300
0300
0300
6700
7E00
ENDCHAR
STARTCHAR 00A8
ENCODING 168
SWIDTH 440 0
DWIDTH 11 0
BBX 7 3 2 16
BITMAP
E6
E6
E6
ENDCHAR
STARTCHAR 00A9
ENCODING 169
SWIDTH 920 0
DWIDTH 23 0
BBX 16 18 3 0
BITMAP
07E0
0C38
100C
2086
47F2
4E11
CC01
8801
9801
9801
8801
CC01
4E11
67F2
2006
100C
0E38
03E0
ENDCHAR
STARTCHAR 00AA
ENCODING 170
SWIDTH 440 0
DWIDTH 11 0
BBX 8 13 1 6
BITMAP
08
7E
03
03
3F
7F
C3
C3
C7
7F
00
00
7F
ENDCHAR
STARTCHAR 00AB
ENCODING 171
SWIDTH 560 0
DWIDTH 14 0
BBX 10 11 2 2
BITMAP
0840
18C0
39C0
7380
E700
CE00
C600
6300
3180
18C0
0840
ENDCHAR
STARTCHAR 00AC
ENCODING 172
SWIDTH 760 0
DWIDTH 19 0
BBX 14 8 2 3
BITMAP
FFFC
FFFC
FFFC
0004
0004
0004
0004
0004
ENDCHAR
STARTCHAR 00AD
ENCODING 173
SWIDTH 320 0
DWIDTH 8 0
BBX 6 2 1 6
BITMAP
FC
FC
ENDCHAR
STARTCHAR 00AE
ENCODING 174
SWIDTH 920 0
DWIDTH 23 0
BBX 16 18 3 0
BITMAP
07E0
0C38
100C
2006
47E2
4631
C631
8631
87E1
87C1
8661
C661
4631
6612
2006
100C
0E38
03E0
ENDCHAR
STARTCHAR 00AF
ENCODING 175
SWIDTH 440 0
DWIDTH 11 0
BBX 7 2 2 17
BITMAP
FE
FE
ENDCHAR
STARTCHAR 00B0
ENCODING 176
SWIDTH 440 0
DWIDTH 11 0
BBX 7 8 2 11
BITMAP
10
7C
46
C2
C2
C6
6E
3C
ENDCHAR
STARTCHAR 00B1
ENCODING 177
SWIDTH 760 0
DWIDTH 19 0
BBX 14 16 2 0
BITMAP
0100
0100
0100
0100
0100
FFFC
FFFC
0100
0100
0100
0100
0100
0000
0000
FFFC
FFFC
ENDCHAR
STARTCHAR 00B2
ENCODING 178
SWIDTH 360 0
DWIDTH 9 0
BBX 7 10 1 9
BITMAP
FC
04
06
04
0C
18
30
60
FE
FE
ENDCHAR
STARTCHAR 00B3
ENCODING 179
SWIDTH 360 0
DWIDTH 9 0
BBX 7 11 1 8
BITMAP
10
FC
06
06
0C
38
06
06
06
9C
F8
ENDCHAR
STARTCHAR 00B4
ENCODING 180
SWIDTH 440 0
DWIDTH 11 0
BBX 5 5 4 15
BITMAP
18
30
60
60
C0
ENDCHAR
STARTCHAR 00B5
ENCODING 181
SWIDTH 560 0
DWIDTH 14 0
BBX 12 19 2 -5
BITMAP
C0C0
C0C0
C0C0
C0C0
C0C0
C0C0
C0C0
C0C0
C0C0
C0C0
C0C0
E1C0
FFF0
DE70
C000
C000
C000
C000
C000
ENDCHAR
STARTCHAR 00B6
ENCODING 182
SWIDTH 560 0
DWIDTH 14 0
BBX 10 20 2 -2
BITMAP
3FC0
7CC0
FCC0
FCC0
FCC0
FCC0
FCC0
FCC0
7CC0
3CC0
04C0
04C0
04C0
04C0
04C0
04C0
04C0
04C0
04C0
04C0
ENDCHAR
STARTCHAR 00B7
ENCODING 183
SWIDTH 280 0
DWIDTH 7 0
BBX 3 3 2 7
BITMAP
E0
E0
E0
ENDCHAR
STARTCHAR 00B8
ENCODING 184
SWIDTH 440 0
DWIDTH 11 0
BBX 5 5 3 -5
BITMAP
10
10
18
F8
F0
ENDCHAR
STARTCHAR 00B9
ENCODING 185
SWIDTH 360 0
DWIDTH 9 0
BBX 7 10 1 8
BITMAP
F8
98
18
18
18
18
18
18
1E
7E
ENDCHAR
STARTCHAR 00BA
ENCODING 186
SWIDTH 440 0
DWIDTH 11 0
BBX 9 13 1 6
BITMAP
0800
7E00
6300
C100
C100
C180
C100
C300
6300
3E00
0000
0000
7F00
ENDCHAR
STARTCHAR 00BB
ENCODING 187
SWIDTH 560 0
DWIDTH 14 0
BBX 10 11 2 2
BITMAP
8000
C400
E600
7300
3980
18C0
19C0
3380
6700
C600
8400
ENDCHAR
STARTCHAR 00BC
ENCODING 188
SWIDTH 880 0
DWIDTH 22 0
BBX 20 19 1 0
BITMAP
000300
F80200
980600
180C00
180C00
181800
181800
183000
183000
1E60E0
7E40E0
00C160
008260
018260
010460
030FF0
060FF0
060060
0C0060
ENDCHAR
STARTCHAR 00BD
ENCODING 189
SWIDTH 880 0
DWIDTH 22 0
BBX 19 19 1 0
BITMAP
000300
F80200
980600
180C00
180C00
181800
181800
183000
183100
1E67E0
7E4060
00C020
008060
018040
0100C0
030180
060300
0607E0
0C07E0
ENDCHAR
STARTCHAR 00BE
ENCODING 190
SWIDTH 880 0
DWIDTH 22 0
BBX 20 19 1 0
BITMAP
100300
FC0200
060600
060C00
0C0C00
381800
061800
063000
063000
9C60E0
F840E0
00C160
008260
018260
010460
030FF0
060FF0
060060
0C0060
ENDCHAR
STARTCHAR 00BF
ENCODING 191
SWIDTH 480 0
DWIDTH 12 0
BBX 8 19 2 -5
BITMAP
1C
1C
1C
00
00
1C
1C
1C
18
18
30
70
E0
C0
C0
C0
E3
7F
3C
ENDCHAR
STARTCHAR 00C0
ENCODING 192
SWIDTH 600 0
DWIDTH 15 0
BBX 15 24 0 0
BITMAP
0600
0300
0100
0180
0000
0000
0380
03C0
07C0
06C0
06E0
0E60
0C60
0C70
1C30
1830
1838
3FF8
3FF8
301C
700C
600C
600E
E006
ENDCHAR
STARTCHAR 00C1
ENCODING 193
SWIDTH 600 0
DWIDTH 15 0
BBX 15 24 0 0
BITMAP
00C0
0080
0180
0300
0000
0000
0380
03C0
07C0
06C0
06E0
0E60
0C60
0C70
1C30
1830
1838
3FF8
3FF8
301C
700C
600C
600E
E006
ENDCHAR
STARTCHAR 00C2
ENCODING 194
SWIDTH 600 0
DWIDTH 15 0
BBX 15 24 0 0
BITMAP
0180
03C0
0640
0C60
0000
0000
0380
03C0
07C0
06C0
06E0
0E60
0C60
0C70
1C30
1830
1838
3FF8
3FF8
301C
700C
600C
600E
E006
ENDCHAR
STARTCHAR 00C3
ENCODING 195
SWIDTH 600 0
DWIDTH 15 0
BBX 15 23 0 0
BITMAP
0FA0
0DE0
0000
0000
0000
0380
03C0
07C0
06C0
06E0
0E60
0C60
0C70
1C30
1830
1838
3FF8
3FF8
301C
700C
600C
600E
E006
ENDCHAR
STARTCHAR 00C4
ENCODING 196
SWIDTH 600 0
DWIDTH 15 0
BBX 15 23 0 0
BITMAP
0E60
0E60
0000
0000
0000
0380
03C0
07C0
06C0
06E0
0E60
0C60
0C70
1C30
1830
1838
3FF8
3FF8
301C
700C
600C
600E
E006
ENDCHAR
STARTCHAR 00C5
ENCODING 197
SWIDTH 600 0
DWIDTH 15 0
BBX 15 23 0 0
BITMAP
03C0
06C0
0460
0460
0640
03C0
03C0
07C0
06C0
06E0
0E60
0C60
0C70
1C30
1830
1838
3FF8
3FF8
301C
700C
600C
600E
E006
ENDCHAR
STARTCHAR 00C6
ENCODING 198
SWIDTH 880 0
DWIDTH 22 0
BBX 20 18 0 0
BITMAP
01FFF0
03FFF0
033000
033000
063000
063000
0E3000
0C3FF0
0C3FF0
1C3000
183000
1FF000
3FF000
303000
703000
603000
603FF0
E03FF0
ENDCHAR
STARTCHAR 00C7
ENCODING 199
SWIDTH 640 0
DWIDTH 16 0
BBX 13 24 1 -5
BITMAP
0080
0FF0
1F78
3808
7000
6000
6000
E000
E000
E000
E000
E000
E000
6000
7000
7000
3808
1FF8
0FF0
0080
00C0
00C0
03C0
0380
ENDCHAR
STARTCHAR 00C8
ENCODING 200
SWIDTH 560 0
DWIDTH 14 0
BBX 11 24 2 0
BITMAP
1800
0800
0C00
0600
0000
0000
FFE0
FFE0
C000
C000
C000
C000
C000
FFC0
FFC0
C000
C000
C000
C000
C000
C000
C000
FFE0
FFE0
ENDCHAR
STARTCHAR 00C9
ENCODING 201
SWIDTH 560 0
DWIDTH 14 0
BBX 11 24 2 0
BITMAP
0300
0600
0400
0C00
0000
0000
FFE0
FFE0
C000
C000
C000
C000
C000
FFC0
FFC0
C000
C000
C000
C000
C000
C000
C000
FFE0
FFE0
ENDCHAR
STARTCHAR 00CA
ENCODING 202
SWIDTH 560 0
DWIDTH 14 0
BBX 11 24 2 0
BITMAP
0E00
1E00
1300
3180
0000
0000
FFE0
FFE0
C000
C000
C000
C000
C000
FFC0
FFC0
C000
C000
C000
C000
C000
C000
C000
FFE0
FFE0
ENDCHAR
STARTCHAR 00CB
ENCODING 203
SWIDTH 560 0
DWIDTH 14 0
BBX 11 23 2 0
BITMAP
3380
3380
0000
0000
0000
FFE0
FFE0
C000
C000
C000
C000
C000
FFC0
FFC0
C000
C000
C000
C000
C000
C000
C000
FFE0
FFE0
ENDCHAR
STARTCHAR 00CC
ENCODING 204
SWIDTH 280 0
DWIDTH 7 0
BBX 4 24 1 0
BITMAP
C0
40
60
30
00
00
60
60
60
60
60
60
60
60
60
60
60
60
60
60
60
60
60
60
ENDCHAR
STARTCHAR 00CD
ENCODING 205
SWIDTH 280 0
DWIDTH 7 0
BBX 4 24 2 0
BITMAP
30
60
C0
C0
00
00
C0
C0
C0
C0
C0
C0
C0
C0
C0
C0
C0
C0
C0
C0
C0
C0
C0
C0
ENDCHAR
STARTCHAR 00CE
ENCODING 206
SWIDTH 280 0
DWIDTH 7 0
BBX 7 24 0 0
BITMAP
30
78
4C
C6
00
00
30
30
30
30
30
30
30
30
30
30
30
30
30
30
30
30
30
30
ENDCHAR
STARTCHAR 00CF
ENCODING 207
SWIDTH 280 0
DWIDTH 7 0
BBX 7 23 0 0
BITMAP
CE
CE
00
00
00
30
30
30
30
30
30
30
30
30
30
30
30
30
30
30
30
30
30
ENDCHAR
STARTCHAR 00D0
ENCODING 208
SWIDTH 680 0
DWIDTH 17 0
BBX 16 18 0 0
BITMAP
3FE0
3FF8
381C
380E
3806
3807
3803
3803
FF03
3803
3803
3807
3807
3806
380E
383C
3FF8
3FE0
ENDCHAR
STARTCHAR 00D1
ENCODING 209
SWIDTH 680 0
DWIDTH 17 0
BBX 13 23 2 0
BITMAP
1EC0
1380
0000
0000
0000
F038
F038
F838
D838
D838
CC38
CC38
C638
C638
C338
C338
C1B8
C1B8
C1F8
C0F8
C0F8
C078
C078
ENDCHAR
STARTCHAR 00D2
ENCODING 210
SWIDTH 720 0
DWIDTH 18 0
BBX 15 24 1 0
BITMAP
0600
0300
0180
0080
0000
0180
0FF0
1EF8
381C
700C
600E
6006
E006
E006
E006
E006
E006
E006
6006
700E
700C
381C
1FF8
0FE0
ENDCHAR
STARTCHAR 00D3
ENCODING 211
SWIDTH 720 0
DWIDTH 18 0
BBX 15 24 1 0
BITMAP
00C0
00C0
0180
0300
0000
0180
0FF0
1EF8
381C
700C
600E
6006
E006
E006
E006
E006
E006
E006
6006
700E
700C
381C
1FF8
0FE0
ENDCHAR
STARTCHAR 00D4
ENCODING 212
SWIDTH 720 0
DWIDTH 18 0
BBX 15 24 1 0
BITMAP
0180
03C0
0640
0420
0000
0180
0FF0
1EF8
381C
700C
600E
6006
E006
E006
E006
E006
E006
E006
6006
700E
700C
381C
1FF8
0FE0
ENDCHAR
STARTCHAR 00D5
ENCODING 213
SWIDTH 720 0
DWIDTH 18 0
BBX 15 23 1 0
BITMAP
07A0
0CE0
0000
0000
0180
0FF0
1EF8
381C
700C
600E
6006
E006
E006
E006
E006
E006
E006
6006
700E
700C
381C
1FF8
0FE0
ENDCHAR
STARTCHAR 00D6
ENCODING 214
SWIDTH 720 0
DWIDTH 18 0
BBX 15 23 1 0
BITMAP
0660
0660
0000
0000
0180
0FF0
1EF8
381C
700C
600E
6006
E006
E006
E006
E006
E006
E006
6006
700E
700C
381C
1FF8
0FE0
ENDCHAR
STARTCHAR 00D7
ENCODING 215
SWIDTH 760 0
DWIDTH 19 0
BBX 13 14 3 1
BITMAP
4010
E038
7070
30E0
19C0
0D80
0F00
0700
0F80
1DC0
38E0
7070
E038
4010
ENDCHAR
STARTCHAR 00D8
ENCODING 216
SWIDTH 720 0
DWIDTH 18 0
BBX 15 20 1 -1
BITMAP
0102
0FF6
1EFC
381C
701C
603E
6066
E066
E0C6
E186
E306
E306
E606
6C06
780E
780C
381C
7FF8
CFE0
4000
ENDCHAR
STARTCHAR 00D9
ENCODING 217
SWIDTH 640 0
DWIDTH 16 0
BBX 13 24 2 0
BITMAP
0C00
0C00
0600
0300
0000
0000
C038
C038
C038
C038
C038
C038
C038
C038
C038
C038
C038
C038
C030
C030
E030
7070
7FE0
1FC0
ENDCHAR
STARTCHAR 00DA
ENCODING 218
SWIDTH 640 0
DWIDTH 16 0
BBX 13 24 2 0
BITMAP
0180
0300
0600
0400
0000
0000
C038
C038
C038
C038
C038
C038
C038
C038
C038
C038
C038
C038
C030
C030
E030
7070
7FE0
1FC0
ENDCHAR
STARTCHAR 00DB
ENCODING 219
SWIDTH 640 0
DWIDTH 16 0
BBX 13 24 2 0
BITMAP
0600
0F00
0980
18C0
0000
0000
C038
C038
C038
C038
C038
C038
C038
C038
C038
C038
C038
C038
C030
C030
E030
7070
7FE0
1FC0
ENDCHAR
STARTCHAR 00DC
ENCODING 220
SWIDTH 640 0
DWIDTH 16 0
BBX 13 23 2 0
BITMAP
19C0
19C0
0000
0000
0000
C038
C038
C038
C038
C038
C038
C038
C038
C038
C038
C038
C038
C030
C030
E030
7070
7FE0
1FC0
ENDCHAR
STARTCHAR 00DD
ENCODING 221
SWIDTH 560 0
DWIDTH 14 0
BBX 13 24 0 0
BITMAP
0180
0180
0300
0600
0000
0000
E018
6038
3030
3870
1860
1CC0
0DC0
0780
0780
0300
0300
0300
0300
0300
0300
0300
0300
0300
ENDCHAR
STARTCHAR 00DE
ENCODING 222
SWIDTH 560 0
DWIDTH 14 0
BBX 11 18 2 0
BITMAP
C000
C000
C000
FF00
FF80
C1C0
C0E0
C0E0
C0E0
C0E0
C0E0
C1C0
FF80
FF00
C000
C000
C000
C000
ENDCHAR
STARTCHAR 00DF
ENCODING 223
SWIDTH 560 0
DWIDTH 14 0
BBX 11 19 2 0
BITMAP
1E00
7F80
6180
C0C0
C0C0
C3C0
C600
CC00
CC00
CE00
C700
C380
C1C0
C0E0
C060
C060
C060
DFE0
DFC0
ENDCHAR
STARTCHAR 00E0
ENCODING 224
SWIDTH 560 0
DWIDTH 14 0
BBX 11 20 1 0
BITMAP
3000
1800
0C00
0400
0600
0000
3F00
7F80
41C0
00C0
0060
07E0
3FE0
7060
6060
C0E0
C0E0
61E0
7F60
3E60
ENDCHAR
STARTCHAR 00E1
ENCODING 225
SWIDTH 560 0
DWIDTH 14 0
BBX 11 20 1 0
BITMAP
0180
0300
0600
0600
0C00
0000
3F00
7F80
41C0
00C0
0060
07E0
3FE0
7060
6060
C0E0
C0E0
61E0
7F60
3E60
ENDCHAR
STARTCHAR 00E2
ENCODING 226
SWIDTH 560 0
DWIDTH 14 0
BBX 11 20 1 0
BITMAP
0E00
0E00
1B00
1100
3180
0000
3F00
7F80
41C0
00C0
0060
07E0
3FE0
7060
6060
C0E0
C0E0
61E0
7F60
3E60
ENDCHAR
STARTCHAR 00E3
ENCODING 227
SWIDTH 560 0
DWIDTH 14 0
BBX 11 19 1 0
BITMAP
3C80
3780
2300
0000
0000
3F00
7F80
41C0
00C0
0060
07E0
3FE0
7060
6060
C0E0
C0E0
61E0
7F60
3E60
ENDCHAR
STARTCHAR 00E4
ENCODING 228
SWIDTH 560 0
DWIDTH 14 0
BBX 11 19 1 0
BITMAP
3980
3980
3980
0000
0000
3F00
7F80
41C0
00C0
0060
07E0
3FE0
7060
6060
C0E0
C0E0
61E0
7F60
3E60
ENDCHAR
STARTCHAR 00E5
ENCODING 229
SWIDTH 560 0
DWIDTH 14 0
BBX 11 22 1 0
BITMAP
0E00
1F00
1100
1180
1100
1F00
0E00
0000
3F00
7F80
41C0
00C0
0060
07E0
3FE0
7060
6060
C0E0
C0E0
61E0
7F60
3E60
ENDCHAR
STARTCHAR 00E6
ENCODING 230
SWIDTH 880 0
DWIDTH 22 0
BBX 20 14 1 0
BITMAP
3F0F80
7F9FC0
41F0E0
00E060
006030
07E030
3FFFF0
707FF0
606000
C0E000
C0E000
61B000
7FBFE0
3F0FE0
ENDCHAR
STARTCHAR 00E7
ENCODING 231
SWIDTH 480 0
DWIDTH 12 0
BBX 10 19 1 -5
BITMAP
0F80
3FC0
7040
6000
6000
E000
C000
C000
C000
E000
6000
7000
3FC0
1FC0
0200
0100
0100
0F00
0E00
ENDCHAR
STARTCHAR 00E8
ENCODING 232
SWIDTH 560 0
DWIDTH 14 0
BBX 12 20 1 0
BITMAP
1800
0C00
0C00
0600
0300
0000
0F80
3FC0
70E0
6060
6060
C030
FFF0
FFF0
C000
E000
6000
7000
3FE0
1FE0
ENDCHAR
STARTCHAR 00E9
ENCODING 233
SWIDTH 560 0
DWIDTH 14 0
BBX 12 20 1 0
BITMAP
0180
0180
0300
0600
0400
0000
0F80
3FC0
70E0
6060
6060
C030
FFF0
FFF0
C000
E000
6000
7000
3FE0
1FE0
ENDCHAR
STARTCHAR 00EA
ENCODING 234
SWIDTH 560 0
DWIDTH 14 0
BBX 12 20 1 0
BITMAP
0600
0F00
0D00
1980
10C0
0000
0F80
3FC0
70E0
6060
6060
C030
FFF0
FFF0
C000
E000
6000
7000
3FE0
1FE0
ENDCHAR
STARTCHAR 00EB
ENCODING 235
SWIDTH 560 0
DWIDTH 14 0
BBX 12 19 1 0
BITMAP
1980
1980
1980
0000
0000
0F80
3FC0
70E0
6060
6060
C030
FFF0
FFF0
C000
E000
6000
7000
3FE0
1FE0
ENDCHAR
STARTCHAR 00EC
ENCODING 236
SWIDTH 240 0
DWIDTH 6 0
BBX 5 20 0 0
BITMAP
C0
60
60
30
18
00
30
30
30
30
30
30
30
30
30
30
30
30
30
30
ENDCHAR
STARTCHAR 00ED
ENCODING 237
SWIDTH 240 0
DWIDTH 6 0
BBX 4 20 2 0
BITMAP
30
30
60
C0
80
00
C0
C0
C0
C0
C0
C0
C0
C0
C0
C0
C0
C0
C0
C0
ENDCHAR
STARTCHAR 00EE
ENCODING 238
SWIDTH 240 0
DWIDTH 6 0
BBX 7 20 0 0
BITMAP
30
78
68
CC
86
00
30
30
30
30
30
30
30
30
30
30
30
30
30
30
ENDCHAR
STARTCHAR 00EF
ENCODING 239
SWIDTH 240 0
DWIDTH 6 0
BBX 6 19 0 0
BITMAP
CC
CC
CC
00
00
30
30
30
30
30
30
30
30
30
30
30
30
30
30
ENDCHAR
STARTCHAR 00F0
ENCODING 240
SWIDTH 560 0
DWIDTH 14 0
BBX 12 19 1 0
BITMAP
1800
0DC0
0F00
3F00
2300
0180
1FC0
3DC0
7060
6060
E060
C060
C070
C060
E060
6060
70E0
3FC0
1F80
ENDCHAR
STARTCHAR 00F1
ENCODING 241
SWIDTH 560 0
DWIDTH 14 0
BBX 10 19 2 0
BITMAP
3D80
2F80
2700
0000
0000
CF00
DF80
F1C0
E0C0
C0C0
C0C0
C0C0
C0C0
C0C0
C0C0
C0C0
C0C0
C0C0
C0C0
ENDCHAR
STARTCHAR 00F2
ENCODING 242
SWIDTH 560 0
DWIDTH 14 0
BBX 12 20 1 0
BITMAP
1800
1800
0C00
0600
0200
0000
1F00
3FC0
70C0
6060
6060
E060
C070
C070
C060
E060
6060
70E0
3FC0
1F80
ENDCHAR
STARTCHAR 00F3
ENCODING 243
SWIDTH 560 0
DWIDTH 14 0
BBX 12 20 1 0
BITMAP
0180
0300
0300
0600
0C00
0000
1F00
3FC0
70C0
6060
6060
E060
C070
C070
C060
E060
6060
70E0
3FC0
1F80
ENDCHAR
STARTCHAR 00F4
ENCODING 244
SWIDTH 560 0
DWIDTH 14 0
BBX 12 20 1 0
BITMAP
0600
0F00
0B00
1980
3080
0000
1F00
3FC0
70C0
6060
6060
E060
C070
C070
C060
E060
6060
70E0
3FC0
1F80
ENDCHAR
STARTCHAR 00F5
ENCODING 245
SWIDTH 560 0
DWIDTH 14 0
BBX 12 19 1 0
BITMAP
1C80
3780
3380
0000
0000
1F00
3FC0
70C0
6060
6060
E060
C070
C070
C060
E060
6060
70E0
3FC0
1F80
ENDCHAR
STARTCHAR 00F6
ENCODING 246
SWIDTH 560 0
DWIDTH 14 0
BBX 12 19 1 0
BITMAP
1980
1980
1980
0000
0000
1F00
3FC0
70C0
6060
6060
E060
C070
C070
C060
E060
6060
70E0
3FC0
1F80
ENDCHAR
STARTCHAR 00F7
ENCODING 247
SWIDTH 760 0
DWIDTH 19 0
BBX 14 12 2 2
BITMAP
0380
0380
0380
0000
0000
FFFC
FFFC
0000
0000
0380
0380
0380
ENDCHAR
STARTCHAR 00F8
ENCODING 248
SWIDTH 560 0
DWIDTH 14 0
BBX 12 15 1 0
BITMAP
1F30
3FE0
70C0
60E0
61E0
E360
C670
C670
CC60
F860
7060
70E0
7FC0
DF80
8000
ENDCHAR
STARTCHAR 00F9
ENCODING 249
SWIDTH 560 0
DWIDTH 14 0
BBX 10 20 2 0
BITMAP
3000
3000
1800
0C00
0400
0000
C0C0
C0C0
C0C0
C0C0
C0C0
C0C0
C0C0
C0C0
C0C0
C0C0
C0C0
E1C0
7FC0
3EC0
ENDCHAR
STARTCHAR 00FA
ENCODING 250
SWIDTH 560 0
DWIDTH 14 0
BBX 10 20 2 0
BITMAP
0300
0700
0600
0C00
1800
0000
C0C0
C0C0
C0C0
C0C0
C0C0
C0C0
C0C0
C0C0
C0C0
C0C0
C0C0
E1C0
7FC0
3EC0
ENDCHAR
STARTCHAR 00FB
ENCODING 251
SWIDTH 560 0
DWIDTH 14 0
BBX 10 20 2 0
BITMAP
0C00
1E00
1200
3300
2100
0000
C0C0
C0C0
C0C0
C0C0
C0C0
C0C0
C0C0
C0C0
C0C0
C0C0
C0C0
E1C0
7FC0
3EC0
ENDCHAR
STARTCHAR 00FC
ENCODING 252
SWIDTH 560 0
DWIDTH 14 0
BBX 10 19 2 0
BITMAP
3300
3300
3300
0000
0000
C0C0
C0C0
C0C0
C0C0
C0C0
C0C0
C0C0
C0C0
C0C0
C0C0
C0C0
E1C0
7FC0
3EC0
ENDCHAR
STARTCHAR 00FD
ENCODING 253
SWIDTH 520 0
DWIDTH 13 0
BBX 12 25 1 -5
BITMAP
0180
0300
0600
0600
0C00
0000
C070
C060
E060
60E0
60C0
30C0
3180
3180
1980
1B00
1B00
0F00
0E00
0600
0E00
0C00
0C00
7800
7800
ENDCHAR
STARTCHAR 00FE
ENCODING 254
SWIDTH 560 0
DWIDTH 14 0
BBX 11 24 2 -5
BITMAP
C000
C000
C000
C000
C000
CF00
DF80
F1C0
E0C0
C060
C060
C060
C060
C060
C060
E0E0
E0C0
FFC0
DF80
C000
C000
C000
C000
C000
ENDCHAR
STARTCHAR 00FF
ENCODING 255
SWIDTH 520 0
DWIDTH 13 0
BBX 12 24 1 -5
BITMAP
3980
3980
3980
0000
0000
C070
C060
E060
60E0
60C0
30C0
3180
3180
1980
1B00
1B00
0F00
0E00
0600
0E00
0C00
0C00
7800
7800
ENDCHAR
STARTCHAR 0100
ENCODING 256
SWIDTH 600 0
DWIDTH 15 0
BBX 15 23 0 0
BITMAP
0FE0
0FE0
0000
0000
0000
0380
03C0
07C0
06C0
06E0
0E60
0C60
0C70
1C30
1830
1838
3FF8
3FF8
301C
700C
600C
600E
E006
ENDCHAR
STARTCHAR 0101
ENCODING 257
SWIDTH 560 0
DWIDTH 14 0
BBX 11 19 1 0
BITMAP
3F80
3F80
0000
0000
0000
3F00
7F80
41C0
00C0
0060
07E0
3FE0
7060
6060
C0E0
C0E0
61E0
7F60
3E60
ENDCHAR
STARTCHAR 0102
ENCODING 258
SWIDTH 600 0
DWIDTH 15 0
BBX 15 24 0 0
BITMAP
0C20
0420
07E0
03C0
0000
0000
0380
03C0
07C0
06C0
06E0
0E60
0C60
0C70
1C30
1830
1838
3FF8
3FF8
301C
700C
600C
600E
E006
ENDCHAR
STARTCHAR 0103
ENCODING 259
SWIDTH 560 0
DWIDTH 14 0
BBX 11 20 1 0
BITMAP
2080
3180
1F00
0E00
0000
0000
3F00
7F80
41C0
00C0
0060
07E0
3FE0
7060
6060
C0E0
C0E0
61E0
7F60
3E60
ENDCHAR
STARTCHAR 0104
ENCODING 260
SWIDTH 600 0
DWIDTH 15 0
BBX 16 23 0 -5
BITMAP
0380
03C0
07C0
06C0
06E0
0E60
0C60
0C70
1C30
1830
1838
3FF8
3FF8
301C
700C
600C
600E
E006
0004
0008
0008
000F
0007
ENDCHAR
STARTCHAR 0105
ENCODING 261
SWIDTH 560 0
DWIDTH 14 0
BBX 12 19 1 -5
BITMAP
3F00
7F80
41C0
00C0
0060
07E0
3FE0
7060
6060
C0E0
C0E0
61E0
7F60
3E60
00C0
0080
0080
00F0
0070
ENDCHAR
STARTCHAR 0106
ENCODING 262
SWIDTH 640 0
DWIDTH 16 0
BBX 13 24 1 0
BITMAP
00C0
00C0
0180
0300
0000
0080
0FF0
1F78
3808
7000
6000
6000
E000
E000
E000
E000
E000
E000
6000
7000
7000
3808
1FF8
0FF0
ENDCHAR
STARTCHAR 0107
ENCODING 263
SWIDTH 480 0
DWIDTH 12 0
BBX 10 20 1 0
BITMAP
0180
0180
0300
0600
0400
0000
0F80
3FC0
7040
6000
6000
E000
C000
C000
C000
E000
6000
7000
3FC0
1FC0
ENDCHAR
STARTCHAR 0108
ENCODING 264
SWIDTH 640 0
DWIDTH 16 0
BBX 13 24 1 0
BITMAP
0180
03C0
0260
0630
0000
0080
0FF0
1F78
3808
7000
6000
6000
E000
E000
E000
E000
E000
E000
6000
7000
7000
3808
1FF8
0FF0
ENDCHAR
STARTCHAR 0109
ENCODING 265
SWIDTH 480 0
DWIDTH 12 0
BBX 10 20 1 0
BITMAP
0700
0700
0D80
0880
18C0
0000
0F80
3FC0
7040
6000
6000
E000
C000
C000
C000
E000
6000
7000
3FC0
1FC0
ENDCHAR
STARTCHAR 010A
ENCODING 266
SWIDTH 640 0
DWIDTH 16 0
BBX 13 23 1 0
BITMAP
0180
0180
0000
0000
0080
0FF0
1F78
3808
7000
6000
6000
E000
E000
E000
E000
E000
E000
6000
7000
7000
3808
1FF8
0FF0
ENDCHAR
STARTCHAR 010B
ENCODING 267
SWIDTH 480 0
DWIDTH 12 0
BBX 10 19 1 0
BITMAP
0600
0600
0600
0000
0000
0F80
3FC0
7040
6000
6000
E000
C000
C000
C000
E000
6000
7000
3FC0
1FC0
ENDCHAR
STARTCHAR 010C
ENCODING 268
SWIDTH 640 0
DWIDTH 16 0
BBX 13 24 1 0
BITMAP
0420
0640
03C0
0180
0000
0080
0FF0
1F78
3808
7000
6000
6000
E000
E000
E000
E000
E000
E000
6000
7000
7000
3808
1FF8
0FF0
ENDCHAR
STARTCHAR 010D
ENCODING 269
SWIDTH 480 0
DWIDTH 12 0
BBX 10 20 1 0
BITMAP
1080
1980
0F00
0700
0600
0000
0F80
3FC0
7040
6000
6000
E000
C000
C000
C000
E000
6000
7000
3FC0
1FC0
ENDCHAR
STARTCHAR 010E
ENCODING 270
SWIDTH 680 0
DWIDTH 17 0
BBX 14 24 2 0
BITMAP
1880
0980
0F00
0600
0000
0000
FF80
FFE0
C070
C038
C018
C01C
C01C
C00C
C00C
C00C
C00C
C01C
C01C
C018
C038
C0F0
FFE0
FF80
ENDCHAR
STARTCHAR 010F
ENCODING 271
SWIDTH 560 0
DWIDTH 14 0
BBX 15 19 1 0
BITMAP
0066
0066
0066
0066
0064
1E60
3FE0
70E0
60E0
6060
C060
C060
C060
C060
E060
6060
70E0
3FE0
1F60
ENDCHAR
STARTCHAR 0110
ENCODING 272
SWIDTH 680 0
DWIDTH 17 0
BBX 16 18 0 0
BITMAP
3FE0
3FF8
381C
380E
3806
3807
3803
3803
FF03
3803
3803
3807
3807
3806
380E
383C
3FF8
3FE0
ENDCHAR
STARTCHAR 0111
ENCODING 273
SWIDTH 560 0
DWIDTH 14 0
BBX 13 19 1 0
BITMAP
0060
0060
03F8
0060
0060
1E60
3FE0
70E0
60E0
6060
C060
C060
C060
C060
E060
6060
70E0
3FE0
1F60
ENDCHAR
STARTCHAR 0112
ENCODING 274
SWIDTH 560 0
DWIDTH 14 0
BBX 11 23 2 0
BITMAP
3F80
3F80
0000
0000
0000
FFE0
FFE0
C000
C000
C000
C000
C000
FFC0
FFC0
C000
C000
C000
C000
C000
C000
C000
FFE0
FFE0
ENDCHAR
STARTCHAR 0113
ENCODING 275
SWIDTH 560 0
DWIDTH 14 0
BBX 12 19 1 0
BITMAP
1FC0
1FC0
0000
0000
0000
0F80
3FC0
70E0
6060
6060
C030
FFF0
FFF0
C000
E000
6000
7000
3FE0
1FE0
ENDCHAR
STARTCHAR 0114
ENCODING 276
SWIDTH 560 0
DWIDTH 14 0
BBX 11 24 2 0
BITMAP
2180
3B80
1F00
0000
0000
0000
FFE0
FFE0
C000
C000
C000
C000
C000
FFC0
FFC0
C000
C000
C000
C000
C000
C000
C000
FFE0
FFE0
ENDCHAR
STARTCHAR 0115
ENCODING 277
SWIDTH 560 0
DWIDTH 14 0
BBX 12 20 1 0
BITMAP
10C0
18C0
1F80
0700
0000
0000
0F80
3FC0
70E0
6060
6060
C030
FFF0
FFF0
C000
E000
6000
7000
3FE0
1FE0
ENDCHAR
STARTCHAR 0116
ENCODING 278
SWIDTH 560 0
DWIDTH 14 0
BBX 11 23 2 0
BITMAP
0C00
0C00
0000
0000
0000
FFE0
FFE0
C000
C000
C000
C000
C000
FFC0
FFC0
C000
C000
C000
C000
C000
C000
C000
FFE0
FFE0
ENDCHAR
STARTCHAR 0117
ENCODING 279
SWIDTH 560 0
DWIDTH 14 0
BBX 12 19 1 0
BITMAP
0600
0600
0600
0000
0000
0F80
3FC0
70E0
6060
6060
C030
FFF0
FFF0
C000
E000
6000
7000
3FE0
1FE0
ENDCHAR
STARTCHAR 0118
ENCODING 280
SWIDTH 560 0
DWIDTH 14 0
BBX 11 23 2 -5
BITMAP
FFE0
FFE0
C000
C000
C000
C000
C000
FFC0
FFC0
C000
C000
C000
C000
C000
C000
C000
FFE0
FFE0
0180
0100
0100
01E0
00E0
ENDCHAR
STARTCHAR 0119
ENCODING 281
SWIDTH 560 0
DWIDTH 14 0
BBX 12 19 1 -5
BITMAP
0F80
3FC0
70E0
6060
6060
C030
FFF0
FFF0
C000
E000
6000
7000
3FE0
1FE0
0080
0100
0100
01E0
00E0
ENDCHAR
STARTCHAR 011A
ENCODING 282
SWIDTH 560 0
DWIDTH 14 0
BBX 11 23 2 0
BITMAP
3180
1B00
0E00
0E00
0000
FFE0
FFE0
C000
C000
C000
C000
C000
FFC0
FFC0
C000
C000
C000
C000
C000
C000
C000
FFE0
FFE0
ENDCHAR
STARTCHAR 011B
ENCODING 283
SWIDTH 560 0
DWIDTH 14 0
BBX 12 20 1 0
BITMAP
1880
0980
0D00
0700
0600
0000
0F80
3FC0
70E0
6060
6060
C030
FFF0
FFF0
C000
E000
6000
7000
3FE0
1FE0
ENDCHAR
STARTCHAR 011C
ENCODING 284
SWIDTH 680 0
DWIDTH 17 0
BBX 15 24 1 0
BITMAP
01C0
0140
0360
0630
0000
0080
0FF8
1F7C
380C
7000
6000
6000
E000
E000
E07E
E07E
E07E
E00E
600E
600E
700E
380E
1FFC
07F8
ENDCHAR
STARTCHAR 011D
ENCODING 285
SWIDTH 560 0
DWIDTH 14 0
BBX 11 25 1 -5
BITMAP
0600
0E00
1B00
1980
3080
0000
1E60
3FE0
70E0
60E0
E060
C060
C060
C060
C060
E060
60E0
70E0
3FE0
1E60
0060
0060
00C0
3FC0
3F80
ENDCHAR
STARTCHAR 011E
ENCODING 286
SWIDTH 680 0
DWIDTH 17 0
BBX 15 24 1 0
BITMAP
0C20
0660
07C0
0000
0000
0080
0FF8
1F7C
380C
7000
6000
6000
E000
E000
E07E
E07E
E07E
E00E
600E
600E
700E
380E
1FFC
07F8
ENDCHAR
STARTCHAR 011F
ENCODING 287
SWIDTH 560 0
DWIDTH 14 0
BBX 11 25 1 -5
BITMAP
10C0
1080
1F80
0F00
0000
0000
1E60
3FE0
70E0
60E0
E060
C060
C060
C060
C060
E060
60E0
70E0
3FE0
1E60
0060
0060
00C0
3FC0
3F80
ENDCHAR
STARTCHAR 0120
ENCODING 288
SWIDTH 680 0
DWIDTH 17 0
BBX 15 23 1 0
BITMAP
01C0
01C0
0000
0000
0080
0FF8
1F7C
380C
7000
6000
6000
E000
E000
E07E
E07E
E07E
E00E
600E
600E
700E
380E
1FFC
07F8
ENDCHAR
STARTCHAR 0121
ENCODING 289
SWIDTH 560 0
DWIDTH 14 0
BBX 11 24 1 -5
BITMAP
0600
0600
0600
0000
0000
1E60
3FE0
70E0
60E0
E060
C060
C060
C060
C060
E060
60E0
70E0
3FE0
1E60
0060
0060
00C0
3FC0
3F80
ENDCHAR
STARTCHAR 0122
ENCODING 290
SWIDTH 680 0
DWIDTH 17 0
BBX 15 25 1 -6
BITMAP
0080
0FF8
1F7C
380C
7000
6000
6000
E000
E000
E07E
E07E
E07E
E00E
600E
600E
700E
380E
1FFC
07F8
0000
0000
00C0
0180
0180
0100
ENDCHAR
STARTCHAR 0123
ENCODING 291
SWIDTH 560 0
DWIDTH 14 0
BBX 11 24 1 -5
BITMAP
0300
0200
0600
0600
0000
1E60
3FE0
70E0
60E0
E060
C060
C060
C060
C060
E060
60E0
70E0
3FE0
1E60
0060
0060
00C0
3FC0
3F80
ENDCHAR
STARTCHAR 0124
ENCODING 292
SWIDTH 680 0
DWIDTH 17 0
BBX 13 24 2 0
BITMAP
0700
0500
0D80
18C0
0000
0000
C038
C038
C038
C038
C038
C038
C038
FFF8
FFF8
C038
C038
C038
C038
C038
C038
C038
C038
C038
ENDCHAR
STARTCHAR 0125
ENCODING 293
SWIDTH 560 0
DWIDTH 14 0
BBX 12 24 0 0
BITMAP
3000
7800
CC00
8400
0000
3000
3000
3000
3000
3000
33C0
37E0
3C70
3830
3030
3030
3030
3030
3030
3030
3030
3030
3030
3030
ENDCHAR
STARTCHAR 0126
ENCODING 294
SWIDTH 840 0
DWIDTH 21 0
BBX 16 18 2 0
BITMAP
300E
300E
300E
FFFF
FFFF
300E
300E
3FFE
3FFE
300E
300E
300E
300E
300E
300E
300E
300E
300E
ENDCHAR
STARTCHAR 0127
ENCODING 295
SWIDTH 640 0
DWIDTH 16 0
BBX 12 19 1 0
BITMAP
3000
3F00
FF00
F000
3000
33C0
3FE0
3860
3030
3030
3030
3030
3030
3030
3030
3030
3030
3030
3030
ENDCHAR
STARTCHAR 0128
ENCODING 296
SWIDTH 280 0
DWIDTH 7 0
BBX 7 23 0 0
BITMAP
F6
9C
00
00
00
30
30
30
30
30
30
30
30
30
30
30
30
30
30
30
30
30
30
ENDCHAR
STARTCHAR 0129
ENCODING 297
SWIDTH 240 0
DWIDTH 6 0
BBX 7 19 0 0
BITMAP
E6
BC
9C
00
00
30
30
30
30
30
30
30
30
30
30
30
30
30
30
ENDCHAR
STARTCHAR 012A
ENCODING 298
SWIDTH 280 0
DWIDTH 7 0
BBX 7 23 0 0
BITMAP
FE
FE
00
00
00
30
30
30
30
30
30
30
30
30
30
30
30
30
30
30
30
30
30
ENDCHAR
STARTCHAR 012B
ENCODING 299
SWIDTH 240 0
DWIDTH 6 0
BBX 6 19 0 0
BITMAP
FC
FC
00
00
00
30
30
30
30
30
30
30
30
30
30
30
30
30
30
ENDCHAR
STARTCHAR 012C
ENCODING 300
SWIDTH 280 0
DWIDTH 7 0
BBX 7 24 0 0
BITMAP
86
CE
7C
00
00
00
30
30
30
30
30
30
30
30
30
30
30
30
30
30
30
30
30
30
ENDCHAR
STARTCHAR 012D
ENCODING 301
SWIDTH 240 0
DWIDTH 6 0
BBX 7 20 0 0
BITMAP
86
84
FC
78
00
00
30
30
30
30
30
30
30
30
30
30
30
30
30
30
ENDCHAR
STARTCHAR 012E
ENCODING 302
SWIDTH 280 0
DWIDTH 7 0
BBX 4 23 2 -5
BITMAP
C0
C0
C0
C0
C0
C0
C0
C0
C0
C0
C0
C0
C0
C0
C0
C0
C0
C0
40
C0
C0
F0
70
ENDCHAR
STARTCHAR 012F
ENCODING 303
SWIDTH 240 0
DWIDTH 6 0
BBX 4 24 2 -5
BITMAP
C0
C0
C0
00
00
C0
C0
C0
C0
C0
C0
C0
C0
C0
C0
C0
C0
C0
C0
C0
80
80
F0
70
ENDCHAR
STARTCHAR 0130
ENCODING 304
SWIDTH 280 0
DWIDTH 7 0
BBX 2 23 2 0
BITMAP
C0
C0
00
00
00
C0
C0
C0
C0
C0
C0
C0
C0
C0
C0
C0
C0
C0
C0
C0
C0
C0
C0
ENDCHAR
STARTCHAR 0131
ENCODING 305
SWIDTH 240 0
DWIDTH 6 0
BBX 2 14 2 0
BITMAP
C0
C0
C0
C0
C0
C0
C0
C0
C0
C0
C0
C0
C0
C0
ENDCHAR
STARTCHAR 0132
ENCODING 306
SWIDTH 520 0
DWIDTH 13 0
BBX 9 23 2 -5
BITMAP
C180
C180
C180
C180
C180
C180
C180
C180
C180
C180
C180
C180
C180
C180
C180
C180
C180
C180
0180
0380
0300
1F00
1E00
ENDCHAR
STARTCHAR 0133
ENCODING 307
SWIDTH 520 0
DWIDTH 13 0
BBX 8 24 2 -5
BITMAP
C3
C3
C3
00
00
C3
C3
C3
C3
C3
C3
C3
C3
C3
C3
C3
C3
C3
C3
03
03
03
0F
0E
ENDCHAR
STARTCHAR 0134
ENCODING 308
SWIDTH 280 0
DWIDTH 7 0
BBX 8 29 -1 -5
BITMAP
18
3C
26
63
00
00
18
18
18
18
18
18
18
18
18
18
18
18
18
18
18
18
18
18
18
18
38
F0
E0
ENDCHAR
STARTCHAR 0135
ENCODING 309
SWIDTH 240 0
DWIDTH 6 0
BBX 7 25 0 -5
BITMAP
30
78
68
CC
86
00
30
30
30
30
30
30
30
30
30
30
30
30
30
30
30
30
30
F0
E0
ENDCHAR
STARTCHAR 0136
ENCODING 310
SWIDTH 600 0
DWIDTH 15 0
BBX 13 24 2 -6
BITMAP
C070
C0E0
C1C0
C380
C700
CE00
DC00
F800
F800
DC00
CC00
CE00
C700
C380
C1C0
C0E0
C070
C038
0000
0000
0300
0300
0600
0600
ENDCHAR
STARTCHAR 0137
ENCODING 311
SWIDTH 520 0
DWIDTH 13 0
BBX 11 25 2 -6
BITMAP
C000
C000
C000
C000
C000
C0E0
C1C0
C380
C600
CC00
D800
F000
F800
DC00
CE00
C700
C380
C1C0
C0E0
0000
0000
0600
0C00
0C00
0C00
ENDCHAR
STARTCHAR 0138
ENCODING 312
SWIDTH 520 0
DWIDTH 13 0
BBX 11 14 2 0
BITMAP
C0E0
C1C0
C380
C600
CC00
D800
F000
F800
DC00
CE00
C700
C380
C1C0
C0E0
ENDCHAR
STARTCHAR 0139
ENCODING 313
SWIDTH 520 0
DWIDTH 13 0
BBX 10 24 2 0
BITMAP
1800
3000
6000
4000
0000
0000
C000
C000
C000
C000
C000
C000
C000
C000
C000
C000
C000
C000
C000
C000
C000
C000
FFC0
FFC0
ENDCHAR
STARTCHAR 013A
ENCODING 314
SWIDTH 240 0
DWIDTH 6 0
BBX 4 24 2 0
BITMAP
30
30
60
C0
00
C0
C0
C0
C0
C0
C0
C0
C0
C0
C0
C0
C0
C0
C0
C0
C0
C0
C0
C0
ENDCHAR
STARTCHAR 013B
ENCODING 315
SWIDTH 520 0
DWIDTH 13 0
BBX 10 24 2 -6
BITMAP
C000
C000
C000
C000
C000
C000
C000
C000
C000
C000
C000
C000
C000
C000
C000
C000
FFC0
FFC0
0000
0000
0E00
0C00
0C00
0800
ENDCHAR
STARTCHAR 013C
ENCODING 316
SWIDTH 240 0
DWIDTH 6 0
BBX 3 25 2 -6
BITMAP
C0
C0
C0
C0
C0
C0
C0
C0
C0
C0
C0
C0
C0
C0
C0
C0
C0
C0
C0
00
00
E0
C0
C0
80
ENDCHAR
STARTCHAR 013D
ENCODING 317
SWIDTH 520 0
DWIDTH 13 0
BBX 10 18 2 0
BITMAP
C600
C600
C600
C600
C400
C000
C000
C000
C000
C000
C000
C000
C000
C000
C000
C000
FFC0
FFC0
ENDCHAR
STARTCHAR 013E
ENCODING 318
SWIDTH 320 0
DWIDTH 8 0
BBX 6 19 2 0
BITMAP
CC
CC
CC
C8
D8
C0
C0
C0
C0
C0
C0
C0
C0
C0
C0
C0
C0
C0
C0
ENDCHAR
STARTCHAR 013F
ENCODING 319
SWIDTH 520 0
DWIDTH 13 0
BBX 10 18 2 0
BITMAP
C000
C000
C000
C000
C000
C000
C000
C180
C180
C180
C000
C000
C000
C000
C000
C000
FFC0
FFC0
ENDCHAR
STARTCHAR 0140
ENCODING 320
SWIDTH 320 0
DWIDTH 8 0
BBX 5 19 2 0
BITMAP
C0
C0
C0
C0
C0
C0
C0
C0
D8
D8
D8
C0
C0
C0
C0
C0
C0
C0
C0
ENDCHAR
STARTCHAR 0141
ENCODING 321
SWIDTH 520 0
DWIDTH 13 0
BBX 13 18 0 0
BITMAP
3800
3800
3800
3800
3800
3980
3B00
3E00
3C00
3800
F800
F800
3800
3800
3800
3800
3FF8
3FF8
ENDCHAR
STARTCHAR 0142
ENCODING 322
SWIDTH 240 0
DWIDTH 6 0
BBX 6 19 0 0
BITMAP
30
30
30
30
30
30
34
3C
38
70
F0
30
30
30
30
30
30
30
30
ENDCHAR
STARTCHAR 0143
ENCODING 323
SWIDTH 680 0
DWIDTH 17 0
BBX 13 24 2 0
BITMAP
0300
0300
0600
0C00
0000
0000
F038
F038
F838
D838
D838
CC38
CC38
C638
C638
C338
C338
C1B8
C1B8
C1F8
C0F8
C0F8
C078
C078
ENDCHAR
STARTCHAR 0144
ENCODING 324
SWIDTH 560 0
DWIDTH 14 0
BBX 10 20 2 0
BITMAP
0300
0600
0C00
0800
1800
0000
CF00
DF80
F1C0
E0C0
C0C0
C0C0
C0C0
C0C0
C0C0
C0C0
C0C0
C0C0
C0C0
C0C0
ENDCHAR
STARTCHAR 0145
ENCODING 325
SWIDTH 680 0
DWIDTH 17 0
BBX 13 24 2 -6
BITMAP
F038
F038
F838
D838
D838
CC38
CC38
C638
C638
C338
C338
C1B8
C1B8
C1F8
C0F8
C0F8
C078
C078
0000
0000
0300
0600
0600
0400
ENDCHAR
STARTCHAR 0146
ENCODING 326
SWIDTH 560 0
DWIDTH 14 0
BBX 10 20 2 -6
BITMAP
CF00
DF80
F1C0
E0C0
C0C0
C0C0
C0C0
C0C0
C0C0
C0C0
C0C0
C0C0
C0C0
C0C0
0000
0000
0E00
0C00
0C00
0800
ENDCHAR
STARTCHAR 0147
ENCODING 327
SWIDTH 680 0
DWIDTH 17 0
BBX 13 23 2 0
BITMAP
18C0
0980
0700
0600
0000
F038
F038
F838
D838
D838
CC38
CC38
C638
C638
C338
C338
C1B8
C1B8
C1F8
C0F8
C0F8
C078
C078
ENDCHAR
STARTCHAR 0148
ENCODING 328
SWIDTH 560 0
DWIDTH 14 0
BBX 10 20 2 0
BITMAP
3100
1300
1E00
0E00
0C00
0000
CF00
DF80
F1C0
E0C0
C0C0
C0C0
C0C0
C0C0
C0C0
C0C0
C0C0
C0C0
C0C0
C0C0
ENDCHAR
STARTCHAR 0149
ENCODING 329
SWIDTH 720 0
DWIDTH 18 0
BBX 14 18 2 0
BITMAP
6000
6000
6000
6000
CCF0
CFF8
0E1C
0C0C
0C0C
0C0C
0C0C
0C0C
0C0C
0C0C
0C0C
0C0C
0C0C
0C0C
ENDCHAR
STARTCHAR 014A
ENCODING 330
SWIDTH 680 0
DWIDTH 17 0
BBX 12 24 2 -5
BITMAP
0100
CFC0
DFE0
D870
F070
E030
E030
E030
C030
C030
C030
C030
C030
C030
C030
C030
C030
C030
C030
0030
0030
0030
00F0
00E0
ENDCHAR
STARTCHAR 014B
ENCODING 331
SWIDTH 560 0
DWIDTH 14 0
BBX 10 19 2 -5
BITMAP
CF00
DF80
F1C0
E0C0
C0C0
C0C0
C0C0
C0C0
C0C0
C0C0
C0C0
C0C0
C0C0
C0C0
00C0
00C0
00C0
0FC0
0F80
ENDCHAR
STARTCHAR 014C
ENCODING 332
SWIDTH 720 0
DWIDTH 18 0
BBX 15 23 1 0
BITMAP
07E0
07E0
0000
0000
0180
0FF0
1EF8
381C
700C
600E
6006
E006
E006
E006
E006
E006
E006
6006
700E
700C
381C
1FF8
0FE0
ENDCHAR
STARTCHAR 014D
ENCODING 333
SWIDTH 560 0
DWIDTH 14 0
BBX 12 19 1 0
BITMAP
1F80
1F80
0000
0000
0000
1F00
3FC0
70C0
6060
6060
E060
C070
C070
C060
E060
6060
70E0
3FC0
1F80
ENDCHAR
STARTCHAR 014E
ENCODING 334
SWIDTH 720 0
DWIDTH 18 0
BBX 15 24 1 0
BITMAP
0C20
0660
07C0
0000
0000
0180
0FF0
1EF8
381C
700C
600E
6006
E006
E006
E006
E006
E006
E006
6006
700E
700C
381C
1FF8
0FE0
ENDCHAR
STARTCHAR 014F
ENCODING 335
SWIDTH 560 0
DWIDTH 14 0
BBX 12 20 1 0
BITMAP
3080
1080
1F80
0F00
0000
0000
1F00
3FC0
70C0
6060
6060
E060
C070
C070
C060
E060
6060
70E0
3FC0
1F80
ENDCHAR
STARTCHAR 0150
ENCODING 336
SWIDTH 720 0
DWIDTH 18 0
BBX 15 24 1 0
BITMAP
01B8
0330
0660
06C0
0000
0180
0FF0
1EF8
381C
700C
600E
6006
E006
E006
E006
E006
E006
E006
6006
700E
700C
381C
1FF8
0FE0
ENDCHAR
STARTCHAR 0151
ENCODING 337
SWIDTH 560 0
DWIDTH 14 0
BBX 12 20 1 0
BITMAP
0660
06C0
0CC0
0D80
1900
0000
1F00
3FC0
70C0
6060
6060
E060
C070
C070
C060
E060
6060
70E0
3FC0
1F80
ENDCHAR
STARTCHAR 0152
ENCODING 338
SWIDTH 960 0
DWIDTH 24 0
BBX 22 18 1 0
BITMAP
07FFF8
1FFFF8
3C1800
301800
701800
601800
E01800
E01FF8
E01FF8
E01800
E01800
E01800
601800
701800
381800
1E1800
0FFFFC
03FFFC
ENDCHAR
STARTCHAR 0153
ENCODING 339
SWIDTH 920 0
DWIDTH 23 0
BBX 21 14 1 0
BITMAP
1F07C0
3FDFE0
70D870
607030
607018
E07018
C07FF8
C07FF8
C07000
E07000
607000
70F800
3FDFF0
1F8FF0
ENDCHAR
STARTCHAR 0154
ENCODING 340
SWIDTH 640 0
DWIDTH 16 0
BBX 13 24 2 0
BITMAP
0300
0600
0C00
0800
0000
0000
FF80
FFC0
C1C0
C0E0
C0E0
C0E0
C0E0
C0C0
FFC0
FF00
C380
C1C0
C0E0
C060
C060
C070
C030
C038
ENDCHAR
STARTCHAR 0155
ENCODING 341
SWIDTH 360 0
DWIDTH 9 0
BBX 8 20 2 0
BITMAP
03
06
0C
08
18
00
CE
DE
F0
E0
C0
C0
C0
C0
C0
C0
C0
C0
C0
C0
ENDCHAR
STARTCHAR 0156
ENCODING 342
SWIDTH 640 0
DWIDTH 16 0
BBX 13 24 2 -6
BITMAP
FF80
FFC0
C1C0
C0E0
C0E0
C0E0
C0E0
C0C0
FFC0
FF00
C380
C1C0
C0E0
C060
C060
C070
C030
C038
0000
0000
0300
0300
0600
0600
ENDCHAR
STARTCHAR 0157
ENCODING 343
SWIDTH 360 0
DWIDTH 9 0
BBX 7 20 2 -6
BITMAP
CE
DE
F0
E0
C0
C0
C0
C0
C0
C0
C0
C0
C0
C0
00
00
C0
C0
C0
80
ENDCHAR
STARTCHAR 0158
ENCODING 344
SWIDTH 640 0
DWIDTH 16 0
BBX 13 23 2 0
BITMAP
2100
3300
1E00
0C00
0000
FF80
FFC0
C1C0
C0E0
C0E0
C0E0
C0E0
C0C0
FFC0
FF00
C380
C1C0
C0E0
C060
C060
C070
C030
C038
ENDCHAR
STARTCHAR 0159
ENCODING 345
SWIDTH 360 0
DWIDTH 9 0
BBX 7 20 2 0
BITMAP
42
66
3C
38
18
00
CE
DE
F0
E0
C0
C0
C0
C0
C0
C0
C0
C0
C0
C0
ENDCHAR
STARTCHAR 015A
ENCODING 346
SWIDTH 560 0
DWIDTH 14 0
BBX 12 24 1 0
BITMAP
0180
0300
0600
0400
0000
0200
3FE0
7DE0
6020
6000
E000
6000
7000
7E00
3FC0
07E0
00F0
0070
0030
0030
0070
4070
7FE0
7FC0
ENDCHAR
STARTCHAR 015B
ENCODING 347
SWIDTH 480 0
DWIDTH 12 0
BBX 10 20 1 0
BITMAP
0180
0300
0600
0400
0C00
0000
3F00
7F80
6080
C000
C000
6000
7E00
1F80
0380
01C0
00C0
8180
FF80
FF00
ENDCHAR
STARTCHAR 015C
ENCODING 348
SWIDTH 560 0
DWIDTH 14 0
BBX 12 24 1 0
BITMAP
0600
0F00
0980
18C0
0000
0200
3FE0
7DE0
6020
6000
E000
6000
7000
7E00
3FC0
07E0
00F0
0070
0030
0030
0070
4070
7FE0
7FC0
ENDCHAR
STARTCHAR 015D
ENCODING 349
SWIDTH 480 0
DWIDTH 12 0
BBX 10 20 1 0
BITMAP
0C00
1E00
1200
3300
2100
0000
3F00
7F80
6080
C000
C000
6000
7E00
1F80
0380
01C0
00C0
8180
FF80
FF00
ENDCHAR
STARTCHAR 015E
ENCODING 350
SWIDTH 560 0
DWIDTH 14 0
BBX 12 24 1 -5
BITMAP
0200
3FE0
7DE0
6020
6000
E000
6000
7000
7E00
3FC0
07E0
00F0
0070
0030
0030
0070
4070
7FE0
7FC0
0200
0100
0100
0F00
0E00
ENDCHAR
STARTCHAR 015F
ENCODING 351
SWIDTH 480 0
DWIDTH 12 0
BBX 10 19 1 -5
BITMAP
3F00
7F80
6080
C000
C000
6000
7E00
1F80
0380
01C0
00C0
8180
FF80
FF00
0400
0600
0600
3E00
3C00
ENDCHAR
STARTCHAR 0160
ENCODING 352
SWIDTH 560 0
DWIDTH 14 0
BBX 12 24 1 0
BITMAP
1080
0980
0F00
0600
0000
0200
3FE0
7DE0
6020
6000
E000
6000
7000
7E00
3FC0
07E0
00F0
0070
0030
0030
0070
4070
7FE0
7FC0
ENDCHAR
STARTCHAR 0161
ENCODING 353
SWIDTH 480 0
DWIDTH 12 0
BBX 10 20 1 0
BITMAP
2100
3300
1E00
0E00
0C00
0000
3F00
7F80
6080
C000
C000
6000
7E00
1F80
0380
01C0
00C0
8180
FF80
FF00
ENDCHAR
STARTCHAR 0162
ENCODING 354
SWIDTH 560 0
DWIDTH 14 0
BBX 14 23 0 -5
BITMAP
FFFC
FFFC
0300
0300
0300
0300
0300
0300
0300
0300
0300
0300
0300
0300
0300
0300
0300
0300
0300
0100
0180
0F00
0F00
ENDCHAR
STARTCHAR 0163
ENCODING 355
SWIDTH 360 0
DWIDTH 9 0
BBX 7 23 1 -5
BITMAP
60
60
60
60
FE
FE
60
60
60
60
60
60
60
60
60
60
3E
1E
0C
04
04
3C
38
ENDCHAR
STARTCHAR 0164
ENCODING 356
SWIDTH 560 0
DWIDTH 14 0
BBX 14 23 0 0
BITMAP
0840
0C80
0780
0300
0000
FFFC
FFFC
0300
0300
0300
0300
0300
0300
0300
0300
0300
0300
0300
0300
0300
0300
0300
0300
ENDCHAR
STARTCHAR 0165
ENCODING 357
SWIDTH 360 0
DWIDTH 9 0
BBX 7 20 1 0
BITMAP
06
06
66
64
6C
60
FE
FE
60
60
60
60
60
60
60
60
60
60
3E
1E
ENDCHAR
STARTCHAR 0166
ENCODING 358
SWIDTH 560 0
DWIDTH 14 0
BBX 14 18 0 0
BITMAP
FFFC
FFFC
0300
0300
0300
0300
0300
0300
0300
1FE0
1FE0
0300
0300
0300
0300
0300
0300
0300
ENDCHAR
STARTCHAR 0167
ENCODING 359
SWIDTH 360 0
DWIDTH 9 0
BBX 7 18 1 0
BITMAP
60
60
60
60
FE
FE
60
60
60
FE
FE
60
60
60
60
60
3E
1E
ENDCHAR
STARTCHAR 0168
ENCODING 360
SWIDTH 640 0
DWIDTH 16 0
BBX 13 23 2 0
BITMAP
1EC0
1380
0000
0000
0000
C038
C038
C038
C038
C038
C038
C038
C038
C038
C038
C038
C038
C030
C030
E030
7070
7FE0
1FC0
ENDCHAR
STARTCHAR 0169
ENCODING 361
SWIDTH 560 0
DWIDTH 14 0
BBX 10 19 2 0
BITMAP
3980
2F00
6700
0000
0000
C0C0
C0C0
C0C0
C0C0
C0C0
C0C0
C0C0
C0C0
C0C0
C0C0
C0C0
E1C0
7FC0
3EC0
ENDCHAR
STARTCHAR 016A
ENCODING 362
SWIDTH 640 0
DWIDTH 16 0
BBX 13 23 2 0
BITMAP
1FC0
1FC0
0000
0000
0000
C038
C038
C038
C038
C038
C038
C038
C038
C038
C038
C038
C038
C030
C030
E030
7070
7FE0
1FC0
ENDCHAR
STARTCHAR 016B
ENCODING 363
SWIDTH 560 0
DWIDTH 14 0
BBX 10 19 2 0
BITMAP
3F00
3F00
0000
0000
0000
C0C0
C0C0
C0C0
C0C0
C0C0
C0C0
C0C0
C0C0
C0C0
C0C0
C0C0
E1C0
7FC0
3EC0
ENDCHAR
STARTCHAR 016C
ENCODING 364
SWIDTH 640 0
DWIDTH 16 0
BBX 13 24 2 0
BITMAP
10C0
1980
0F80
0000
0000
0000
C038
C038
C038
C038
C038
C038
C038
C038
C038
C038
C038
C038
C030
C030
E030
7070
7FE0
1FC0
ENDCHAR
STARTCHAR 016D
ENCODING 365
SWIDTH 560 0
DWIDTH 14 0
BBX 10 20 2 0
BITMAP
2180
2100
3F00
1E00
0000
0000
C0C0
C0C0
C0C0
C0C0
C0C0
C0C0
C0C0
C0C0
C0C0
C0C0
C0C0
E1C0
7FC0
3EC0
ENDCHAR
STARTCHAR 016E
ENCODING 366
SWIDTH 640 0
DWIDTH 16 0
BBX 13 23 2 0
BITMAP
0700
0F80
1880
1880
1880
CFB8
C638
C038
C038
C038
C038
C038
C038
C038
C038
C038
C038
C030
C030
E030
7070
7FE0
1FC0
ENDCHAR
STARTCHAR 016F
ENCODING 367
SWIDTH 560 0
DWIDTH 14 0
BBX 10 21 2 0
BITMAP
1E00
3E00
3300
2100
3300
1E00
0C00
C0C0
C0C0
C0C0
C0C0
C0C0
C0C0
C0C0
C0C0
C0C0
C0C0
C0C0
E1C0
7FC0
3EC0
ENDCHAR
STARTCHAR 0170
ENCODING 368
SWIDTH 640 0
DWIDTH 16 0
BBX 13 24 2 0
BITMAP
0660
04C0
0C80
1980
0000
0000
C038
C038
C038
C038
C038
C038
C038
C038
C038
C038
C038
C038
C030
C030
E030
7070
7FE0
1FC0
ENDCHAR
STARTCHAR 0171
ENCODING 369
SWIDTH 560 0
DWIDTH 14 0
BBX 10 20 2 0
BITMAP
0CC0
0C80
1980
1900
1300
0000
C0C0
C0C0
C0C0
C0C0
C0C0
C0C0
C0C0
C0C0
C0C0
C0C0
C0C0
E1C0
7FC0
3EC0
ENDCHAR
STARTCHAR 0172
ENCODING 370
SWIDTH 640 0
DWIDTH 16 0
BBX 13 23 2 -5
BITMAP
C038
C038
C038
C038
C038
C038
C038
C038
C038
C038
C038
C038
C030
C030
E030
7070
7FE0
1FC0
0600
0400
0C00
0700
0700
ENDCHAR
STARTCHAR 0173
ENCODING 371
SWIDTH 560 0
DWIDTH 14 0
BBX 12 19 2 -5
BITMAP
C0C0
C0C0
C0C0
C0C0
C0C0
C0C0
C0C0
C0C0
C0C0
C0C0
C0C0
E1C0
7FC0
3EC0
00C0
0080
0080
00F0
0070
ENDCHAR
STARTCHAR 0174
ENCODING 372
SWIDTH 880 0
DWIDTH 22 0
BBX 20 24 1 0
BITMAP
006000
00F000
009800
010800
000000
000000
C07030
C0F030
E0F030
60F070
60D060
609860
619860
719860
3188E0
318CC0
330CC0
3B0CC0
1B0DC0
1B0580
1A0780
1E0780
0E0780
0E0780
ENDCHAR
STARTCHAR 0175
ENCODING 373
SWIDTH 720 0
DWIDTH 18 0
BBX 16 20 1 0
BITMAP
0180
03C0
0340
0660
0430
0000
C183
C1C3
C3C3
63C3
6346
6366
6266
3666
3626
363C
343C
1C3C
1C3C
1C18
ENDCHAR
STARTCHAR 0176
ENCODING 374
SWIDTH 560 0
DWIDTH 14 0
BBX 13 24 0 0
BITMAP
0300
0780
0C80
0840
0000
0000
E018
6038
3030
3870
1860
1CC0
0DC0
0780
0780
0300
0300
0300
0300
0300
0300
0300
0300
0300
ENDCHAR
STARTCHAR 0177
ENCODING 375
SWIDTH 520 0
DWIDTH 13 0
BBX 12 25 1 -5
BITMAP
0600
0E00
1B00
1180
3080
0000
C070
C060
E060
60E0
60C0
30C0
3180
3180
1980
1B00
1B00
0F00
0E00
0600
0E00
0C00
0C00
7800
7800
ENDCHAR
STARTCHAR 0178
ENCODING 376
SWIDTH 560 0
DWIDTH 14 0
BBX 13 23 0 0
BITMAP
0CC0
0CC0
0000
0000
0000
E018
6038
3030
3870
1860
1CC0
0DC0
0780
0780
0300
0300
0300
0300
0300
0300
0300
0300
0300
ENDCHAR
STARTCHAR 0179
ENCODING 377
SWIDTH 600 0
DWIDTH 15 0
BBX 13 24 1 0
BITMAP
0180
0300
0600
0400
0000
0000
FFF8
FFF8
0038
0070
00E0
00C0
01C0
0380
0300
0600
0E00
1C00
1800
3800
7000
E000
FFF8
FFF8
ENDCHAR
STARTCHAR 017A
ENCODING 378
SWIDTH 480 0
DWIDTH 12 0
BBX 10 20 1 0
BITMAP
0180
0300
0600
0400
0C00
0000
FFC0
FFC0
01C0
0380
0300
0600
0E00
1C00
1800
3000
7000
E000
FFC0
FFC0
ENDCHAR
STARTCHAR 017B
ENCODING 379
SWIDTH 600 0
DWIDTH 15 0
BBX 13 23 1 0
BITMAP
0300
0300
0000
0000
0000
FFF8
FFF8
0038
0070
00E0
00C0
01C0
0380
0300
0600
0E00
1C00
1800
3800
7000
E000
FFF8
FFF8
ENDCHAR
STARTCHAR 017C
ENCODING 380
SWIDTH 480 0
DWIDTH 12 0
BBX 10 19 1 0
BITMAP
0C00
0C00
0C00
0000
0000
FFC0
FFC0
01C0
0380
0300
0600
0E00
1C00
1800
3000
7000
E000
FFC0
FFC0
ENDCHAR
STARTCHAR 017D
ENCODING 381
SWIDTH 600 0
DWIDTH 15 0
BBX 13 24 1 0
BITMAP
18C0
0C80
0780
0300
0000
0000
FFF8
FFF8
0038
0070
00E0
00C0
01C0
0380
0300
0600
0E00
1C00
1800
3800
7000
E000
FFF8
FFF8
ENDCHAR
STARTCHAR 017E
ENCODING 382
SWIDTH 480 0
DWIDTH 12 0
BBX 10 20 1 0
BITMAP
2100
3300
1E00
1C00
0C00
0000
FFC0
FFC0
01C0
0380
0300
0600
0E00
1C00
1800
3000
7000
E000
FFC0
FFC0
ENDCHAR
STARTCHAR 017F
ENCODING 383
SWIDTH 320 0
DWIDTH 8 0
BBX 7 19 1 0
BITMAP
1E
3E
30
70
60
E0
E0
60
60
60
60
60
60
60
60
60
60
60
60
ENDCHAR
STARTCHAR 0180
ENCODING 384
SWIDTH 560 0
DWIDTH 14 0
BBX 13 19 0 0
BITMAP
3000
3000
FF00
3000
3000
33C0
37E0
3C70
3830
3018
3018
3018
3018
3018
3018
3838
3830
3FF0
37E0
ENDCHAR
STARTCHAR 0181
ENCODING 385
SWIDTH 680 0
DWIDTH 17 0
BBX 16 18 -1 0
BITMAP
7FF8
FFFC
CE0E
CE06
CE06
0E06
0E0E
0FFC
0FF8
0E0E
0E06
0E07
0E03
0E03
0E07
0E0E
0FFE
0FF8
ENDCHAR
STARTCHAR 0182
ENCODING 386
SWIDTH 600 0
DWIDTH 15 0
BBX 12 18 2 0
BITMAP
FFE0
FFE0
C000
C000
C000
C000
C000
FF00
FFC0
C1E0
C070
C070
C070
C070
C070
C0E0
FFE0
FF80
ENDCHAR
STARTCHAR 0183
ENCODING 387
SWIDTH 560 0
DWIDTH 14 0
BBX 11 19 2 0
BITMAP
FF80
FF80
C000
C000
C000
CF00
DF80
F1C0
E0C0
C060
C060
C060
C060
C060
C060
E0E0
E0C0
FFC0
DF80
ENDCHAR
STARTCHAR 0184
ENCODING 388
SWIDTH 600 0
DWIDTH 15 0
BBX 14 18 0 0
BITMAP
1000
3000
3000
7000
F000
3000
3000
3FC0
3FF0
3038
301C
301C
301C
301C
301C
3038
3FF8
3FE0
ENDCHAR
STARTCHAR 0185
ENCODING 389
SWIDTH 560 0
DWIDTH 14 0
BBX 13 19 0 0
BITMAP
1000
3000
3000
7000
7000
F3C0
37E0
3C70
3830
3018
3018
3018
3018
3018
3018
3838
3830
3FF0
37E0
ENDCHAR
STARTCHAR 0186
ENCODING 390
SWIDTH 640 0
DWIDTH 16 0
BBX 13 19 1 0
BITMAP
0400
7FC0
FBE0
C070
8030
0038
0018
0018
0018
0018
0018
0018
0018
0018
0038
8030
C0F0
FFE0
3F80
ENDCHAR
STARTCHAR 0187
ENCODING 391
SWIDTH 640 0
DWIDTH 16 0
BBX 17 23 1 0
BITMAP
000780
000F80
000C00
001C00
009C00
0FFC00
1F7800
380800
700000
600000
600000
E00000
E00000
E00000
E00000
E00000
E00000
600000
700000
700000
380800
1FF800
0FF000
ENDCHAR
STARTCHAR 0188
ENCODING 392
SWIDTH 480 0
DWIDTH 12 0
BBX 12 19 1 0
BITMAP
0030
0070
00C0
00C0
00C0
0FC0
3FC0
7040
6000
6000
E000
C000
C000
C000
E000
6000
7000
3FC0
1FC0
ENDCHAR
STARTCHAR 0189
ENCODING 393
SWIDTH 680 0
DWIDTH 17 0
BBX 16 18 0 0
BITMAP
3FE0
3FF8
381C
380E
3806
3807
3803
3803
FF03
3803
3803
3807
3807
3806
380E
383C
3FF8
3FE0
ENDCHAR
STARTCHAR 018A
ENCODING 394
SWIDTH 720 0
DWIDTH 18 0
BBX 18 18 -1 0
BITMAP
7FF800
FFFE00
CE0700
CE0380
CE0180
0E01C0
0E00C0
0E00C0
0E00C0
0E00C0
0E00C0
0E00C0
0E01C0
0E0180
0E0380
0E0F00
0FFE00
0FF800
ENDCHAR
STARTCHAR 018B
ENCODING 395
SWIDTH 600 0
DWIDTH 15 0
BBX 12 18 2 0
BITMAP
1FF0
1FF0
0030
0030
0030
0030
0030
0FF0
3FF0
7830
E030
E030
E030
E030
E030
7030
3FF0
1FF0
ENDCHAR
STARTCHAR 018C
ENCODING 396
SWIDTH 560 0
DWIDTH 14 0
BBX 11 19 1 0
BITMAP
3FE0
3FE0
0060
0060
0060
1E60
3FE0
70E0
60E0
6060
C060
C060
C060
C060
E060
6060
70E0
3FE0
1F60
ENDCHAR
STARTCHAR 018D
ENCODING 397
SWIDTH 560 0
DWIDTH 14 0
BBX 12 19 1 -5
BITMAP
0600
3F80
39C0
60E0
6060
E060
C060
C070
C060
E060
6060
70C0
3FC0
1F80
01C0
00C0
00C0
3FC0
3F80
ENDCHAR
STARTCHAR 018E
ENCODING 398
SWIDTH 560 0
DWIDTH 14 0
BBX 11 18 1 0
BITMAP
7FE0
7FE0
0060
0060
0060
0060
0060
7FE0
7FE0
0060
0060
0060
0060
0060
0060
0060
FFE0
FFE0
ENDCHAR
STARTCHAR 018F
ENCODING 399
SWIDTH 720 0
DWIDTH 18 0
BBX 15 19 1 0
BITMAP
0100
1FF0
3FF8
201C
000C
000E
0006
0006
0006
FFFE
FFFE
E006
6006
6006
700E
300C
381C
1FF8
0FE0
ENDCHAR
STARTCHAR 0190
ENCODING 400
SWIDTH 560 0
DWIDTH 14 0
BBX 11 19 2 0
BITMAP
0400
3FC0
7FC0
E000
E000
C000
E000
6000
3F00
3F00
7000
E000
C000
C000
C000
C000
E020
7FE0
3FC0
ENDCHAR
STARTCHAR 0191
ENCODING 401
SWIDTH 520 0
DWIDTH 13 0
BBX 13 23 -1 -5
BITMAP
1FF8
1FF8
1800
1800
1800
1800
1800
1FF0
1FF0
1800
1800
1800
1800
1800
1800
1800
1800
1800
1800
1800
3800
F000
E000
ENDCHAR
STARTCHAR 0192
ENCODING 402
SWIDTH 320 0
DWIDTH 8 0
BBX 9 24 -1 -5
BITMAP
0780
0F80
0C00
1C00
1C00
3F80
3F80
1C00
1C00
1C00
1C00
1C00
1C00
1C00
1C00
1C00
1C00
1C00
1C00
1C00
1800
1800
F800
F000
ENDCHAR
STARTCHAR 0193
ENCODING 403
SWIDTH 680 0
DWIDTH 17 0
BBX 18 23 1 0
BITMAP
0003C0
0007C0
000E00
000C00
008C00
0FFC00
1F7C00
380C00
700000
600000
600000
E00000
E00000
E07E00
E07E00
E07E00
E00E00
600E00
600E00
700E00
380E00
1FFC00
07F800
ENDCHAR
STARTCHAR 0194
ENCODING 404
SWIDTH 600 0
DWIDTH 15 0
BBX 15 23 0 -5
BITMAP
E006
600E
700C
301C
3818
1838
1C30
0C70
0E60
06E0
07C0
03C0
0380
0380
03C0
07C0
06C0
0660
0E60
0C60
0C60
0FE0
07C0
ENDCHAR
STARTCHAR 0195
ENCODING 405
SWIDTH 880 0
DWIDTH 22 0
BBX 18 19 2 0
BITMAP
C00000
C00000
C00000
C00000
C00000
CF0000
DF8300
F1C380
E0C1C0
C0C0C0
C0C0C0
C0C0C0
C0C0C0
C0C0C0
C0C0C0
C0C0C0
C06180
C07F80
C03E00
ENDCHAR
STARTCHAR 0196
ENCODING 406
SWIDTH 320 0
DWIDTH 8 0
BBX 6 18 2 0
BITMAP
C0
C0
C0
C0
C0
C0
C0
C0
C0
C0
C0
C0
C0
E0
E0
70
7C
1C
ENDCHAR
STARTCHAR 0197
ENCODING 407
SWIDTH 280 0
DWIDTH 7 0
BBX 7 18 0 0
BITMAP
30
30
30
30
30
30
30
30
30
FE
FE
30
30
30
30
30
30
30
ENDCHAR
STARTCHAR 0198
ENCODING 408
SWIDTH 680 0
DWIDTH 17 0
BBX 15 19 2 0
BITMAP
0010
C07C
C0FC
C1C6
C386
C706
CE00
DC00
F800
F800
DC00
CC00
CE00
C700
C380
C1C0
C0E0
C070
C038
ENDCHAR
STARTCHAR 0199
ENCODING 409
SWIDTH 520 0
DWIDTH 13 0
BBX 11 19 2 0
BITMAP
3C00
7C00
C000
C000
C000
C0E0
C1C0
C380
C600
CC00
D800
F000
F800
DC00
CE00
C700
C380
C1C0
C0E0
ENDCHAR
STARTCHAR 019A
ENCODING 410
SWIDTH 240 0
DWIDTH 6 0
BBX 6 19 0 0
BITMAP
30
30
30
30
30
30
30
30
30
FC
30
30
30
30
30
30
30
30
30
ENDCHAR
STARTCHAR 019B
ENCODING 411
SWIDTH 520 0
DWIDTH 13 0
BBX 11 19 1 0
BITMAP
1800
0FC0
0E00
7C00
4600
0600
0600
0F00
0F00
0F00
1980
1980
3980
30C0
30C0
60C0
6060
C060
C060
ENDCHAR
STARTCHAR 019C
ENCODING 412
SWIDTH 880 0
DWIDTH 22 0
BBX 18 18 2 0
BITMAP
C0C0C0
C0C0C0
C0C0C0
C0C0C0
C0C0C0
C0C0C0
C0C0C0
C0C0C0
C0C0C0
C0C0C0
C0C0C0
C0C0C0
C0C0C0
C0C0C0
C1C1C0
E1E1C0
7F7FC0
3E3EC0
ENDCHAR
STARTCHAR 019D
ENCODING 413
SWIDTH 680 0
DWIDTH 17 0
BBX 16 23 -1 -5
BITMAP
1E07
1E07
1F07
1B07
1B07
1987
1987
18C7
18C7
1867
1867
1837
1837
181F
181F
181F
180F
180F
1800
1800
3800
F000
E000
ENDCHAR
STARTCHAR 019E
ENCODING 414
SWIDTH 560 0
DWIDTH 14 0
BBX 10 19 2 -5
BITMAP
CF00
DF80
F1C0
E0C0
C0C0
C0C0
C0C0
C0C0
C0C0
C0C0
C0C0
C0C0
C0C0
C0C0
00C0
00C0
00C0
00C0
00C0
ENDCHAR
STARTCHAR 019F
ENCODING 415
SWIDTH 720 0
DWIDTH 18 0
BBX 15 19 1 0
BITMAP
0180
0FF0
1FF8
381C
700C
600E
6006
E006
FFFE
FFFE
E006
E006
E006
6006
700E
700C
381C
1FF8
0FE0
ENDCHAR
STARTCHAR 01A0
ENCODING 416
SWIDTH 840 0
DWIDTH 21 0
BBX 16 19 1 0
BITMAP
0101
0FF1
1EFB
381F
700C
600E
E00E
E006
E006
C006
C006
E006
E006
600E
600E
701C
3838
1FF8
0FE0
ENDCHAR
STARTCHAR 01A1
ENCODING 417
SWIDTH 560 0
DWIDTH 14 0
BBX 13 15 1 0
BITMAP
0010
0F18
3FF8
70F0
6060
6060
E060
C070
C070
C070
E060
6060
70E0
3FC0
1F80
ENDCHAR
STARTCHAR 01A2
ENCODING 418
SWIDTH 840 0
DWIDTH 21 0
BBX 18 19 1 0
BITMAP
010000
0FFF00
1EFF80
3819C0
7018C0
6018C0
6018C0
E018C0
E018C0
E018C0
E018C0
E018C0
E018C0
6018C0
7018C0
7018C0
3818C0
1FF8C0
0FE0C0
ENDCHAR
STARTCHAR 01A3
ENCODING 419
SWIDTH 680 0
DWIDTH 17 0
BBX 14 19 1 -5
BITMAP
1FE0
3FF8
70DC
60CC
60CC
E0CC
C0CC
C0CC
C0CC
E0CC
60CC
70CC
3FCC
1F8C
000C
000C
000C
000C
000C
ENDCHAR
STARTCHAR 01A4
ENCODING 420
SWIDTH 600 0
DWIDTH 15 0
BBX 15 18 -1 0
BITMAP
7FF8
FFFC
CE1C
CE0E
CE06
0E06
0E0E
0E0E
0E3C
0FF8
0FE0
0E00
0E00
0E00
0E00
0E00
0E00
0E00
ENDCHAR
STARTCHAR 01A5
ENCODING 421
SWIDTH 560 0
DWIDTH 14 0
BBX 11 24 2 -5
BITMAP
3E00
7E00
C000
C000
C000
CF00
DF80
F1C0
E0C0
C060
C060
C060
C060
C060
C060
E0E0
E0C0
FFC0
DF80
C000
C000
C000
C000
C000
ENDCHAR
STARTCHAR 01A6
ENCODING 422
SWIDTH 640 0
DWIDTH 16 0
BBX 13 21 2 -3
BITMAP
C000
C000
C000
FF00
FFC0
C1C0
C0E0
C0E0
C0E0
C0E0
C0C0
C1C0
FF00
FF80
C1C0
C0C0
C0E0
C060
0070
0030
0038
ENDCHAR
STARTCHAR 01A7
ENCODING 423
SWIDTH 560 0
DWIDTH 14 0
BBX 12 19 1 0
BITMAP
0200
7FC0
7BE0
4060
0070
0030
0070
0070
07E0
1FC0
7F00
7000
E000
E000
E000
E000
7030
7FF0
1FE0
ENDCHAR
STARTCHAR 01A8
ENCODING 424
SWIDTH 480 0
DWIDTH 12 0
BBX 10 14 1 0
BITMAP
7E00
7F80
0180
0180
0180
0380
1F80
7E00
F000
C000
C000
E040
7FC0
3FC0
ENDCHAR
STARTCHAR 01A9
ENCODING 425
SWIDTH 560 0
DWIDTH 14 0
BBX 11 18 2 0
BITMAP
FFE0
FFE0
6000
3000
3800
1C00
0E00
0600
0700
0600
0E00
1C00
1800
3000
7000
E000
FFE0
FFE0
ENDCHAR
STARTCHAR 01AA
ENCODING 426
SWIDTH 320 0
DWIDTH 8 0
BBX 11 24 -3 -5
BITMAP
7800
FC00
C600
FF80
7F80
0600
0600
0600
0600
0600
0600
0600
0600
0600
0600
0600
0600
0600
0600
0600
0600
0600
03E0
03E0
ENDCHAR
STARTCHAR 01AB
ENCODING 427
SWIDTH 360 0
DWIDTH 9 0
BBX 7 23 1 -5
BITMAP
60
60
60
60
FE
FE
60
60
60
60
60
60
60
60
60
60
3E
1E
06
06
06
1E
1C
ENDCHAR
STARTCHAR 01AC
ENCODING 428
SWIDTH 560 0
DWIDTH 14 0
BBX 14 18 0 0
BITMAP
3FFC
7FFC
E300
C300
C300
0300
0300
0300
0300
0300
0300
0300
0300
0300
0300
0300
0300
0300
ENDCHAR
STARTCHAR 01AD
ENCODING 429
SWIDTH 360 0
DWIDTH 9 0
BBX 7 19 1 0
BITMAP
1E
3E
60
60
60
FE
FE
60
60
60
60
60
60
60
60
60
60
3E
1E
ENDCHAR
STARTCHAR 01AE
ENCODING 430
SWIDTH 560 0
DWIDTH 14 0
BBX 14 23 0 -5
BITMAP
FFFC
FFFC
0300
0300
0300
0300
0300
0300
0300
0300
0300
0300
0300
0300
0300
0300
0300
0300
0300
0300
0380
01E0
00E0
ENDCHAR
STARTCHAR 01AF
ENCODING 431
SWIDTH 760 0
DWIDTH 19 0
BBX 16 19 2 0
BITMAP
0003
C031
C03B
C03F
C030
C030
C030
C030
C030
C030
C030
C030
C030
C030
C030
E030
7070
7FE0
1FC0
ENDCHAR
STARTCHAR 01B0
ENCODING 432
SWIDTH 560 0
DWIDTH 14 0
BBX 13 15 2 0
BITMAP
0008
C0C8
C0D8
C0F8
C0C0
C0C0
C0C0
C0C0
C0C0
C0C0
C0C0
C0C0
E1C0
7FC0
3EC0
ENDCHAR
STARTCHAR 01B1
ENCODING 433
SWIDTH 680 0
DWIDTH 17 0
BBX 15 18 1 0
BITMAP
FC7E
FC7E
1C70
3838
701C
600C
E00E
E006
C006
C006
C006
C006
E00E
600E
701C
3838
1FF8
0FE0
ENDCHAR
STARTCHAR 01B2
ENCODING 434
SWIDTH 640 0
DWIDTH 16 0
BBX 13 18 2 0
BITMAP
C000
C000
C0C0
C060
C070
C038
C038
C018
C018
C018
C018
C018
C018
C038
E030
6070
7FE0
3F80
ENDCHAR
STARTCHAR 01B3
ENCODING 435
SWIDTH 680 0
DWIDTH 17 0
BBX 17 19 0 0
BITMAP
000400
E01F00
603F00
303180
386180
186180
1CC000
0DC000
078000
078000
030000
030000
030000
030000
030000
030000
030000
030000
030000
ENDCHAR
STARTCHAR 01B4
ENCODING 436
SWIDTH 640 0
DWIDTH 16 0
BBX 15 19 1 -5
BITMAP
C03C
C07E
E066
60C6
60C6
30C0
3180
3180
1980
1B00
1B00
0F00
0E00
0600
0E00
0C00
0C00
7800
7800
ENDCHAR
STARTCHAR 01B5
ENCODING 437
SWIDTH 600 0
DWIDTH 15 0
BBX 13 18 1 0
BITMAP
FFF8
FFF8
0038
0070
00E0
00C0
01C0
0380
3FF0
0600
0E00
1C00
1800
3800
7000
E000
FFF8
FFF8
ENDCHAR
STARTCHAR 01B6
ENCODING 438
SWIDTH 480 0
DWIDTH 12 0
BBX 10 14 1 0
BITMAP
FFC0
FFC0
01C0
0380
0300
0600
7F80
7F80
1800
3000
7000
E000
FFC0
FFC0
ENDCHAR
STARTCHAR 01B7
ENCODING 439
SWIDTH 600 0
DWIDTH 15 0
BBX 12 19 2 -1
BITMAP
FFE0
FFE0
00C0
01C0
0380
0300
0600
0E00
0F80
0FE0
0060
0070
0030
0030
0030
0070
F1E0
FFC0
1F00
ENDCHAR
STARTCHAR 01B8
ENCODING 440
SWIDTH 600 0
DWIDTH 15 0
BBX 12 19 1 -1
BITMAP
7FF0
7FF0
3000
3800
1C00
0C00
0600
0700
1F00
7F00
6000
E000
C000
C000
C000
E000
78F0
3FF0
0F80
ENDCHAR
STARTCHAR 01B9
ENCODING 441
SWIDTH 520 0
DWIDTH 13 0
BBX 11 19 1 -5
BITMAP
7FE0
7FE0
7000
3000
1800
0C00
0E00
0700
0F00
3F00
7000
6000
E000
C000
C000
E000
7020
7FE0
1FE0
ENDCHAR
STARTCHAR 01BA
ENCODING 442
SWIDTH 480 0
DWIDTH 12 0
BBX 10 19 1 -5
BITMAP
FFC0
FFC0
01C0
0180
0300
0600
0E00
1E00
1F80
01C0
00C0
01C0
0F80
7F00
6000
C000
E040
7FC0
3FC0
ENDCHAR
STARTCHAR 01BB
ENCODING 443
SWIDTH 560 0
DWIDTH 14 0
BBX 10 19 2 0
BITMAP
0800
FF00
FF80
81C0
00C0
00C0
00C0
01C0
0180
0380
7FC0
7FC0
0C00
1800
3000
7000
E000
FFC0
FFC0
ENDCHAR
STARTCHAR 01BC
ENCODING 444
SWIDTH 600 0
DWIDTH 15 0
BBX 13 19 1 -1
BITMAP
7FE0
7FE0
6000
6000
6000
6000
6000
6000
7FC0
7FF0
0030
0038
0018
C018
C018
E038
78F0
3FE0
0F00
ENDCHAR
STARTCHAR 01BD
ENCODING 445
SWIDTH 520 0
DWIDTH 13 0
BBX 11 19 1 -5
BITMAP
7FC0
7FC0
6000
6000
6000
6000
6000
6000
7E00
7F80
01C0
00C0
0060
0060
0060
00E0
81C0
FFC0
FF00
ENDCHAR
STARTCHAR 01BE
ENCODING 446
SWIDTH 440 0
DWIDTH 11 0
BBX 9 18 1 0
BITMAP
1800
1800
1800
1800
FF00
FF00
1800
1C00
1E00
0700
0380
0180
0180
0180
0180
0380
FF00
FE00
ENDCHAR
STARTCHAR 01BF
ENCODING 447
SWIDTH 560 0
DWIDTH 14 0
BBX 11 19 2 -5
BITMAP
CF80
DFC0
F8E0
E060
C060
C060
C060
C0C0
C0C0
C180
C300
CE00
DC00
F800
F000
C000
C000
C000
C000
ENDCHAR
STARTCHAR 01C0
ENCODING 448
SWIDTH 280 0
DWIDTH 7 0
BBX 2 23 2 -5
BITMAP
C0
C0
C0
C0
C0
C0
C0
C0
C0
C0
C0
C0
C0
C0
C0
C0
C0
C0
C0
C0
C0
C0
C0
ENDCHAR
STARTCHAR 01C1
ENCODING 449
SWIDTH 440 0
DWIDTH 11 0
BBX 7 23 2 -5
BITMAP
C6
C6
C6
C6
C6
C6
C6
C6
C6
C6
C6
C6
C6
C6
C6
C6
C6
C6
C6
C6
C6
C6
C6
ENDCHAR
STARTCHAR 01C2
ENCODING 450
SWIDTH 400 0
DWIDTH 10 0
BBX 10 23 0 -5
BITMAP
0C00
0C00
0C00
0C00
0C00
0C00
0C00
FFC0
FFC0
0C00
0C00
0C00
FFC0
FFC0
0C00
0C00
0C00
0C00
0C00
0C00
0C00
0C00
0C00
ENDCHAR
STARTCHAR 01C3
ENCODING 451
SWIDTH 280 0
DWIDTH 7 0
BBX 2 18 2 0
BITMAP
C0
C0
C0
C0
C0
C0
C0
C0
C0
C0
C0
C0
00
00
00
C0
C0
C0
ENDCHAR
STARTCHAR 01C4
ENCODING 452
SWIDTH 1280 0
DWIDTH 32 0
BBX 28 24 2 0
BITMAP
00003180
00001900
00000F00
00000600
00000000
00000000
FF81FFF0
FFE1FFF0
C0700070
C03800E0
C01801C0
C01C0180
C01C0380
C00C0700
C00C0600
C00C0C00
C00C1C00
C01C3800
C01C3000
C0187000
C038E000
C0F1C000
FFE1FFF0
FF81FFF0
ENDCHAR
STARTCHAR 01C5
ENCODING 453
SWIDTH 1160 0
DWIDTH 29 0
BBX 25 20 2 0
BITMAP
00006300
00002600
FF803400
FFE01C00
C0701800
C0380000
C018FF80
C01CFF80
C01C0180
C00C0300
C00C0700
C00C0E00
C00C0C00
C01C1800
C01C3800
C0187000
C038E000
C0F0C000
FFE1FF80
FF81FF80
ENDCHAR
STARTCHAR 01C6
ENCODING 454
SWIDTH 1040 0
DWIDTH 26 0
BBX 23 20 1 0
BITMAP
000188
006098
0060F0
006070
006060
006000
1E67FE
3FE7FE
70E006
60E00C
606018
C06038
C06070
C06060
C060C0
E061C0
606380
70E300
3FE7FE
1F67FE
ENDCHAR
STARTCHAR 01C7
ENCODING 455
SWIDTH 760 0
DWIDTH 19 0
BBX 15 23 2 -5
BITMAP
C006
C006
C006
C006
C006
C006
C006
C006
C006
C006
C006
C006
C006
C006
C006
C006
FFC6
FFC6
0006
0006
000E
003C
0038
ENDCHAR
STARTCHAR 01C8
ENCODING 456
SWIDTH 720 0
DWIDTH 18 0
BBX 15 24 2 -5
BITMAP
000E
C00E
C00E
C000
C000
C00E
C00E
C00E
C00E
C00E
C00E
C00E
C00E
C00E
C00E
C00E
C00E
FFCE
FFCE
000E
000C
000C
003C
0038
ENDCHAR
STARTCHAR 01C9
ENCODING 457
SWIDTH 400 0
DWIDTH 10 0
BBX 6 24 2 -5
BITMAP
CC
CC
CC
C0
C0
CC
CC
CC
CC
CC
CC
CC
CC
CC
CC
CC
CC
CC
CC
0C
0C
0C
3C
38
ENDCHAR
STARTCHAR 01CA
ENCODING 458
SWIDTH 840 0
DWIDTH 21 0
BBX 18 23 2 -5
BITMAP
F039C0
F039C0
F839C0
D839C0
D839C0
CC39C0
CC39C0
C639C0
C639C0
C339C0
C339C0
C1B9C0
C1B9C0
C1F9C0
C0F9C0
C0F9C0
C079C0
C079C0
000180
000180
000380
000F00
000E00
ENDCHAR
STARTCHAR 01CB
ENCODING 459
SWIDTH 840 0
DWIDTH 21 0
BBX 17 24 2 -5
BITMAP
000180
F03980
F03980
F83800
D83800
D83980
CC3980
CC3980
C63980
C63980
C33980
C33980
C1B980
C1B980
C1F980
C0F980
C0F980
C07980
C07980
000180
000180
000180
000F00
000F00
ENDCHAR
STARTCHAR 01CC
ENCODING 460
SWIDTH 720 0
DWIDTH 18 0
BBX 15 24 2 -5
BITMAP
000E
000E
000E
0000
0000
CF0E
DF8E
F1CE
E0CE
C0CE
C0CE
C0CE
C0CE
C0CE
C0CE
C0CE
C0CE
C0CE
C0CE
000E
000C
000C
003C
0038
ENDCHAR
STARTCHAR 01CD
ENCODING 461
SWIDTH 600 0
DWIDTH 15 0
BBX 15 24 0 0
BITMAP
0C60
0640
03C0
0180
0000
0000
0380
03C0
07C0
06C0
06E0
0E60
0C60
0C70
1C30
1830
1838
3FF8
3FF8
301C
700C
600C
600E
E006
ENDCHAR
STARTCHAR 01CE
ENCODING 462
SWIDTH 560 0
DWIDTH 14 0
BBX 11 20 1 0
BITMAP
3180
1900
0B00
0E00
0400
0000
3F00
7F80
41C0
00C0
0060
07E0
3FE0
7060
6060
C0E0
C0E0
61E0
7F60
3E60
ENDCHAR
STARTCHAR 01CF
ENCODING 463
SWIDTH 280 0
DWIDTH 7 0
BBX 7 24 0 0
BITMAP
C6
4C
38
30
00
00
30
30
30
30
30
30
30
30
30
30
30
30
30
30
30
30
30
30
ENDCHAR
STARTCHAR 01D0
ENCODING 464
SWIDTH 240 0
DWIDTH 6 0
BBX 6 20 0 0
BITMAP
C4
4C
78
38
30
00
30
30
30
30
30
30
30
30
30
30
30
30
30
30
ENDCHAR
STARTCHAR 01D1
ENCODING 465
SWIDTH 720 0
DWIDTH 18 0
BBX 15 24 1 0
BITMAP
0420
0640
03C0
0180
0000
0180
0FF0
1EF8
381C
700C
600E
6006
E006
E006
E006
E006
E006
E006
6006
700E
700C
381C
1FF8
0FE0
ENDCHAR
STARTCHAR 01D2
ENCODING 466
SWIDTH 560 0
DWIDTH 14 0
BBX 12 20 1 0
BITMAP
1080
1980
0F00
0E00
0600
0000
1F00
3FC0
70C0
6060
6060
E060
C070
C070
C060
E060
6060
70E0
3FC0
1F80
ENDCHAR
STARTCHAR 01D3
ENCODING 467
SWIDTH 640 0
DWIDTH 16 0
BBX 13 24 2 0
BITMAP
18C0
0980
0700
0600
0000
0000
C038
C038
C038
C038
C038
C038
C038
C038
C038
C038
C038
C038
C030
C030
E030
7070
7FE0
1FC0
ENDCHAR
STARTCHAR 01D4
ENCODING 468
SWIDTH 560 0
DWIDTH 14 0
BBX 10 20 2 0
BITMAP
2100
3300
1E00
1C00
0C00
0000
C0C0
C0C0
C0C0
C0C0
C0C0
C0C0
C0C0
C0C0
C0C0
C0C0
C0C0
E1C0
7FC0
3EC0
ENDCHAR
STARTCHAR 01D5
ENCODING 469
SWIDTH 640 0
DWIDTH 16 0
BBX 13 26 2 0
BITMAP
1FC0
1FC0
0000
0000
1980
1980
0000
0000
C038
C038
C038
C038
C038
C038
C038
C038
C038
C038
C038
C038
C030
C030
E030
7070
7FE0
1FC0
ENDCHAR
STARTCHAR 01D6
ENCODING 470
SWIDTH 560 0
DWIDTH 14 0
BBX 10 23 2 0
BITMAP
3F00
3F00
0000
0000
3300
3300
3300
0000
0000
C0C0
C0C0
C0C0
C0C0
C0C0
C0C0
C0C0
C0C0
C0C0
C0C0
C0C0
E1C0
7FC0
3EC0
ENDCHAR
STARTCHAR 01D7
ENCODING 471
SWIDTH 640 0
DWIDTH 16 0
BBX 13 26 2 0
BITMAP
0180
0180
0300
0600
19C0
19C0
0000
0000
C038
C038
C038
C038
C038
C038
C038
C038
C038
C038
C038
C038
C030
C030
E030
7070
7FE0
1FC0
ENDCHAR
STARTCHAR 01D8
ENCODING 472
SWIDTH 560 0
DWIDTH 14 0
BBX 10 22 2 0
BITMAP
0300
0600
0600
0C00
3300
3300
0000
0000
C0C0
C0C0
C0C0
C0C0
C0C0
C0C0
C0C0
C0C0
C0C0
C0C0
C0C0
E1C0
7FC0
3EC0
ENDCHAR
STARTCHAR 01D9
ENCODING 473
SWIDTH 640 0
DWIDTH 16 0
BBX 13 26 2 0
BITMAP
1880
0980
0F00
0600
1980
1980
0000
0000
C038
C038
C038
C038
C038
C038
C038
C038
C038
C038
C038
C038
C030
C030
E030
7070
7FE0
1FC0
ENDCHAR
STARTCHAR 01DA
ENCODING 474
SWIDTH 560 0
DWIDTH 14 0
BBX 10 22 2 0
BITMAP
2100
1300
1E00
0C00
3300
3300
0000
0000
C0C0
C0C0
C0C0
C0C0
C0C0
C0C0
C0C0
C0C0
C0C0
C0C0
C0C0
E1C0
7FC0
3EC0
ENDCHAR
STARTCHAR 01DB
ENCODING 475
SWIDTH 640 0
DWIDTH 16 0
BBX 13 26 2 0
BITMAP
1800
0C00
0400
0600
1980
1980
0000
0000
C038
C038
C038
C038
C038
C038
C038
C038
C038
C038
C038
C038
C030
C030
E030
7070
7FE0
1FC0
ENDCHAR
STARTCHAR 01DC
ENCODING 476
SWIDTH 560 0
DWIDTH 14 0
BBX 10 22 2 0
BITMAP
3000
1800
1800
0C00
3300
3300
0000
0000
C0C0
C0C0
C0C0
C0C0
C0C0
C0C0
C0C0
C0C0
C0C0
C0C0
C0C0
E1C0
7FC0
3EC0
ENDCHAR
STARTCHAR 01DD
ENCODING 477
SWIDTH 560 0
DWIDTH 14 0
BBX 12 14 1 0
BITMAP
3F00
7FC0
41C0
0060
0060
0070
0030
FFF0
C070
C060
6060
60E0
3FC0
1F80
ENDCHAR
STARTCHAR 01DE
ENCODING 478
SWIDTH 600 0
DWIDTH 15 0
BBX 15 26 0 0
BITMAP
0FE0
0FE0
0000
0000
0E60
0E60
0000
0000
0380
03C0
07C0
06C0
06E0
0E60
0C60
0C70
1C30
1830
1838
3FF8
3FF8
301C
700C
600C
600E
E006
ENDCHAR
STARTCHAR 01DF
ENCODING 479
SWIDTH 560 0
DWIDTH 14 0
BBX 11 23 1 0
BITMAP
3F80
3F80
0000
0000
3980
3980
3980
0000
0000
3F00
7F80
41C0
00C0
0060
07E0
3FE0
7060
6060
C0E0
C0E0
61E0
7F60
3E60
ENDCHAR
STARTCHAR 01E0
ENCODING 480
SWIDTH 600 0
DWIDTH 15 0
BBX 15 26 0 0
BITMAP
0FE0
0FE0
0000
0000
0180
0180
0000
0000
0380
03C0
07C0
06C0
06E0
0E60
0C60
0C70
1C30
1830
1838
3FF8
3FF8
301C
700C
600C
600E
E006
ENDCHAR
STARTCHAR 01E1
ENCODING 481
SWIDTH 560 0
DWIDTH 14 0
BBX 11 22 1 0
BITMAP
3F80
3F80
0000
0000
0E00
0E00
0000
0000
3F00
7F80
41C0
00C0
0060
07E0
3FE0
7060
6060
C0E0
C0E0
61E0
7F60
3E60
ENDCHAR
STARTCHAR 01E2
ENCODING 482
SWIDTH 880 0
DWIDTH 22 0
BBX 20 23 0 0
BITMAP
003F80
003F80
000000
000000
000000
01FFF0
03FFF0
033000
033000
063000
063000
0E3000
0C3FF0
0C3FF0
1C3000
183000
1FF000
3FF000
303000
703000
603000
603FF0
E03FF0
ENDCHAR
STARTCHAR 01E3
ENCODING 483
SWIDTH 880 0
DWIDTH 22 0
BBX 20 19 1 0
BITMAP
01F800
01F800
000000
000000
000000
3F0F80
7F9FC0
41F0E0
00E060
006030
07E030
3FFFF0
707FF0
606000
C0E000
C0E000
61B000
7FBFE0
3F0FE0
ENDCHAR
STARTCHAR 01E4
ENCODING 484
SWIDTH 680 0
DWIDTH 17 0
BBX 16 19 1 0
BITMAP
0080
0FF8
1F7C
380C
7000
6000
6000
E000
E000
E07E
E07E
E07E
E00E
603F
600E
700E
380E
1FFC
07F8
ENDCHAR
STARTCHAR 01E5
ENCODING 485
SWIDTH 560 0
DWIDTH 14 0
BBX 13 19 1 -5
BITMAP
1E60
3FE0
70E0
60E0
E060
C060
C060
C060
C060
E060
60E0
70E0
3FE0
1E60
0060
3FF8
00C0
3FC0
3F80
ENDCHAR
STARTCHAR 01E6
ENCODING 486
SWIDTH 680 0
DWIDTH 17 0
BBX 15 24 1 0
BITMAP
0630
0260
03C0
0180
0000
0080
0FF8
1F7C
380C
7000
6000
6000
E000
E000
E07E
E07E
E07E
E00E
600E
600E
700E
380E
1FFC
07F8
ENDCHAR
STARTCHAR 01E7
ENCODING 487
SWIDTH 560 0
DWIDTH 14 0
BBX 11 25 1 -5
BITMAP
3180
1300
1A00
0E00
0400
0000
1E60
3FE0
70E0
60E0
E060
C060
C060
C060
C060
E060
60E0
70E0
3FE0
1E60
0060
0060
00C0
3FC0
3F80
ENDCHAR
STARTCHAR 01E8
ENCODING 488
SWIDTH 600 0
DWIDTH 15 0
BBX 13 24 2 0
BITMAP
3180
1B00
0E00
0E00
0000
0000
C070
C0E0
C1C0
C380
C700
CE00
DC00
F800
F800
DC00
CC00
CE00
C700
C380
C1C0
C0E0
C070
C038
ENDCHAR
STARTCHAR 01E9
ENCODING 489
SWIDTH 520 0
DWIDTH 13 0
BBX 13 24 0 0
BITMAP
8400
4C00
7800
3000
0000
3000
3000
3000
3000
3000
3038
3070
30E0
3180
3300
3600
3C00
3E00
3700
3380
31C0
30E0
3070
3038
ENDCHAR
STARTCHAR 01EA
ENCODING 490
SWIDTH 720 0
DWIDTH 18 0
BBX 15 24 1 -5
BITMAP
0180
0FF0
1EF8
381C
700C
600E
6006
E006
E006
E006
E006
E006
E006
6006
700E
700C
381C
1FF8
0FE0
0100
0300
0300
03C0
01C0
ENDCHAR
STARTCHAR 01EB
ENCODING 491
SWIDTH 560 0
DWIDTH 14 0
BBX 12 19 1 -5
BITMAP
1F00
3FC0
70C0
6060
6060
E060
C070
C070
C060
E060
6060
70E0
3FC0
1F80
0400
0C00
0C00
0F00
0700
ENDCHAR
STARTCHAR 01EC
ENCODING 492
SWIDTH 720 0
DWIDTH 18 0
BBX 15 28 1 -5
BITMAP
07E0
07E0
0000
0000
0180
0FF0
1EF8
381C
700C
600E
6006
E006
E006
E006
E006
E006
E006
6006
700E
700C
381C
1FF8
0FE0
0100
0300
0300
03C0
01C0
ENDCHAR
STARTCHAR 01ED
ENCODING 493
SWIDTH 560 0
DWIDTH 14 0
BBX 12 24 1 -5
BITMAP
1F80
1F80
0000
0000
0000
1F00
3FC0
70C0
6060
6060
E060
C070
C070
C060
E060
6060
70E0
3FC0
1F80
0400
0C00
0C00
0F00
0700
ENDCHAR
STARTCHAR 01EE
ENCODING 494
SWIDTH 600 0
DWIDTH 15 0
BBX 12 25 2 -1
BITMAP
3180
1900
0F00
0600
0000
0000
FFE0
FFE0
00C0
01C0
0380
0300
0600
0E00
0F80
0FE0
0060
0070
0030
0030
0030
0070
F1E0
FFC0
1F00
ENDCHAR
STARTCHAR 01EF
ENCODING 495
SWIDTH 520 0
DWIDTH 13 0
BBX 11 25 1 -5
BITMAP
2100
3300
1E00
1C00
0C00
0000
FFC0
FFC0
01C0
0380
0300
0600
0E00
1C00
1E00
1F80
03C0
00C0
00E0
0060
00E0
00E0
81C0
FF80
FF00
ENDCHAR
STARTCHAR 01F0
ENCODING 496
SWIDTH 240 0
DWIDTH 6 0
BBX 6 25 0 -5
BITMAP
C4
4C
68
38
30
00
30
30
30
30
30
30
30
30
30
30
30
30
30
30
30
30
30
F0
E0
ENDCHAR
STARTCHAR 01F1
ENCODING 497
SWIDTH 1280 0
DWIDTH 32 0
BBX 28 18 2 0
BITMAP
FF81FFF0
FFE1FFF0
C0700070
C03800E0
C01801C0
C01C0180
C01C0380
C00C0700
C00C0600
C00C0C00
C00C1C00
C01C3800
C01C3000
C0187000
C038E000
C0F1C000
FFE1FFF0
FF81FFF0
ENDCHAR
STARTCHAR 01F2
ENCODING 498
SWIDTH 1160 0
DWIDTH 29 0
BBX 25 18 2 0
BITMAP
FF800000
FFE00000
C0700000
C0380000
C018FF80
C01CFF80
C01C0180
C00C0300
C00C0700
C00C0E00
C00C0C00
C01C1800
C01C3800
C0187000
C038E000
C0F0C000
FFE1FF80
FF81FF80
ENDCHAR
STARTCHAR 01F3
ENCODING 499
SWIDTH 1040 0
DWIDTH 26 0
BBX 23 19 1 0
BITMAP
006000
006000
006000
006000
006000
1E67FE
3FE7FE
70E006
60E00C
606018
C06038
C06070
C06060
C060C0
E061C0
606380
70E300
3FE7FE
1F67FE
ENDCHAR
STARTCHAR 01F4
ENCODING 500
SWIDTH 680 0
DWIDTH 17 0
BBX 15 24 1 0
BITMAP
00C0
00C0
0180
0300
0000
0080
0FF8
1F7C
380C
7000
6000
6000
E000
E000
E07E
E07E
E07E
E00E
600E
600E
700E
380E
1FFC
07F8
ENDCHAR
STARTCHAR 01F5
ENCODING 501
SWIDTH 560 0
DWIDTH 14 0
BBX 11 25 1 -5
BITMAP
0300
0600
0600
0C00
1800
0000
1E60
3FE0
70E0
60E0
E060
C060
C060
C060
C060
E060
60E0
70E0
3FE0
1E60
0060
0060
00C0
3FC0
3F80
ENDCHAR
STARTCHAR 01F6
ENCODING 502
SWIDTH 1000 0
DWIDTH 25 0
BBX 21 18 2 0
BITMAP
C03800
C03800
C03800
C03800
C03818
C03818
C03818
FFF818
FFF818
C03818
C03818
C03818
C03818
C01818
C01818
C01838
C01FF0
C00FE0
ENDCHAR
STARTCHAR 01F7
ENCODING 503
SWIDTH 600 0
DWIDTH 15 0
BBX 12 24 2 -5
BITMAP
0100
CFE0
DFE0
F870
E030
E030
C030
C030
C060
C0E0
C1C0
C380
C700
CE00
DC00
F800
E000
C000
C000
C000
C000
C000
C000
C000
ENDCHAR
STARTCHAR 01F8
ENCODING 504
SWIDTH 680 0
DWIDTH 17 0
BBX 13 24 2 0
BITMAP
0C00
0600
0300
0100
0000
0000
F038
F038
F838
D838
D838
CC38
CC38
C638
C638
C338
C338
C1B8
C1B8
C1F8
C0F8
C0F8
C078
C078
ENDCHAR
STARTCHAR 01F9
ENCODING 505
SWIDTH 560 0
DWIDTH 14 0
BBX 10 20 2 0
BITMAP
1800
0C00
0600
0200
0300
0000
CF00
DF80
F1C0
E0C0
C0C0
C0C0
C0C0
C0C0
C0C0
C0C0
C0C0
C0C0
C0C0
C0C0
ENDCHAR
STARTCHAR 01FA
ENCODING 506
SWIDTH 600 0
DWIDTH 15 0
BBX 15 24 0 0
BITMAP
0006
03CC
06D8
0470
0460
0640
03C0
03C0
07C0
06C0
06E0
0E60
0C60
0C70
1C30
1830
1838
3FF8
3FF8
301C
700C
600C
600E
E006
ENDCHAR
STARTCHAR 01FB
ENCODING 507
SWIDTH 560 0
DWIDTH 14 0
BBX 13 24 1 0
BITMAP
0018
0030
0E60
1F40
1100
1180
1100
1F00
0E00
0000
3F00
7F80
41C0
00C0
0060
07E0
3FE0
7060
6060
C0E0
C0E0
61E0
7F60
3E60
ENDCHAR
STARTCHAR 01FC
ENCODING 508
SWIDTH 880 0
DWIDTH 22 0
BBX 20 24 0 0
BITMAP
000600
000C00
001800
001000
000000
000000
01FFF0
03FFF0
033000
033000
063000
063000
0E3000
0C3FF0
0C3FF0
1C3000
183000
1FF000
3FF000
303000
703000
603000
603FF0
E03FF0
ENDCHAR
STARTCHAR 01FD
ENCODING 509
SWIDTH 880 0
DWIDTH 22 0
BBX 20 20 1 0
BITMAP
003000
006000
00C000
00C000
018000
000000
3F0F80
7F9FC0
41F0E0
00E060
006030
07E030
3FFFF0
707FF0
606000
C0E000
C0E000
61B000
7FBFE0
3F0FE0
ENDCHAR
STARTCHAR 01FE
ENCODING 510
SWIDTH 720 0
DWIDTH 18 0
BBX 15 25 1 -1
BITMAP
00C0
0180
0100
0300
0000
0102
0FF6
1EFC
381C
701C
603E
6066
E066
E0C6
E186
E306
E306
E606
6C06
780E
780C
381C
7FF8
CFE0
4000
ENDCHAR
STARTCHAR 01FF
ENCODING 511
SWIDTH 560 0
DWIDTH 14 0
BBX 12 21 1 -1
BITMAP
0300
0700
0600
0C00
1800
0000
1F30
3FE0
70C0
60E0
61E0
E360
C670
C670
CC60
F860
7060
70E0
7FC0
DF80
8000
ENDCHAR
STARTCHAR 0200
ENCODING 512
SWIDTH 600 0
DWIDTH 15 0
BBX 15 24 0 0
BITMAP
1980
0CC0
0660
0360
0000
0000
0380
03C0
07C0
06C0
06E0
0E60
0C60
0C70
1C30
1830
1838
3FF8
3FF8
301C
700C
600C
600E
E006
ENDCHAR
STARTCHAR 0201
ENCODING 513
SWIDTH 560 0
DWIDTH 14 0
BBX 11 20 1 0
BITMAP
3300
1300
1900
0980
0C80
0000
3F00
7F80
41C0
00C0
0060
07E0
3FE0
7060
6060
C0E0
C0E0
61E0
7F60
3E60
ENDCHAR
STARTCHAR 0202
ENCODING 514
SWIDTH 600 0
DWIDTH 15 0
BBX 15 23 0 0
BITMAP
0180
07E0
0C60
0000
0000
0380
03C0
07C0
06C0
06E0
0E60
0C60
0C70
1C30
1830
1838
3FF8
3FF8
301C
700C
600C
600E
E006
ENDCHAR
STARTCHAR 0203
ENCODING 515
SWIDTH 560 0
DWIDTH 14 0
BBX 11 20 1 0
BITMAP
0400
1F00
3180
3080
0000
0000
3F00
7F80
41C0
00C0
0060
07E0
3FE0
7060
6060
C0E0
C0E0
61E0
7F60
3E60
ENDCHAR
STARTCHAR 0204
ENCODING 516
SWIDTH 560 0
DWIDTH 14 0
BBX 11 24 2 0
BITMAP
6C00
2600
3300
1900
0000
0000
FFE0
FFE0
C000
C000
C000
C000
C000
FFC0
FFC0
C000
C000
C000
C000
C000
C000
C000
FFE0
FFE0
ENDCHAR
STARTCHAR 0205
ENCODING 517
SWIDTH 560 0
DWIDTH 14 0
BBX 12 20 1 0
BITMAP
3300
1900
0980
0C80
04C0
0000
0F80
3FC0
70E0
6060
6060
C030
FFF0
FFF0
C000
E000
6000
7000
3FE0
1FE0
ENDCHAR
STARTCHAR 0206
ENCODING 518
SWIDTH 560 0
DWIDTH 14 0
BBX 11 23 2 0
BITMAP
0E00
1F00
3180
0000
0000
FFE0
FFE0
C000
C000
C000
C000
C000
FFC0
FFC0
C000
C000
C000
C000
C000
C000
C000
FFE0
FFE0
ENDCHAR
STARTCHAR 0207
ENCODING 519
SWIDTH 560 0
DWIDTH 14 0
BBX 12 20 1 0
BITMAP
0200
0F80
18C0
10C0
0000
0000
0F80
3FC0
70E0
6060
6060
C030
FFF0
FFF0
C000
E000
6000
7000
3FE0
1FE0
ENDCHAR
STARTCHAR 0208
ENCODING 520
SWIDTH 280 0
DWIDTH 7 0
BBX 8 24 -1 0
BITMAP
CC
64
26
33
00
00
18
18
18
18
18
18
18
18
18
18
18
18
18
18
18
18
18
18
ENDCHAR
STARTCHAR 0209
ENCODING 521
SWIDTH 240 0
DWIDTH 6 0
BBX 7 20 0 0
BITMAP
D8
CC
6C
66
36
00
30
30
30
30
30
30
30
30
30
30
30
30
30
30
ENDCHAR
STARTCHAR 020A
ENCODING 522
SWIDTH 280 0
DWIDTH 7 0
BBX 7 23 0 0
BITMAP
38
7C
C6
00
00
30
30
30
30
30
30
30
30
30
30
30
30
30
30
30
30
30
30
ENDCHAR
STARTCHAR 020B
ENCODING 523
SWIDTH 240 0
DWIDTH 6 0
BBX 7 20 0 0
BITMAP
30
FC
C4
86
00
00
30
30
30
30
30
30
30
30
30
30
30
30
30
30
ENDCHAR
STARTCHAR 020C
ENCODING 524
SWIDTH 720 0
DWIDTH 18 0
BBX 15 24 1 0
BITMAP
1980
0CC0
0660
0360
0000
0180
0FF0
1EF8
381C
700C
600E
6006
E006
E006
E006
E006
E006
E006
6006
700E
700C
381C
1FF8
0FE0
ENDCHAR
STARTCHAR 020D
ENCODING 525
SWIDTH 560 0
DWIDTH 14 0
BBX 12 20 1 0
BITMAP
3300
1300
1980
0980
0C80
0000
1F00
3FC0
70C0
6060
6060
E060
C070
C070
C060
E060
6060
70E0
3FC0
1F80
ENDCHAR
STARTCHAR 020E
ENCODING 526
SWIDTH 720 0
DWIDTH 18 0
BBX 15 23 1 0
BITMAP
0180
07E0
0C60
0000
0180
0FF0
1EF8
381C
700C
600E
6006
E006
E006
E006
E006
E006
E006
6006
700E
700C
381C
1FF8
0FE0
ENDCHAR
STARTCHAR 020F
ENCODING 527
SWIDTH 560 0
DWIDTH 14 0
BBX 12 20 1 0
BITMAP
0600
0F80
1880
10C0
0000
0000
1F00
3FC0
70C0
6060
6060
E060
C070
C070
C060
E060
6060
70E0
3FC0
1F80
ENDCHAR
STARTCHAR 0210
ENCODING 528
SWIDTH 640 0
DWIDTH 16 0
BBX 13 24 2 0
BITMAP
CC00
6600
3200
1300
0000
0000
FF80
FFC0
C1C0
C0E0
C0E0
C0E0
C0E0
C0C0
FFC0
FF00
C380
C1C0
C0E0
C060
C060
C070
C030
C038
ENDCHAR
STARTCHAR 0211
ENCODING 529
SWIDTH 360 0
DWIDTH 9 0
BBX 7 20 2 0
BITMAP
D8
CC
64
66
32
00
CE
DE
F0
E0
C0
C0
C0
C0
C0
C0
C0
C0
C0
C0
ENDCHAR
STARTCHAR 0212
ENCODING 530
SWIDTH 640 0
DWIDTH 16 0
BBX 13 23 2 0
BITMAP
0C00
3F00
2100
0000
0000
FF80
FFC0
C1C0
C0E0
C0E0
C0E0
C0E0
C0C0
FFC0
FF00
C380
C1C0
C0E0
C060
C060
C070
C030
C038
ENDCHAR
STARTCHAR 0213
ENCODING 531
SWIDTH 360 0
DWIDTH 9 0
BBX 7 20 2 0
BITMAP
18
7E
62
42
00
00
CE
DE
F0
E0
C0
C0
C0
C0
C0
C0
C0
C0
C0
C0
ENDCHAR
STARTCHAR 0214
ENCODING 532
SWIDTH 640 0
DWIDTH 16 0
BBX 13 24 2 0
BITMAP
3300
1B00
0980
0CC0
0000
0000
C038
C038
C038
C038
C038
C038
C038
C038
C038
C038
C038
C038
C030
C030
E030
7070
7FE0
1FC0
ENDCHAR
STARTCHAR 0215
ENCODING 533
SWIDTH 560 0
DWIDTH 14 0
BBX 10 20 2 0
BITMAP
3600
3300
1B00
1980
0C80
0000
C0C0
C0C0
C0C0
C0C0
C0C0
C0C0
C0C0
C0C0
C0C0
C0C0
C0C0
E1C0
7FC0
3EC0
ENDCHAR
STARTCHAR 0216
ENCODING 534
SWIDTH 640 0
DWIDTH 16 0
BBX 13 23 2 0
BITMAP
0600
1F80
18C0
0000
0000
C038
C038
C038
C038
C038
C038
C038
C038
C038
C038
C038
C038
C030
C030
E030
7070
7FE0
1FC0
ENDCHAR
STARTCHAR 0217
ENCODING 535
SWIDTH 560 0
DWIDTH 14 0
BBX 10 20 2 0
BITMAP
0400
1F00
3180
2180
0000
0000
C0C0
C0C0
C0C0
C0C0
C0C0
C0C0
C0C0
C0C0
C0C0
C0C0
C0C0
E1C0
7FC0
3EC0
ENDCHAR
STARTCHAR 0218
ENCODING 536
SWIDTH 560 0
DWIDTH 14 0
BBX 12 25 1 -6
BITMAP
0200
3FE0
7DE0
6020
6000
E000
6000
7000
7E00
3FC0
07E0
00F0
0070
0030
0030
0070
4070
7FE0
7FC0
0000
0000
0600
0600
0400
0C00
ENDCHAR
STARTCHAR 0219
ENCODING 537
SWIDTH 480 0
DWIDTH 12 0
BBX 10 20 1 -6
BITMAP
3F00
7F80
6080
C000
C000
6000
7E00
1F80
0380
01C0
00C0
8180
FF80
FF00
0000
0000
0E00
0C00
0C00
0800
ENDCHAR
STARTCHAR 021A
ENCODING 538
SWIDTH 560 0
DWIDTH 14 0
BBX 14 24 0 -6
BITMAP
FFFC
FFFC
0300
0300
0300
0300
0300
0300
0300
0300
0300
0300
0300
0300
0300
0300
0300
0300
0000
0000
0300
0600
0600
0600
ENDCHAR
STARTCHAR 021B
ENCODING 539
SWIDTH 360 0
DWIDTH 9 0
BBX 7 24 1 -6
BITMAP
60
60
60
60
FE
FE
60
60
60
60
60
60
60
60
60
60
3E
1E
00
00
0C
0C
18
18
ENDCHAR
STARTCHAR 021C
ENCODING 540
SWIDTH 560 0
DWIDTH 14 0
BBX 11 24 2 -5
BITMAP
0400
3F00
FF80
C1C0
80C0
00C0
00C0
01C0
0180
0380
0E00
3F80
39C0
00C0
00C0
00E0
00C0
00C0
01C0
0380
0F00
3C00
F800
C000
ENDCHAR
STARTCHAR 021D
ENCODING 541
SWIDTH 480 0
DWIDTH 12 0
BBX 9 19 1 -5
BITMAP
1E00
FF00
C180
0180
0180
0180
0300
0600
1E00
7F80
4180
0180
0180
0180
0380
0700
1E00
F800
E000
ENDCHAR
STARTCHAR 021E
ENCODING 542
SWIDTH 680 0
DWIDTH 17 0
BBX 13 24 2 0
BITMAP
18C0
0D80
0700
0700
0000
0000
C038
C038
C038
C038
C038
C038
C038
FFF8
FFF8
C038
C038
C038
C038
C038
C038
C038
C038
C038
ENDCHAR
STARTCHAR 021F
ENCODING 543
SWIDTH 560 0
DWIDTH 14 0
BBX 12 24 0 0
BITMAP
8400
4C00
7800
3000
0000
3000
3000
3000
3000
3000
33C0
37E0
3C70
3830
3030
3030
3030
3030
3030
3030
3030
3030
3030
3030
ENDCHAR
STARTCHAR 0220
ENCODING 544
SWIDTH 680 0
DWIDTH 17 0
BBX 12 24 2 -5
BITMAP
0100
CFC0
DFE0
D870
F070
E030
E030
E030
C030
C030
C030
C030
C030
C030
C030
C030
C030
C030
C030
0030
0030
0030
0030
0030
ENDCHAR
STARTCHAR 0221
ENCODING 545
SWIDTH 760 0
DWIDTH 19 0
BBX 17 21 1 -2
BITMAP
006000
006000
006000
006000
006000
1E6000
3FE000
70E000
60E000
606000
C06000
C06000
C06000
C06F00
E06F00
607980
70FB80
3FFF00
1F3F00
006000
006000
ENDCHAR
STARTCHAR 0222
ENCODING 546
SWIDTH 640 0
DWIDTH 16 0
BBX 13 19 1 0
BITMAP
0100
01E0
0430
3C18
7018
6018
6018
7030
3FE0
0FC0
3CF0
6038
E018
E018
E018
E018
7038
7FF0
1FE0
ENDCHAR
STARTCHAR 0223
ENCODING 547
SWIDTH 560 0
DWIDTH 14 0
BBX 11 16 1 0
BITMAP
60C0
6060
6060
6060
70C0
3FC0
1F80
79C0
6060
E060
C060
C060
E060
60E0
7FC0
3F80
ENDCHAR
STARTCHAR 0224
ENCODING 548
SWIDTH 600 0
DWIDTH 15 0
BBX 13 23 1 -5
BITMAP
FFF8
FFF8
0038
0070
00E0
00C0
01C0
0380
0300
0600
0E00
1C00
1800
3800
7000
E000
FFF8
FFF8
0018
0018
0018
01F8
01F0
ENDCHAR
STARTCHAR 0225
ENCODING 549
SWIDTH 480 0
DWIDTH 12 0
BBX 10 19 1 -5
BITMAP
FFC0
FFC0
01C0
0380
0300
0600
0E00
1C00
1800
3000
7000
E000
FFC0
FFC0
00C0
00C0
01C0
1F80
1F00
ENDCHAR
STARTCHAR 0226
ENCODING 550
SWIDTH 600 0
DWIDTH 15 0
BBX 15 23 0 0
BITMAP
0180
0180
0000
0000
0000
0380
03C0
07C0
06C0
06E0
0E60
0C60
0C70
1C30
1830
1838
3FF8
3FF8
301C
700C
600C
600E
E006
ENDCHAR
STARTCHAR 0227
ENCODING 551
SWIDTH 560 0
DWIDTH 14 0
BBX 11 19 1 0
BITMAP
0C00
0C00
0C00
0000
0000
3F00
7F80
41C0
00C0
0060
07E0
3FE0
7060
6060
C0E0
C0E0
61E0
7F60
3E60
ENDCHAR
STARTCHAR 0228
ENCODING 552
SWIDTH 560 0
DWIDTH 14 0
BBX 11 23 2 -5
BITMAP
FFE0
FFE0
C000
C000
C000
C000
C000
FFC0
FFC0
C000
C000
C000
C000
C000
C000
C000
FFE0
FFE0
0600
0200
0300
1E00
1C00
ENDCHAR
STARTCHAR 0229
ENCODING 553
SWIDTH 560 0
DWIDTH 14 0
BBX 12 19 1 -5
BITMAP
0F80
3FC0
70E0
6060
6060
C030
FFF0
FFF0
C000
E000
6000
7000
3FE0
1FE0
0200
0300
0300
0F00
0E00
ENDCHAR
STARTCHAR 022A
ENCODING 554
SWIDTH 720 0
DWIDTH 18 0
BBX 15 26 1 0
BITMAP
0FE0
0FE0
0000
0000
0E60
0E60
0000
0180
0FF0
1EF8
381C
700C
600E
6006
E006
E006
E006
E006
E006
E006
6006
700E
700C
381C
1FF8
0FE0
ENDCHAR
STARTCHAR 022B
ENCODING 555
SWIDTH 560 0
DWIDTH 14 0
BBX 12 23 1 0
BITMAP
1F80
1F80
0000
0000
1980
1980
1980
0000
0000
1F00
3FC0
70C0
6060
6060
E060
C070
C070
C060
E060
6060
70E0
3FC0
1F80
ENDCHAR
STARTCHAR 022C
ENCODING 556
SWIDTH 720 0
DWIDTH 18 0
BBX 15 26 1 0
BITMAP
07E0
07E0
0000
0000
07A0
0CE0
0000
0180
0FF0
1EF8
381C
700C
600E
6006
E006
E006
E006
E006
E006
E006
6006
700E
700C
381C
1FF8
0FE0
ENDCHAR
STARTCHAR 022D
ENCODING 557
SWIDTH 560 0
DWIDTH 14 0
BBX 12 22 1 0
BITMAP
1F80
1F80
0000
0000
1E80
3380
0000
0000
1F00
3FC0
70C0
6060
6060
E060
C070
C070
C060
E060
6060
70E0
3FC0
1F80
ENDCHAR
STARTCHAR 022E
ENCODING 558
SWIDTH 720 0
DWIDTH 18 0
BBX 15 23 1 0
BITMAP
0180
0180
0000
0000
0180
0FF0
1EF8
381C
700C
600E
6006
E006
E006
E006
E006
E006
E006
6006
700E
700C
381C
1FF8
0FE0
ENDCHAR
STARTCHAR 022F
ENCODING 559
SWIDTH 560 0
DWIDTH 14 0
BBX 12 19 1 0
BITMAP
0600
0600
0600
0000
0000
1F00
3FC0
70C0
6060
6060
E060
C070
C070
C060
E060
6060
70E0
3FC0
1F80
ENDCHAR
STARTCHAR 0230
ENCODING 560
SWIDTH 720 0
DWIDTH 18 0
BBX 15 26 1 0
BITMAP
07E0
07E0
0000
0000
0180
0180
0000
0180
0FF0
1EF8
381C
700C
600E
6006
E006
E006
E006
E006
E006
E006
6006
700E
700C
381C
1FF8
0FE0
ENDCHAR
STARTCHAR 0231
ENCODING 561
SWIDTH 560 0
DWIDTH 14 0
BBX 12 23 1 0
BITMAP
1F80
1F80
0000
0000
0600
0600
0600
0000
0000
1F00
3FC0
70C0
6060
6060
E060
C070
C070
C060
E060
6060
70E0
3FC0
1F80
ENDCHAR
STARTCHAR 0232
ENCODING 562
SWIDTH 560 0
DWIDTH 14 0
BBX 13 23 0 0
BITMAP
0FC0
0FC0
0000
0000
0000
E018
6038
3030
3870
1860
1CC0
0DC0
0780
0780
0300
0300
0300
0300
0300
0300
0300
0300
0300
ENDCHAR
STARTCHAR 0233
ENCODING 563
SWIDTH 520 0
DWIDTH 13 0
BBX 12 24 1 -5
BITMAP
3F80
3F80
0000
0000
0000
C070
C060
E060
60E0
60C0
30C0
3180
3180
1980
1B00
1B00
0F00
0E00
0600
0E00
0C00
0C00
7800
7800
ENDCHAR
STARTCHAR 0234
ENCODING 564
SWIDTH 440 0
DWIDTH 11 0
BBX 7 21 2 -2
BITMAP
C0
C0
C0
C0
C0
C0
C0
C0
C0
C0
C0
C0
C0
DE
FE
F6
E6
FE
FC
C0
C0
ENDCHAR
STARTCHAR 0235
ENCODING 565
SWIDTH 760 0
DWIDTH 19 0
BBX 16 16 2 -2
BITMAP
CF00
DF80
F1C0
E0C0
C0C0
C0C0
C0C0
C0C0
C0CE
C0DF
C0F3
C0F7
C07E
C07E
00C0
00C0
ENDCHAR
STARTCHAR 0236
ENCODING 566
SWIDTH 440 0
DWIDTH 11 0
BBX 9 20 1 -2
BITMAP
6000
6000
6000
6000
FE00
FE00
6000
6000
6000
6000
6000
6000
6F00
6F00
7B80
7B00
7F00
7E00
6000
6000
ENDCHAR
STARTCHAR 0237
ENCODING 567
SWIDTH 240 0
DWIDTH 6 0
BBX 4 19 0 -5
BITMAP
30
30
30
30
30
30
30
30
30
30
30
30
30
30
30
30
30
F0
E0
ENDCHAR
STARTCHAR 0238
ENCODING 568
SWIDTH 880 0
DWIDTH 22 0
BBX 20 19 1 0
BITMAP
006000
006000
006000
006000
006000
1E6780
3FEFC0
70F8E0
60F070
607030
C06030
C06030
C06030
C06030
E06030
607030
70F860
3FEFE0
1F6FC0
ENDCHAR
STARTCHAR 0239
ENCODING 569
SWIDTH 880 0
DWIDTH 22 0
BBX 20 19 1 -5
BITMAP
1E6780
3FEFC0
70F8E0
60F070
607030
C06030
C06030
C06030
C06030
E06030
607030
70F860
3FEFE0
1F6FC0
006000
006000
006000
006000
006000
ENDCHAR
STARTCHAR 023A
ENCODING 570
SWIDTH 600 0
DWIDTH 15 0
BBX 15 19 0 -1
BITMAP
0002
0386
03CC
03CC
06D8
06F0
0E60
0C60
0CF0
1DB0
1B30
1A38
3FF8
3FF8
381C
700C
700C
600E
E006
ENDCHAR
STARTCHAR 023B
ENCODING 571
SWIDTH 640 0
DWIDTH 16 0
BBX 15 20 0 -1
BITMAP
0042
07FE
0FBC
1C0C
3818
3030
3060
7060
70C0
7180
7300
7300
7600
3C00
3800
3800
3C04
6FFC
C7F8
4000
ENDCHAR
STARTCHAR 023C
ENCODING 572
SWIDTH 480 0
DWIDTH 12 0
BBX 12 16 0 -1
BITMAP
0010
07F0
1FE0
3860
30C0
3180
7100
6300
6600
6C00
7800
3800
3800
7FE0
4FE0
C000
ENDCHAR
STARTCHAR 023D
ENCODING 573
SWIDTH 520 0
DWIDTH 13 0
BBX 12 18 0 0
BITMAP
3000
3000
3000
3000
3000
3000
3000
3000
FE00
3000
3000
3000
3000
3000
3000
3000
3FF0
3FF0
ENDCHAR
STARTCHAR 023E
ENCODING 574
SWIDTH 560 0
DWIDTH 14 0
BBX 15 20 -1 -1
BITMAP
0002
7FFE
7FFE
018C
0198
01B0
01A0
01E0
01C0
0180
0380
0380
0780
0D80
1980
1980
3180
6180
C180
4000
ENDCHAR
STARTCHAR 023F
ENCODING 575
SWIDTH 480 0
DWIDTH 12 0
BBX 11 20 1 -6
BITMAP
3F00
7F80
6080
C000
C000
6000
7E00
1F80
0380
01C0
00C0
8180
FF80
FF00
1C00
0E00
0700
0380
01E0
00E0
ENDCHAR
STARTCHAR 0240
ENCODING 576
SWIDTH 480 0
DWIDTH 12 0
BBX 11 20 1 -6
BITMAP
FFC0
FFC0
01C0
0380
0300
0600
0E00
1C00
1800
3000
7000
E000
E000
F000
3800
1C00
0E00
0700
03E0
01E0
ENDCHAR
STARTCHAR 0241
ENCODING 577
SWIDTH 560 0
DWIDTH 14 0
BBX 12 18 1 0
BITMAP
FF80
FFE0
80E0
0070
0070
0070
0070
0060
01E0
0FC0
0E00
0C00
0C00
0C00
0C00
0C00
0C00
0C00
ENDCHAR
STARTCHAR 0242
ENCODING 578
SWIDTH 440 0
DWIDTH 11 0
BBX 9 14 1 0
BITMAP
7C00
FF00
8700
0380
0180
0180
0180
0380
0700
3F00
3C00
3800
3800
3800
ENDCHAR
STARTCHAR 0243
ENCODING 579
SWIDTH 600 0
DWIDTH 15 0
BBX 14 18 0 0
BITMAP
3FE0
3FF0
3038
3018
3018
3018
3038
3FF0
3FE0
3038
3018
301C
FF1C
F01C
301C
3038
3FF8
3FE0
ENDCHAR
STARTCHAR 0244
ENCODING 580
SWIDTH 640 0
DWIDTH 16 0
BBX 16 18 0 0
BITMAP
300E
300E
300E
300E
300E
300E
300E
FFFF
FFFF
300E
300E
300E
300C
300C
380C
1C1C
1FF8
07F0
ENDCHAR
STARTCHAR 0245
ENCODING 581
SWIDTH 600 0
DWIDTH 15 0
BBX 15 18 0 0
BITMAP
0380
03C0
07C0
06C0
06E0
0E60
0C60
0C70
1C30
1830
1838
3818
3018
301C
700C
600C
600E
E006
ENDCHAR
STARTCHAR 0246
ENCODING 582
SWIDTH 560 0
DWIDTH 14 0
BBX 11 23 2 -2
BITMAP
00C0
00C0
00C0
FFE0
FFE0
C180
C100
C300
C300
C300
FFC0
FFC0
C600
CC00
CC00
CC00
C800
D800
D800
FFE0
FFE0
3000
3000
ENDCHAR
STARTCHAR 0247
ENCODING 583
SWIDTH 560 0
DWIDTH 14 0
BBX 12 18 1 -2
BITMAP
00C0
00C0
0F80
3FC0
71E0
6360
6360
C630
FFF0
FFF0
CC00
EC00
6800
7800
3FE0
3FE0
3000
3000
ENDCHAR
STARTCHAR 0248
ENCODING 584
SWIDTH 280 0
DWIDTH 7 0
BBX 8 23 -1 -5
BITMAP
18
18
18
18
18
18
18
18
7F
7F
18
18
18
18
18
18
18
18
18
18
38
F0
E0
ENDCHAR
STARTCHAR 0249
ENCODING 585
SWIDTH 240 0
DWIDTH 6 0
BBX 6 24 0 -5
BITMAP
30
30
30
00
00
30
30
30
30
30
30
FC
FC
30
30
30
30
30
30
30
30
30
F0
E0
ENDCHAR
STARTCHAR 024A
ENCODING 586
SWIDTH 720 0
DWIDTH 18 0
BBX 18 24 1 -5
BITMAP
030000
0FCC00
1EFC00
383C00
701C00
601C00
600C00
E00C00
E00C00
E00C00
E00C00
E00C00
E00C00
600C00
601C00
701C00
383C00
1FEC00
0FCC00
000C00
000E00
000600
0007C0
0001C0
ENDCHAR
STARTCHAR 024B
ENCODING 587
SWIDTH 560 0
DWIDTH 14 0
BBX 14 19 1 -5
BITMAP
1E60
3FE0
70E0
60E0
6060
C060
C060
C060
C060
E060
6060
70E0
3FE0
1F60
0060
0060
0070
003C
001C
ENDCHAR
STARTCHAR 024C
ENCODING 588
SWIDTH 640 0
DWIDTH 16 0
BBX 15 18 0 0
BITMAP
3FE0
3FF0
3070
3038
3038
3038
3038
3030
FFF0
FFC0
30E0
3070
3038
3018
3018
301C
300C
300E
ENDCHAR
STARTCHAR 024D
ENCODING 589
SWIDTH 360 0
DWIDTH 9 0
BBX 9 14 0 0
BITMAP
3380
3780
3C00
3800
3000
3000
FC00
FC00
3000
3000
3000
3000
3000
3000
ENDCHAR
STARTCHAR 024E
ENCODING 590
SWIDTH 560 0
DWIDTH 14 0
BBX 14 18 0 0
BITMAP
E018
6038
3030
FFFC
FFFC
1CC0
0DC0
0780
0780
0300
0300
0300
0300
0300
0300
0300
0300
0300
ENDCHAR
STARTCHAR 024F
ENCODING 591
SWIDTH 520 0
DWIDTH 13 0
BBX 13 19 0 -5
BITMAP
6038
6030
7030
3070
3060
1860
FFF8
FFF8
0CC0
0D80
0D80
0780
0700
0300
0700
0600
0600
3C00
3C00
ENDCHAR
STARTCHAR 0250
ENCODING 592
SWIDTH 560 0
DWIDTH 14 0
BBX 10 14 2 0
BITMAP
CF00
DF80
F1C0
E0C0
C0C0
C0C0
C1C0
FF80
FF00
C000
C000
E000
7F80
3F80
ENDCHAR
STARTCHAR 0251
ENCODING 593
SWIDTH 560 0
DWIDTH 14 0
BBX 11 14 1 0
BITMAP
1E60
3FE0
70E0
60E0
6060
C060
C060
C060
C060
E060
6060
70E0
3FE0
1F60
ENDCHAR
STARTCHAR 0252
ENCODING 594
SWIDTH 560 0
DWIDTH 14 0
BBX 11 14 2 0
BITMAP
CF00
DF80
F1C0
E0C0
C060
C060
C060
C060
C060
C060
E0E0
E0C0
FFC0
DF80
ENDCHAR
STARTCHAR 0253
ENCODING 595
SWIDTH 560 0
DWIDTH 14 0
BBX 11 19 2 0
BITMAP
3E00
7E00
E000
C000
C000
CF00
DF80
F1C0
E0C0
C060
C060
C060
C060
C060
C060
E0E0
E0C0
FFC0
DF80
ENDCHAR
STARTCHAR 0254
ENCODING 596
SWIDTH 480 0
DWIDTH 12 0
BBX 10 14 1 0
BITMAP
7E00
FF00
8380
0180
00C0
00C0
00C0
00C0
00C0
00C0
01C0
8380
FF00
FE00
ENDCHAR
STARTCHAR 0255
ENCODING 597
SWIDTH 480 0
DWIDTH 12 0
BBX 10 16 1 -2
BITMAP
0F80
3FC0
7040
6000
6000
E000
C000
C000
C000
E780
6FC0
78C0
3FC0
1F80
1800
1800
ENDCHAR
STARTCHAR 0256
ENCODING 598
SWIDTH 560 0
DWIDTH 14 0
BBX 14 24 1 -5
BITMAP
0060
0060
0060
0060
0060
1E60
3FE0
70E0
60E0
6060
C060
C060
C060
C060
E060
6060
70E0
3FE0
1F60
0060
0060
0070
003C
001C
ENDCHAR
STARTCHAR 0257
ENCODING 599
SWIDTH 640 0
DWIDTH 16 0
BBX 15 19 1 0
BITMAP
001E
003E
0070
0060
0060
1E60
3FE0
70E0
60E0
6060
C060
C060
C060
C060
E060
6060
70E0
3FE0
1F60
ENDCHAR
STARTCHAR 0258
ENCODING 600
SWIDTH 560 0
DWIDTH 14 0
BBX 12 14 1 0
BITMAP
1F00
3FC0
70C0
6060
C060
C070
FFF0
FFF0
0070
0060
0060
00E0
7FC0
7F80
ENDCHAR
STARTCHAR 0259
ENCODING 601
SWIDTH 560 0
DWIDTH 14 0
BBX 12 14 1 0
BITMAP
3F00
7FC0
41C0
0060
0060
0070
0030
FFF0
C070
C060
6060
60E0
3FC0
1F80
ENDCHAR
STARTCHAR 025A
ENCODING 602
SWIDTH 720 0
DWIDTH 18 0
BBX 17 14 1 0
BITMAP
3F0000
7FC600
40DE00
007E00
00E600
03F600
077780
1E7380
387000
E06000
606000
60E000
3FC000
1F8000
ENDCHAR
STARTCHAR 025B
ENCODING 603
SWIDTH 480 0
DWIDTH 12 0
BBX 10 14 1 0
BITMAP
1F80
7F80
7000
6000
6000
7000
1E00
3E00
6000
E000
C000
6000
7FC0
3FC0
ENDCHAR
STARTCHAR 025C
ENCODING 604
SWIDTH 480 0
DWIDTH 12 0
BBX 10 14 1 0
BITMAP
7E00
7F80
0180
0180
0180
0380
1E00
1F80
0180
00C0
00C0
0180
FF80
FF00
ENDCHAR
STARTCHAR 025D
ENCODING 605
SWIDTH 680 0
DWIDTH 17 0
BBX 16 14 1 0
BITMAP
7E00
7F8C
01BC
01FC
01CC
038C
1E0F
1F87
0180
00C0
00C0
0180
FF80
FF00
ENDCHAR
STARTCHAR 025E
ENCODING 606
SWIDTH 600 0
DWIDTH 15 0
BBX 12 14 1 0
BITMAP
0FC0
3FE0
7070
6030
6030
E060
C3C0
C3E0
C030
E030
6030
7030
3FF0
1FE0
ENDCHAR
STARTCHAR 025F
ENCODING 607
SWIDTH 240 0
DWIDTH 6 0
BBX 6 19 0 -5
BITMAP
30
30
30
30
30
30
FC
FC
30
30
30
30
30
30
30
30
30
F0
E0
ENDCHAR
STARTCHAR 0260
ENCODING 608
SWIDTH 640 0
DWIDTH 16 0
BBX 15 24 1 -5
BITMAP
001E
003E
0070
0060
0060
1E60
3FE0
70E0
60E0
E060
C060
C060
C060
C060
E060
60E0
70E0
3FE0
1E60
0060
0060
00C0
3FC0
3F80
ENDCHAR
STARTCHAR 0261
ENCODING 609
SWIDTH 560 0
DWIDTH 14 0
BBX 11 19 1 -5
BITMAP
07E0
3FE0
7060
6060
6060
C060
C060
C060
C060
E060
60E0
70E0
3FE0
1E60
0060
0060
00C0
3FC0
3F80
ENDCHAR
STARTCHAR 0262
ENCODING 610
SWIDTH 560 0
DWIDTH 14 0
BBX 11 14 1 0
BITMAP
0F80
3FE0
7060
6000
6000
E000
C000
C0E0
C0E0
E060
6060
7060
3FE0
1FE0
ENDCHAR
STARTCHAR 0263
ENCODING 611
SWIDTH 520 0
DWIDTH 13 0
BBX 11 19 1 -5
BITMAP
C060
6060
60C0
30C0
3180
3980
1B00
1B00
0F00
0E00
0E00
0E00
1B00
1B00
1980
3180
3180
1F80
1F00
ENDCHAR
STARTCHAR 0264
ENCODING 612
SWIDTH 520 0
DWIDTH 13 0
BBX 11 14 1 0
BITMAP
E060
60E0
31C0
3980
1B80
0F00
0E00
0E00
1F00
1B00
1980
3180
1F80
1F00
ENDCHAR
STARTCHAR 0265
ENCODING 613
SWIDTH 560 0
DWIDTH 14 0
BBX 10 19 2 -5
BITMAP
C0C0
C0C0
C0C0
C0C0
C0C0
C0C0
C0C0
C0C0
C0C0
C0C0
C0C0
E1C0
7FC0
3EC0
00C0
00C0
00C0
00C0
00C0
ENDCHAR
STARTCHAR 0266
ENCODING 614
SWIDTH 560 0
DWIDTH 14 0
BBX 10 19 2 0
BITMAP
3E00
7E00
E000
C000
C000
CF00
DF80
F1C0
E0C0
C0C0
C0C0
C0C0
C0C0
C0C0
C0C0
C0C0
C0C0
C0C0
C0C0
ENDCHAR
STARTCHAR 0267
ENCODING 615
SWIDTH 560 0
DWIDTH 14 0
BBX 10 24 2 -5
BITMAP
3E00
7E00
E000
C000
C000
CF00
DF80
F1C0
E0C0
C0C0
C0C0
C0C0
C0C0
C0C0
C0C0
C0C0
C0C0
C0C0
C0C0
00C0
00C0
00C0
0FC0
0F80
ENDCHAR
STARTCHAR 0268
ENCODING 616
SWIDTH 240 0
DWIDTH 6 0
BBX 6 19 0 0
BITMAP
30
30
30
00
00
30
30
30
30
30
30
FC
FC
30
30
30
30
30
30
ENDCHAR
STARTCHAR 0269
ENCODING 617
SWIDTH 320 0
DWIDTH 8 0
BBX 5 14 2 0
BITMAP
C0
C0
C0
C0
C0
C0
C0
C0
C0
C0
C0
C0
78
38
ENDCHAR
STARTCHAR 026A
ENCODING 618
SWIDTH 320 0
DWIDTH 8 0
BBX 6 14 1 0
BITMAP
FC
FC
30
30
30
30
30
30
30
30
30
30
FC
FC
ENDCHAR
STARTCHAR 026B
ENCODING 619
SWIDTH 360 0
DWIDTH 9 0
BBX 7 19 1 0
BITMAP
38
38
38
38
38
38
38
38
7A
FE
BC
38
38
38
38
38
38
38
38
ENDCHAR
STARTCHAR 026C
ENCODING 620
SWIDTH 440 0
DWIDTH 11 0
BBX 8 19 1 0
BITMAP
0C
0C
0C
0C
0C
0C
7C
FC
DC
FF
FF
0C
0C
0C
0C
0C
0C
0C
0C
ENDCHAR
STARTCHAR 026D
ENCODING 621
SWIDTH 240 0
DWIDTH 6 0
BBX 5 24 2 -5
BITMAP
C0
C0
C0
C0
C0
C0
C0
C0
C0
C0
C0
C0
C0
C0
C0
C0
C0
C0
C0
C0
C0
C0
78
78
ENDCHAR
STARTCHAR 026E
ENCODING 622
SWIDTH 640 0
DWIDTH 16 0
BBX 13 24 2 -5
BITMAP
C000
C000
C000
C000
C000
FFF0
FFF0
C070
C0E0
C0C0
C180
C380
C700
C780
C7E0
C0F0
C030
C038
C038
0038
0030
2070
3FE0
3FC0
ENDCHAR
STARTCHAR 026F
ENCODING 623
SWIDTH 880 0
DWIDTH 22 0
BBX 18 14 2 0
BITMAP
C0C0C0
C0C0C0
C0C0C0
C0C0C0
C0C0C0
C0C0C0
C0C0C0
C0C0C0
C0C0C0
C0C0C0
C0C1C0
E1E1C0
7F7FC0
3E3EC0
ENDCHAR
STARTCHAR 0270
ENCODING 624
SWIDTH 880 0
DWIDTH 22 0
BBX 18 19 2 -5
BITMAP
C0C0C0
C0C0C0
C0C0C0
C0C0C0
C0C0C0
C0C0C0
C0C0C0
C0C0C0
C0C0C0
C0C0C0
C0C1C0
E1E1C0
7F7FC0
3E3EC0
0000C0
0000C0
0000C0
0000C0
0000C0
ENDCHAR
STARTCHAR 0271
ENCODING 625
SWIDTH 880 0
DWIDTH 22 0
BBX 18 19 2 -5
BITMAP
CF0F00
DF9F80
F1F180
E0E0C0
C0C0C0
C0C0C0
C0C0C0
C0C0C0
C0C0C0
C0C0C0
C0C0C0
C0C0C0
C0C0C0
C0C0C0
0000C0
0000C0
0000C0
001F80
001F80
ENDCHAR
STARTCHAR 0272
ENCODING 626
SWIDTH 600 0
DWIDTH 15 0
BBX 12 19 0 -5
BITMAP
33C0
37E0
3C70
3830
3030
3030
3030
3030
3030
3030
3030
3030
3030
3030
3000
3000
3000
F000
E000
ENDCHAR
STARTCHAR 0273
ENCODING 627
SWIDTH 560 0
DWIDTH 14 0
BBX 13 19 2 -5
BITMAP
CF00
DF80
F1C0
E0C0
C0C0
C0C0
C0C0
C0C0
C0C0
C0C0
C0C0
C0C0
C0C0
C0C0
00C0
00C0
0060
0078
0038
ENDCHAR
STARTCHAR 0274
ENCODING 628
SWIDTH 560 0
DWIDTH 14 0
BBX 10 14 2 0
BITMAP
E0C0
F0C0
F0C0
F0C0
D8C0
D8C0
CCC0
CCC0
C6C0
C6C0
C3C0
C3C0
C1C0
C1C0
ENDCHAR
STARTCHAR 0275
ENCODING 629
SWIDTH 560 0
DWIDTH 14 0
BBX 12 14 1 0
BITMAP
1F00
3FC0
70C0
6060
6060
C060
FFF0
FFF0
C060
E060
6060
70E0
3FC0
1F80
ENDCHAR
STARTCHAR 0276
ENCODING 630
SWIDTH 760 0
DWIDTH 19 0
BBX 16 14 1 0
BITMAP
03FF
1FFF
38C0
60C0
60C0
C0C0
C0FF
C0FF
C0C0
60C0
60C0
70C0
3FFF
0FFF
ENDCHAR
STARTCHAR 0277
ENCODING 631
SWIDTH 640 0
DWIDTH 16 0
BBX 13 14 2 0
BITMAP
1F80
3FC0
70E0
6070
C030
C030
C638
C618
C618
C618
C638
C730
EDF0
79E0
ENDCHAR
STARTCHAR 0278
ENCODING 632
SWIDTH 600 0
DWIDTH 15 0
BBX 13 24 1 -5
BITMAP
0600
0600
0600
0600
0600
1F80
3FE0
7660
6630
6630
C630
C638
C638
C630
E630
6630
7670
3FE0
1FC0
0600
0600
0600
0600
0600
ENDCHAR
STARTCHAR 0279
ENCODING 633
SWIDTH 360 0
DWIDTH 9 0
BBX 7 14 0 0
BITMAP
06
06
06
06
06
06
06
06
06
06
06
0E
FE
F6
ENDCHAR
STARTCHAR 027A
ENCODING 634
SWIDTH 360 0
DWIDTH 9 0
BBX 7 19 0 0
BITMAP
06
06
06
06
06
06
06
06
06
06
06
06
06
06
06
06
0E
FE
F6
ENDCHAR
STARTCHAR 027B
ENCODING 635
SWIDTH 360 0
DWIDTH 9 0
BBX 10 19 0 -5
BITMAP
0600
0600
0600
0600
0600
0600
0600
0600
0600
0600
0600
0E00
FE00
F600
0600
0600
0700
03C0
01C0
ENDCHAR
STARTCHAR 027C
ENCODING 636
SWIDTH 360 0
DWIDTH 9 0
BBX 7 19 2 -5
BITMAP
CE
DE
F0
E0
C0
C0
C0
C0
C0
C0
C0
C0
C0
C0
C0
C0
C0
C0
C0
ENDCHAR
STARTCHAR 027D
ENCODING 637
SWIDTH 360 0
DWIDTH 9 0
BBX 7 19 2 -5
BITMAP
CE
DE
F0
E0
C0
C0
C0
C0
C0
C0
C0
C0
C0
C0
C0
C0
C0
7E
7E
ENDCHAR
STARTCHAR 027E
ENCODING 638
SWIDTH 480 0
DWIDTH 12 0
BBX 9 14 1 0
BITMAP
0F80
1F80
1800
3000
3000
3000
3000
3000
3000
3000
3000
3000
FC00
FC00
ENDCHAR
STARTCHAR 027F
ENCODING 639
SWIDTH 480 0
DWIDTH 12 0
BBX 9 14 1 0
BITMAP
F800
FC00
0E00
0600
0600
0600
0600
0600
0600
0600
0600
0600
1F80
1F80
ENDCHAR
STARTCHAR 0280
ENCODING 640
SWIDTH 560 0
DWIDTH 14 0
BBX 11 14 2 0
BITMAP
FC00
FF00
C380
C180
C180
C180
FF00
FE00
C700
C380
C180
C1C0
C0C0
C060
ENDCHAR
STARTCHAR 0281
ENCODING 641
SWIDTH 560 0
DWIDTH 14 0
BBX 11 14 2 0
BITMAP
C060
C0C0
C0C0
C180
C180
C300
FE00
FF00
C380
C180
C180
C380
FF00
FE00
ENDCHAR
STARTCHAR 0282
ENCODING 642
SWIDTH 480 0
DWIDTH 12 0
BBX 10 19 1 -5
BITMAP
3F00
7F80
6080
C000
C000
6000
7E00
1F80
0380
01C0
00C0
8180
FF80
FF00
C000
C000
E000
7E00
3E00
ENDCHAR
STARTCHAR 0283
ENCODING 643
SWIDTH 320 0
DWIDTH 8 0
BBX 8 24 0 -5
BITMAP
0F
1F
30
30
30
30
30
30
30
30
30
30
30
30
30
30
30
30
30
30
30
30
F0
E0
ENDCHAR
STARTCHAR 0284
ENCODING 644
SWIDTH 320 0
DWIDTH 8 0
BBX 8 24 0 -5
BITMAP
0F
1F
30
30
30
F0
F0
30
30
30
30
FC
FC
30
30
30
30
30
30
30
30
30
F0
E0
ENDCHAR
STARTCHAR 0285
ENCODING 645
SWIDTH 400 0
DWIDTH 10 0
BBX 8 19 1 -5
BITMAP
E0
F8
18
18
18
1C
1C
1C
1C
1C
1C
1C
1C
1C
1C
0C
0C
0F
07
ENDCHAR
STARTCHAR 0286
ENCODING 646
SWIDTH 320 0
DWIDTH 8 0
BBX 11 24 -3 -5
BITMAP
01E0
03E0
0600
0600
0600
0600
0600
0600
0600
0600
0600
0600
0600
0600
0600
0600
0600
0600
0600
7F80
FF80
C600
FE00
7C00
ENDCHAR
STARTCHAR 0287
ENCODING 647
SWIDTH 360 0
DWIDTH 9 0
BBX 7 18 1 -4
BITMAP
E0
F8
1C
0C
0C
0C
0C
0C
0C
0C
0C
0C
FE
FE
0C
0C
0C
0C
ENDCHAR
STARTCHAR 0288
ENCODING 648
SWIDTH 360 0
DWIDTH 9 0
BBX 7 23 1 -5
BITMAP
60
60
60
60
FE
FE
60
60
60
60
60
60
60
60
60
60
60
60
60
60
60
3E
3E
ENDCHAR
STARTCHAR 0289
ENCODING 649
SWIDTH 560 0
DWIDTH 14 0
BBX 14 14 0 0
BITMAP
3030
3030
3030
3030
3030
3030
FFFC
FFFC
3030
3030
3030
3870
1FF0
0FB0
ENDCHAR
STARTCHAR 028A
ENCODING 650
SWIDTH 560 0
DWIDTH 14 0
BBX 12 14 1 0
BITMAP
F9F0
F9F0
1980
39C0
70E0
6060
E060
E070
C070
E060
6060
70E0
3FC0
1F80
ENDCHAR
STARTCHAR 028B
ENCODING 651
SWIDTH 520 0
DWIDTH 13 0
BBX 10 14 2 0
BITMAP
C400
C700
C380
C1C0
C0C0
C0C0
C0C0
C0C0
C0C0
C0C0
C0C0
E180
7F00
3E00
ENDCHAR
STARTCHAR 028C
ENCODING 652
SWIDTH 520 0
DWIDTH 13 0
BBX 11 14 1 0
BITMAP
0E00
0E00
0F00
1B00
1B00
1980
3180
3180
30C0
60C0
60C0
6060
C060
C060
ENDCHAR
STARTCHAR 028D
ENCODING 653
SWIDTH 720 0
DWIDTH 18 0
BBX 16 14 1 0
BITMAP
1C18
1C1C
1C3C
343C
363C
362C
3666
7666
6266
6346
63C3
63C3
C1C3
C1C3
ENDCHAR
STARTCHAR 028E
ENCODING 654
SWIDTH 520 0
DWIDTH 13 0
BBX 11 19 1 0
BITMAP
01E0
03E0
0300
0600
0600
0E00
0E00
0E00
1F00
1B00
1B80
3980
3180
30C0
60C0
60C0
6060
C060
C060
ENDCHAR
STARTCHAR 028F
ENCODING 655
SWIDTH 560 0
DWIDTH 14 0
BBX 11 14 1 0
BITMAP
E060
60E0
70C0
31C0
1980
1B00
0F00
0E00
0600
0600
0600
0600
0600
0600
ENDCHAR
STARTCHAR 0290
ENCODING 656
SWIDTH 480 0
DWIDTH 12 0
BBX 12 19 1 -5
BITMAP
FFC0
FFC0
01C0
0380
0300
0600
0E00
1C00
1800
3000
7000
E000
FFC0
FFC0
00C0
00C0
00C0
00F0
0070
ENDCHAR
STARTCHAR 0291
ENCODING 657
SWIDTH 480 0
DWIDTH 12 0
BBX 10 15 1 -1
BITMAP
FFC0
FFC0
01C0
0380
0300
0600
0E00
1C00
1800
3780
76C0
ECC0
FFC0
FF80
0C00
ENDCHAR
STARTCHAR 0292
ENCODING 658
SWIDTH 520 0
DWIDTH 13 0
BBX 11 19 1 -5
BITMAP
FFC0
FFC0
01C0
0380
0300
0600
0E00
1C00
1E00
1F80
03C0
00C0
00E0
0060
00E0
00E0
81C0
FF80
FF00
ENDCHAR
STARTCHAR 0293
ENCODING 659
SWIDTH 520 0
DWIDTH 13 0
BBX 11 19 1 -5
BITMAP
FFC0
FFC0
01C0
0380
0300
0600
0E00
1C00
1E00
1F80
03C0
00C0
00E0
0060
3FE0
7FE0
61E0
7FE0
7F20
ENDCHAR
STARTCHAR 0294
ENCODING 660
SWIDTH 440 0
DWIDTH 11 0
BBX 9 19 1 0
BITMAP
7C00
FF00
8700
0180
0180
0180
0180
0180
0380
1F00
1C00
1800
1800
1800
1800
1800
1800
1800
1800
ENDCHAR
STARTCHAR 0295
ENCODING 661
SWIDTH 440 0
DWIDTH 11 0
BBX 9 19 1 0
BITMAP
1F00
3F80
7080
E000
C000
C000
C000
E000
6000
7C00
1C00
0C00
0C00
0C00
0C00
0C00
0C00
0C00
0C00
ENDCHAR
STARTCHAR 0296
ENCODING 662
SWIDTH 440 0
DWIDTH 11 0
BBX 9 19 1 0
BITMAP
1800
1800
1800
1800
1800
1800
1800
1800
1C00
1F00
0380
0180
0180
0180
0180
0180
8300
FF00
7C00
ENDCHAR
STARTCHAR 0297
ENCODING 663
SWIDTH 440 0
DWIDTH 11 0
BBX 9 24 1 -5
BITMAP
1F00
3F80
7080
E000
C000
C000
C000
C000
C000
C000
C000
C000
C000
C000
C000
C000
C000
C000
C000
C000
C000
6000
7F80
3F80
ENDCHAR
STARTCHAR 0298
ENCODING 664
SWIDTH 720 0
DWIDTH 18 0
BBX 15 19 1 0
BITMAP
0180
0FF0
1EF8
381C
700C
600E
6006
E006
E006
E186
E186
E006
E006
6006
700E
700C
381C
1FF8
0FE0
ENDCHAR
STARTCHAR 0299
ENCODING 665
SWIDTH 520 0
DWIDTH 13 0
BBX 10 14 2 0
BITMAP
FC00
FF00
C380
C180
C180
C380
FE00
FF80
C1C0
C0C0
C0C0
C1C0
FF80
FF00
ENDCHAR
STARTCHAR 029A
ENCODING 666
SWIDTH 600 0
DWIDTH 15 0
BBX 12 14 1 0
BITMAP
1F80
7FC0
60E0
6070
6030
7030
1E30
7E30
6030
C030
C030
E060
7FE0
3F80
ENDCHAR
STARTCHAR 029B
ENCODING 667
SWIDTH 640 0
DWIDTH 16 0
BBX 15 19 1 0
BITMAP
003E
007E
0060
0060
0060
0FE0
3FE0
7060
6000
6000
E000
C000
C0E0
C0E0
E060
6060
7060
3FE0
1FE0
ENDCHAR
STARTCHAR 029C
ENCODING 668
SWIDTH 600 0
DWIDTH 15 0
BBX 11 14 2 0
BITMAP
C060
C060
C060
C060
C060
C060
FFE0
FFE0
C060
C060
C060
C060
C060
C060
ENDCHAR
STARTCHAR 029D
ENCODING 669
SWIDTH 280 0
DWIDTH 7 0
BBX 9 24 -3 -5
BITMAP
0600
0600
0600
0000
0000
0600
0600
0600
0600
0600
0600
0600
0600
0600
0600
0600
0600
0600
0600
7F80
FF80
C600
FE00
7C00
ENDCHAR
STARTCHAR 029E
ENCODING 670
SWIDTH 600 0
DWIDTH 15 0
BBX 11 19 2 -5
BITMAP
E060
7060
3860
1C60
0E60
0760
0360
01E0
03E0
0760
0C60
1860
3060
6060
0060
0060
0060
0060
0060
ENDCHAR
STARTCHAR 029F
ENCODING 671
SWIDTH 440 0
DWIDTH 11 0
BBX 9 14 2 0
BITMAP
C000
C000
C000
C000
C000
C000
C000
C000
C000
C000
C000
C000
FF80
FF80
ENDCHAR
STARTCHAR 02A0
ENCODING 672
SWIDTH 640 0
DWIDTH 16 0
BBX 16 24 1 -5
BITMAP
001F
003F
0070
0060
0060
1E60
3FE0
70E0
60E0
6060
C060
C060
C060
C060
E060
6060
70E0
3FE0
1F60
0060
0060
0060
0060
0060
ENDCHAR
STARTCHAR 02A1
ENCODING 673
SWIDTH 440 0
DWIDTH 11 0
BBX 9 19 1 0
BITMAP
7C00
FF00
8700
0180
0180
0180
0180
0180
0380
1F00
1C00
1800
1800
1800
FF00
FF00
1800
1800
1800
ENDCHAR
STARTCHAR 02A2
ENCODING 674
SWIDTH 440 0
DWIDTH 11 0
BBX 9 19 1 0
BITMAP
1F00
3F80
7080
E000
C000
C000
C000
E000
6000
7C00
1C00
0C00
0C00
0C00
3F80
3F80
0C00
0C00
0C00
ENDCHAR
STARTCHAR 02A3
ENCODING 675
SWIDTH 920 0
DWIDTH 23 0
BBX 21 19 1 0
BITMAP
006000
006000
006000
006000
006000
1E7FF8
3FFFF8
70E038
60E070
606060
C060C0
C061C0
C06380
C06300
E06600
606E00
70FC00
3FFFF8
1F7FF8
ENDCHAR
STARTCHAR 02A4
ENCODING 676
SWIDTH 960 0
DWIDTH 24 0
BBX 22 24 1 -5
BITMAP
006000
006000
006000
006000
006000
1E7FF8
3FFFF8
70E038
60E070
606060
C060C0
C061C0
C06380
C063C0
E063F0
606078
70E018
3FE01C
1F600C
00000C
00001C
001038
001FF0
001FE0
ENDCHAR
STARTCHAR 02A5
ENCODING 677
SWIDTH 920 0
DWIDTH 23 0
BBX 21 20 1 -1
BITMAP
006000
006000
006000
006000
006000
1E7FF8
3FFFF8
70E038
60E070
606060
C060C0
C061C0
C06380
C06300
E066F0
606EF8
70FD98
3FFFF8
1F7FF0
000180
ENDCHAR
STARTCHAR 02A6
ENCODING 678
SWIDTH 760 0
DWIDTH 19 0
BBX 17 18 1 0
BITMAP
600000
600000
600000
600000
FE7E00
FEFF00
61C100
618000
618000
61C000
60FC00
603F00
600700
600380
600380
600300
3FFF00
1FFE00
ENDCHAR
STARTCHAR 02A7
ENCODING 679
SWIDTH 560 0
DWIDTH 14 0
BBX 13 24 1 -5
BITMAP
0078
60F8
61C0
6180
6180
FF80
FF80
6180
6180
6180
6180
6180
6180
6180
6180
6180
6180
3F80
1F80
0180
0180
0180
0780
0700
ENDCHAR
STARTCHAR 02A8
ENCODING 680
SWIDTH 720 0
DWIDTH 18 0
BBX 15 20 1 -2
BITMAP
6000
6000
6000
6000
FE7C
FEFE
61C2
6380
6300
6300
6300
6300
6300
633C
637E
61E6
3FFE
1FFE
00C0
00C0
ENDCHAR
STARTCHAR 02A9
ENCODING 681
SWIDTH 760 0
DWIDTH 19 0
BBX 17 24 1 -5
BITMAP
1E0000
3E0000
300000
700000
600000
FF9E00
FFFF00
61C380
618180
618180
618180
618180
618180
618180
618180
618180
618180
618180
618180
000180
000180
000180
001F80
001F00
ENDCHAR
STARTCHAR 02AA
ENCODING 682
SWIDTH 640 0
DWIDTH 16 0
BBX 13 19 2 0
BITMAP
C000
C000
C000
C000
C000
C3E0
CFF0
CC10
D800
DC00
CE00
CFC0
C3F0
C070
C018
C018
C038
FFF0
FFE0
ENDCHAR
STARTCHAR 02AB
ENCODING 683
SWIDTH 600 0
DWIDTH 15 0
BBX 12 19 2 0
BITMAP
C000
C000
C000
C000
C000
FFF0
FFF0
C070
C0E0
C0C0
C180
C380
C700
C600
CC00
D800
F800
FFF0
FFF0
ENDCHAR
STARTCHAR 02AC
ENCODING 684
SWIDTH 480 0
DWIDTH 12 0
BBX 10 16 1 0
BITMAP
8C40
8CC0
DC80
5480
5280
5380
6300
2300
0000
8CC0
8CC0
D480
5680
5380
5300
6300
ENDCHAR
STARTCHAR 02AD
ENCODING 685
SWIDTH 480 0
DWIDTH 12 0
BBX 10 14 1 2
BITMAP
FFC0
FFC0
80C0
80C0
80C0
0000
0000
0000
0000
FFC0
FFC0
80C0
80C0
80C0
ENDCHAR
STARTCHAR 02AE
ENCODING 686
SWIDTH 600 0
DWIDTH 15 0
BBX 13 24 0 -5
BITMAP
E000
F000
3000
3000
1800
1818
1818
1818
1818
1818
1818
1818
1818
1818
1818
1838
1838
1FD8
0F98
0018
0018
0018
0018
0018
ENDCHAR
STARTCHAR 02AF
ENCODING 687
SWIDTH 600 0
DWIDTH 15 0
BBX 15 24 0 -5
BITMAP
E000
F000
3000
3000
1800
1818
1818
1818
1818
1818
1818
1818
1818
1818
1818
1838
1838
1FD8
0F98
0018
0018
0018
001E
000E
ENDCHAR
STARTCHAR 02B0
ENCODING 688
SWIDTH 360 0
DWIDTH 9 0
BBX 7 11 1 8
BITMAP
C0
C0
C0
FC
C4
C6
C6
C6
C6
C6
C6
ENDCHAR
STARTCHAR 02B1
ENCODING 689
SWIDTH 360 0
DWIDTH 9 0
BBX 7 11 1 8
BITMAP
70
C0
C0
FC
C4
C6
C6
C6
C6
C6
C6
ENDCHAR
STARTCHAR 02B2
ENCODING 690
SWIDTH 160 0
DWIDTH 4 0
BBX 3 14 0 5
BITMAP
60
60
00
60
60
60
60
60
60
60
60
60
40
80
ENDCHAR
STARTCHAR 02B3
ENCODING 691
SWIDTH 240 0
DWIDTH 6 0
BBX 5 8 1 8
BITMAP
F8
C0
C0
C0
C0
C0
C0
C0
ENDCHAR
STARTCHAR 02B4
ENCODING 692
SWIDTH 280 0
DWIDTH 7 0
BBX 4 8 1 8
BITMAP
10
10
10
10
10
10
30
D0
ENDCHAR
STARTCHAR 02B5
ENCODING 693
SWIDTH 280 0
DWIDTH 7 0
BBX 6 11 1 5
BITMAP
10
10
10
10
10
10
30
D0
10
18
0C
ENDCHAR
STARTCHAR 02B6
ENCODING 694
SWIDTH 360 0
DWIDTH 9 0
BBX 7 8 0 8
BITMAP
C2
C4
CC
F8
DC
C4
CC
F8
ENDCHAR
STARTCHAR 02B7
ENCODING 695
SWIDTH 480 0
DWIDTH 12 0
BBX 10 8 1 8
BITMAP
8C40
8CC0
9C80
D480
5280
5380
6300
2300
ENDCHAR
STARTCHAR 02B8
ENCODING 696
SWIDTH 320 0
DWIDTH 8 0
BBX 7 11 1 5
BITMAP
86
84
C4
4C
68
38
30
30
30
20
C0
ENDCHAR
STARTCHAR 02B9
ENCODING 697
SWIDTH 240 0
DWIDTH 6 0
BBX 2 6 2 14
BITMAP
C0
C0
C0
C0
C0
80
ENDCHAR
STARTCHAR 02BA
ENCODING 698
SWIDTH 400 0
DWIDTH 10 0
BBX 7 6 2 14
BITMAP
CE
CC
CC
CC
CC
8C
ENDCHAR
STARTCHAR 02BB
ENCODING 699
SWIDTH 280 0
DWIDTH 7 0
BBX 3 6 2 12
BITMAP
60
60
E0
C0
C0
C0
ENDCHAR
STARTCHAR 02BC
ENCODING 700
SWIDTH 280 0
DWIDTH 7 0
BBX 3 6 2 12
BITMAP
60
60
60
C0
C0
80
ENDCHAR
STARTCHAR 02BD
ENCODING 701
SWIDTH 280 0
DWIDTH 7 0
BBX 3 6 2 15
BITMAP
C0
C0
60
60
60
20
ENDCHAR
STARTCHAR 02BE
ENCODING 702
SWIDTH 280 0
DWIDTH 7 0
BBX 3 7 1 12
BITMAP
C0
E0
20
20
20
E0
80
ENDCHAR
STARTCHAR 02BF
ENCODING 703
SWIDTH 280 0
DWIDTH 7 0
BBX 3 7 1 12
BITMAP
20
60
C0
C0
C0
60
20
ENDCHAR
STARTCHAR 02C0
ENCODING 704
SWIDTH 320 0
DWIDTH 8 0
BBX 6 11 1 8
BITMAP
70
8C
04
04
0C
38
20
20
20
20
20
ENDCHAR
STARTCHAR 02C1
ENCODING 705
SWIDTH 320 0
DWIDTH 8 0
BBX 6 11 1 8
BITMAP
3C
64
C0
C0
C0
70
10
10
10
10
10
ENDCHAR
STARTCHAR 02C2
ENCODING 706
SWIDTH 440 0
DWIDTH 11 0
BBX 5 6 3 14
BITMAP
18
70
C0
C0
70
18
ENDCHAR
STARTCHAR 02C3
ENCODING 707
SWIDTH 440 0
DWIDTH 11 0
BBX 5 8 3 13
BITMAP
80
C0
70
18
18
70
C0
80
ENDCHAR
STARTCHAR 02C4
ENCODING 708
SWIDTH 440 0
DWIDTH 11 0
BBX 7 6 2 14
BITMAP
18
38
2C
6C
44
C6
ENDCHAR
STARTCHAR 02C5
ENCODING 709
SWIDTH 440 0
DWIDTH 11 0
BBX 7 6 2 14
BITMAP
C6
44
6C
2C
38
18
ENDCHAR
STARTCHAR 02C6
ENCODING 710
SWIDTH 440 0
DWIDTH 11 0
BBX 7 5 2 15
BITMAP
18
38
6C
44
C2
ENDCHAR
STARTCHAR 02C7
ENCODING 711
SWIDTH 440 0
DWIDTH 11 0
BBX 7 5 2 15
BITMAP
C6
64
2C
38
18
ENDCHAR
STARTCHAR 02C8
ENCODING 712
SWIDTH 240 0
DWIDTH 6 0
BBX 2 7 2 12
BITMAP
C0
C0
C0
C0
C0
C0
C0
ENDCHAR
STARTCHAR 02C9
ENCODING 713
SWIDTH 440 0
DWIDTH 11 0
BBX 7 2 2 17
BITMAP
FE
FE
ENDCHAR
STARTCHAR 02CA
ENCODING 714
SWIDTH 440 0
DWIDTH 11 0
BBX 5 5 4 15
BITMAP
18
30
60
60
C0
ENDCHAR
STARTCHAR 02CB
ENCODING 715
SWIDTH 440 0
DWIDTH 11 0
BBX 5 5 2 15
BITMAP
C0
60
30
10
18
ENDCHAR
STARTCHAR 02CC
ENCODING 716
SWIDTH 240 0
DWIDTH 6 0
BBX 2 7 2 -4
BITMAP
C0
C0
C0
C0
C0
C0
C0
ENDCHAR
STARTCHAR 02CD
ENCODING 717
SWIDTH 440 0
DWIDTH 11 0
BBX 7 2 2 -4
BITMAP
FE
FE
ENDCHAR
STARTCHAR 02CE
ENCODING 718
SWIDTH 440 0
DWIDTH 11 0
BBX 5 5 2 -6
BITMAP
C0
60
20
30
18
ENDCHAR
STARTCHAR 02CF
ENCODING 719
SWIDTH 440 0
DWIDTH 11 0
BBX 5 5 4 -6
BITMAP
18
30
30
60
C0
ENDCHAR
STARTCHAR 02D0
ENCODING 720
SWIDTH 320 0
DWIDTH 8 0
BBX 4 13 1 0
BITMAP
F0
60
60
40
00
00
00
00
00
40
60
60
F0
ENDCHAR
STARTCHAR 02D1
ENCODING 721
SWIDTH 320 0
DWIDTH 8 0
BBX 4 4 1 9
BITMAP
F0
60
60
40
ENDCHAR
STARTCHAR 02D2
ENCODING 722
SWIDTH 280 0
DWIDTH 7 0
BBX 3 7 1 6
BITMAP
C0
E0
20
20
20
E0
80
ENDCHAR
STARTCHAR 02D3
ENCODING 723
SWIDTH 280 0
DWIDTH 7 0
BBX 3 7 1 6
BITMAP
20
60
C0
C0
C0
60
20
ENDCHAR
STARTCHAR 02D4
ENCODING 724
SWIDTH 440 0
DWIDTH 11 0
BBX 5 5 3 6
BITMAP
20
20
20
F8
F8
ENDCHAR
STARTCHAR 02D5
ENCODING 725
SWIDTH 440 0
DWIDTH 11 0
BBX 5 5 3 6
BITMAP
F8
F8
20
20
20
ENDCHAR
STARTCHAR 02D6
ENCODING 726
SWIDTH 360 0
DWIDTH 9 0
BBX 7 7 1 3
BITMAP
10
10
FE
FE
10
10
10
ENDCHAR
STARTCHAR 02D7
ENCODING 727
SWIDTH 280 0
DWIDTH 7 0
BBX 5 2 1 6
BITMAP
F8
F8
ENDCHAR
STARTCHAR 02D8
ENCODING 728
SWIDTH 440 0
DWIDTH 11 0
BBX 7 4 2 16
BITMAP
C2
C6
7C
38
ENDCHAR
STARTCHAR 02D9
ENCODING 729
SWIDTH 440 0
DWIDTH 11 0
BBX 3 3 4 16
BITMAP
E0
E0
E0
ENDCHAR
STARTCHAR 02DA
ENCODING 730
SWIDTH 440 0
DWIDTH 11 0
BBX 6 7 3 15
BITMAP
70
F8
8C
8C
88
F8
70
ENDCHAR
STARTCHAR 02DB
ENCODING 731
SWIDTH 440 0
DWIDTH 11 0
BBX 4 5 4 -5
BITMAP
C0
80
80
F0
70
ENDCHAR
STARTCHAR 02DC
ENCODING 732
SWIDTH 440 0
DWIDTH 11 0
BBX 7 3 2 16
BITMAP
72
DE
8C
ENDCHAR
STARTCHAR 02DD
ENCODING 733
SWIDTH 440 0
DWIDTH 11 0
BBX 7 5 3 15
BITMAP
66
64
4C
C8
98
ENDCHAR
STARTCHAR 02DE
ENCODING 734
SWIDTH 280 0
DWIDTH 7 0
BBX 8 7 0 6
BITMAP
18
78
F8
98
18
0F
0F
ENDCHAR
STARTCHAR 02DF
ENCODING 735
SWIDTH 440 0
DWIDTH 11 0
BBX 6 5 3 15
BITMAP
D8
70
70
78
CC
ENDCHAR
STARTCHAR 02E0
ENCODING 736
SWIDTH 400 0
DWIDTH 10 0
BBX 6 11 2 5
BITMAP
84
C8
78
30
30
58
48
C8
8C
CC
70
ENDCHAR
STARTCHAR 02E1
ENCODING 737
SWIDTH 160 0
DWIDTH 4 0
BBX 2 11 1 8
BITMAP
C0
C0
C0
C0
C0
C0
C0
C0
C0
C0
C0
ENDCHAR
STARTCHAR 02E2
ENCODING 738
SWIDTH 320 0
DWIDTH 8 0
BBX 6 8 1 8
BITMAP
7C
C0
C0
78
0C
04
8C
78
ENDCHAR
STARTCHAR 02E3
ENCODING 739
SWIDTH 400 0
DWIDTH 10 0
BBX 7 8 2 8
BITMAP
84
4C
78
30
30
68
CC
86
ENDCHAR
STARTCHAR 02E4
ENCODING 740
SWIDTH 320 0
DWIDTH 8 0
BBX 6 11 1 8
BITMAP
3C
64
C0
C0
C0
70
10
10
10
10
10
ENDCHAR
STARTCHAR 02E5
ENCODING 741
SWIDTH 440 0
DWIDTH 11 0
BBX 7 17 2 0
BITMAP
FE
FE
06
06
06
06
06
06
06
06
06
06
06
06
06
06
06
ENDCHAR
STARTCHAR 02E6
ENCODING 742
SWIDTH 440 0
DWIDTH 11 0
BBX 7 17 2 0
BITMAP
06
06
06
06
FE
FE
06
06
06
06
06
06
06
06
06
06
06
ENDCHAR
STARTCHAR 02E7
ENCODING 743
SWIDTH 440 0
DWIDTH 11 0
BBX 7 17 2 0
BITMAP
06
06
06
06
06
06
06
06
FE
06
06
06
06
06
06
06
06
ENDCHAR
STARTCHAR 02E8
ENCODING 744
SWIDTH 440 0
DWIDTH 11 0
BBX 7 17 2 0
BITMAP
06
06
06
06
06
06
06
06
06
06
06
06
FE
06
06
06
06
ENDCHAR
STARTCHAR 02E9
ENCODING 745
SWIDTH 440 0
DWIDTH 11 0
BBX 7 17 2 0
BITMAP
06
06
06
06
06
06
06
06
06
06
06
06
06
06
06
FE
FE
ENDCHAR
STARTCHAR 02EC
ENCODING 748
SWIDTH 440 0
DWIDTH 11 0
BBX 7 6 2 -7
BITMAP
C6
44
6C
2C
38
18
ENDCHAR
STARTCHAR 02ED
ENCODING 749
SWIDTH 440 0
DWIDTH 11 0
BBX 7 6 2 15
BITMAP
FE
FE
00
00
FE
FE
ENDCHAR
STARTCHAR 02EE
ENCODING 750
SWIDTH 480 0
DWIDTH 12 0
BBX 8 6 2 12
BITMAP
67
67
66
C6
C4
8C
ENDCHAR
STARTCHAR 02F3
ENCODING 755
SWIDTH 440 0
DWIDTH 11 0
BBX 6 7 3 -6
BITMAP
70
F8
8C
8C
88
F8
70
ENDCHAR
STARTCHAR 02F7
ENCODING 759
SWIDTH 440 0
DWIDTH 11 0
BBX 7 4 2 -5
BITMAP
22
F2
DE
8C
ENDCHAR
STARTCHAR 0300
ENCODING 768
SWIDTH 0 0
DWIDTH 0 0
BBX 5 5 -9 14
BITMAP
C0
60
20
30
18
ENDCHAR
STARTCHAR 0301
ENCODING 769
SWIDTH 0 0
DWIDTH 0 0
BBX 5 5 -7 14
BITMAP
18
30
60
40
C0
ENDCHAR
STARTCHAR 0302
ENCODING 770
SWIDTH 0 0
DWIDTH 0 0
BBX 7 5 -9 14
BITMAP
38
38
6C
44
86
ENDCHAR
STARTCHAR 0303
ENCODING 771
SWIDTH 0 0
DWIDTH 0 0
BBX 7 3 -9 16
BITMAP
F2
9E
8C
ENDCHAR
STARTCHAR 0304
ENCODING 772
SWIDTH 0 0
DWIDTH 0 0
BBX 7 2 -9 17
BITMAP
FE
FE
ENDCHAR
STARTCHAR 0305
ENCODING 773
SWIDTH 0 0
DWIDTH 0 0
BBX 11 2 -11 17
BITMAP
FFE0
FFE0
ENDCHAR
STARTCHAR 0306
ENCODING 774
SWIDTH 0 0
DWIDTH 0 0
BBX 7 4 -9 16
BITMAP
86
C6
FC
38
ENDCHAR
STARTCHAR 0307
ENCODING 775
SWIDTH 0 0
DWIDTH 0 0
BBX 2 3 -7 14
BITMAP
C0
C0
C0
ENDCHAR
STARTCHAR 0308
ENCODING 776
SWIDTH 0 0
DWIDTH 0 0
BBX 7 3 -9 14
BITMAP
CE
CE
CE
ENDCHAR
STARTCHAR 0309
ENCODING 777
SWIDTH 0 0
DWIDTH 0 0
BBX 5 5 -8 15
BITMAP
F8
08
18
30
20
ENDCHAR
STARTCHAR 030A
ENCODING 778
SWIDTH 0 0
DWIDTH 0 0
BBX 6 7 -9 15
BITMAP
38
7C
C4
C4
44
7C
38
ENDCHAR
STARTCHAR 030B
ENCODING 779
SWIDTH 0 0
DWIDTH 0 0
BBX 8 5 -9 15
BITMAP
33
36
66
6C
C8
ENDCHAR
STARTCHAR 030C
ENCODING 780
SWIDTH 0 0
DWIDTH 0 0
BBX 7 5 -9 14
BITMAP
C6
4C
68
38
10
ENDCHAR
STARTCHAR 030D
ENCODING 781
SWIDTH 0 0
DWIDTH 0 0
BBX 1 6 -6 15
BITMAP
80
80
80
80
80
80
ENDCHAR
STARTCHAR 030E
ENCODING 782
SWIDTH 0 0
DWIDTH 0 0
BBX 6 6 -9 15
BITMAP
C4
C4
C4
C4
C4
C4
ENDCHAR
STARTCHAR 030F
ENCODING 783
SWIDTH 0 0
DWIDTH 0 0
BBX 7 5 -10 15
BITMAP
CC
4C
66
26
32
ENDCHAR
STARTCHAR 0310
ENCODING 784
SWIDTH 0 0
DWIDTH 0 0
BBX 7 7 -9 16
BITMAP
30
30
30
86
C6
FC
38
ENDCHAR
STARTCHAR 0311
ENCODING 785
SWIDTH 0 0
DWIDTH 0 0
BBX 7 4 -9 16
BITMAP
30
7C
C4
86
ENDCHAR
STARTCHAR 0312
ENCODING 786
SWIDTH 0 0
DWIDTH 0 0
BBX 3 4 -5 12
BITMAP
60
60
C0
C0
ENDCHAR
STARTCHAR 0313
ENCODING 787
SWIDTH 0 0
DWIDTH 0 0
BBX 3 6 -7 15
BITMAP
E0
E0
E0
60
60
C0
ENDCHAR
STARTCHAR 0314
ENCODING 788
SWIDTH 0 0
DWIDTH 0 0
BBX 3 6 -7 15
BITMAP
E0
E0
E0
C0
C0
60
ENDCHAR
STARTCHAR 0315
ENCODING 789
SWIDTH 0 0
DWIDTH 0 0
BBX 2 5 -1 14
BITMAP
C0
C0
C0
C0
80
ENDCHAR
STARTCHAR 0316
ENCODING 790
SWIDTH 0 0
DWIDTH 0 0
BBX 5 5 -9 -7
BITMAP
C0
60
20
30
18
ENDCHAR
STARTCHAR 0317
ENCODING 791
SWIDTH 0 0
DWIDTH 0 0
BBX 5 5 -7 -7
BITMAP
18
30
60
40
C0
ENDCHAR
STARTCHAR 0318
ENCODING 792
SWIDTH 0 0
DWIDTH 0 0
BBX 3 5 -8 -6
BITMAP
20
20
E0
20
20
ENDCHAR
STARTCHAR 0319
ENCODING 793
SWIDTH 0 0
DWIDTH 0 0
BBX 3 5 -6 -6
BITMAP
80
80
E0
80
80
ENDCHAR
STARTCHAR 031A
ENCODING 794
SWIDTH 0 0
DWIDTH 0 0
BBX 6 6 -5 17
BITMAP
FC
0C
0C
0C
0C
0C
ENDCHAR
STARTCHAR 031B
ENCODING 795
SWIDTH 0 0
DWIDTH 0 0
BBX 4 4 -3 11
BITMAP
10
10
F0
70
ENDCHAR
STARTCHAR 031C
ENCODING 796
SWIDTH 0 0
DWIDTH 0 0
BBX 2 5 -7 -6
BITMAP
40
C0
80
C0
40
ENDCHAR
STARTCHAR 031D
ENCODING 797
SWIDTH 0 0
DWIDTH 0 0
BBX 5 4 -8 -6
BITMAP
20
20
F8
F8
ENDCHAR
STARTCHAR 031E
ENCODING 798
SWIDTH 0 0
DWIDTH 0 0
BBX 5 4 -8 -6
BITMAP
F8
F8
20
20
ENDCHAR
STARTCHAR 031F
ENCODING 799
SWIDTH 0 0
DWIDTH 0 0
BBX 5 5 -8 -6
BITMAP
20
20
F8
20
20
ENDCHAR
STARTCHAR 0320
ENCODING 800
SWIDTH 0 0
DWIDTH 0 0
BBX 5 2 -8 -5
BITMAP
F8
F8
ENDCHAR
STARTCHAR 0321
ENCODING 801
SWIDTH 0 0
DWIDTH 0 0
BBX 6 7 -7 -5
BITMAP
0C
0C
0C
0C
0C
FC
F8
ENDCHAR
STARTCHAR 0322
ENCODING 802
SWIDTH 0 0
DWIDTH 0 0
BBX 6 7 -7 -5
BITMAP
C0
C0
C0
C0
C0
FC
7C
ENDCHAR
STARTCHAR 0323
ENCODING 803
SWIDTH 0 0
DWIDTH 0 0
BBX 2 3 -7 -5
BITMAP
C0
C0
C0
ENDCHAR
STARTCHAR 0324
ENCODING 804
SWIDTH 0 0
DWIDTH 0 0
BBX 7 3 -9 -5
BITMAP
CE
CE
CE
ENDCHAR
STARTCHAR 0325
ENCODING 805
SWIDTH 0 0
DWIDTH 0 0
BBX 5 5 -8 -6
BITMAP
70
D8
98
F8
70
ENDCHAR
STARTCHAR 0326
ENCODING 806
SWIDTH 0 0
DWIDTH 0 0
BBX 3 4 -7 -6
BITMAP
60
C0
C0
80
ENDCHAR
STARTCHAR 0327
ENCODING 807
SWIDTH 0 0
DWIDTH 0 0
BBX 4 5 -8 -5
BITMAP
30
10
10
F0
E0
ENDCHAR
STARTCHAR 0328
ENCODING 808
SWIDTH 0 0
DWIDTH 0 0
BBX 5 5 -8 -5
BITMAP
60
40
C0
78
78
ENDCHAR
STARTCHAR 0329
ENCODING 809
SWIDTH 0 0
DWIDTH 0 0
BBX 1 5 -6 -6
BITMAP
80
80
80
80
80
ENDCHAR
STARTCHAR 032A
ENCODING 810
SWIDTH 0 0
DWIDTH 0 0
BBX 6 4 -9 -5
BITMAP
FC
FC
C4
C4
ENDCHAR
STARTCHAR 032B
ENCODING 811
SWIDTH 0 0
DWIDTH 0 0
BBX 9 4 -10 -6
BITMAP
8980
DD80
FF00
2200
ENDCHAR
STARTCHAR 032C
ENCODING 812
SWIDTH 0 0
DWIDTH 0 0
BBX 7 5 -9 -6
BITMAP
C6
4C
68
38
10
ENDCHAR
STARTCHAR 032D
ENCODING 813
SWIDTH 0 0
DWIDTH 0 0
BBX 7 5 -9 -6
BITMAP
30
38
6C
44
86
ENDCHAR
STARTCHAR 032E
ENCODING 814
SWIDTH 0 0
DWIDTH 0 0
BBX 7 4 -9 -6
BITMAP
86
C6
FC
38
ENDCHAR
STARTCHAR 032F
ENCODING 815
SWIDTH 0 0
DWIDTH 0 0
BBX 7 4 -9 -6
BITMAP
78
FC
C6
86
ENDCHAR
STARTCHAR 0330
ENCODING 816
SWIDTH 0 0
DWIDTH 0 0
BBX 7 3 -9 -6
BITMAP
F2
9E
8C
ENDCHAR
STARTCHAR 0331
ENCODING 817
SWIDTH 0 0
DWIDTH 0 0
BBX 7 2 -9 -4
BITMAP
FE
FE
ENDCHAR
STARTCHAR 0332
ENCODING 818
SWIDTH 0 0
DWIDTH 0 0
BBX 11 2 -11 -6
BITMAP
FFE0
FFE0
ENDCHAR
STARTCHAR 0333
ENCODING 819
SWIDTH 0 0
DWIDTH 0 0
BBX 11 6 -11 -6
BITMAP
FFE0
FFE0
0000
0000
FFE0
FFE0
ENDCHAR
STARTCHAR 0334
ENCODING 820
SWIDTH 0 0
DWIDTH 0 0
BBX 12 3 -13 7
BITMAP
7E10
FFF0
81E0
ENDCHAR
STARTCHAR 0335
ENCODING 821
SWIDTH 0 0
DWIDTH 0 0
BBX 6 2 -7 6
BITMAP
FC
FC
ENDCHAR
STARTCHAR 0336
ENCODING 822
SWIDTH 0 0
DWIDTH 0 0
BBX 14 2 -14 6
BITMAP
FFFC
FFFC
ENDCHAR
STARTCHAR 0337
ENCODING 823
SWIDTH 0 0
DWIDTH 0 0
BBX 12 16 -13 -1
BITMAP
0010
0030
0060
0060
00C0
0180
0100
0300
0600
0C00
0800
1800
3000
6000
4000
C000
ENDCHAR
STARTCHAR 0338
ENCODING 824
SWIDTH 0 0
DWIDTH 0 0
BBX 14 20 -16 -1
BITMAP
0004
000C
000C
0018
0030
0060
0060
00C0
0180
0300
0300
0600
0C00
1800
1800
3000
6000
C000
C000
8000
ENDCHAR
STARTCHAR 0339
ENCODING 825
SWIDTH 0 0
DWIDTH 0 0
BBX 3 5 -7 -6
BITMAP
C0
60
60
60
C0
ENDCHAR
STARTCHAR 033A
ENCODING 826
SWIDTH 0 0
DWIDTH 0 0
BBX 6 4 -9 -5
BITMAP
C4
C4
FC
FC
ENDCHAR
STARTCHAR 033B
ENCODING 827
SWIDTH 0 0
DWIDTH 0 0
BBX 5 5 -8 -6
BITMAP
F8
88
88
88
F8
ENDCHAR
STARTCHAR 033C
ENCODING 828
SWIDTH 0 0
DWIDTH 0 0
BBX 9 4 -10 -6
BITMAP
7700
FF00
9980
8880
ENDCHAR
STARTCHAR 033D
ENCODING 829
SWIDTH 0 0
DWIDTH 0 0
BBX 5 4 -8 16
BITMAP
D8
70
70
D8
ENDCHAR
STARTCHAR 033E
ENCODING 830
SWIDTH 0 0
DWIDTH 0 0
BBX 4 6 -6 15
BITMAP
70
C0
40
20
30
E0
ENDCHAR
STARTCHAR 033F
ENCODING 831
SWIDTH 0 0
DWIDTH 0 0
BBX 11 6 -11 13
BITMAP
FFE0
FFE0
0000
0000
FFE0
FFE0
ENDCHAR
STARTCHAR 0340
ENCODING 832
SWIDTH 0 0
DWIDTH 0 0
BBX 5 5 -9 15
BITMAP
C0
60
20
30
18
ENDCHAR
STARTCHAR 0341
ENCODING 833
SWIDTH 0 0
DWIDTH 0 0
BBX 5 5 -7 15
BITMAP
18
30
60
40
C0
ENDCHAR
STARTCHAR 0342
ENCODING 834
SWIDTH 0 0
DWIDTH 0 0
BBX 7 3 -9 16
BITMAP
F2
9E
8C
ENDCHAR
STARTCHAR 0343
ENCODING 835
SWIDTH 0 0
DWIDTH 0 0
BBX 3 6 -7 15
BITMAP
E0
E0
E0
60
60
C0
ENDCHAR
STARTCHAR 0344
ENCODING 836
SWIDTH 0 0
DWIDTH 0 0
BBX 7 8 -9 16
BITMAP
06
0C
18
18
30
E6
E6
E6
ENDCHAR
STARTCHAR 0345
ENCODING 837
SWIDTH 0 0
DWIDTH 0 0
BBX 2 4 -6 -5
BITMAP
80
80
80
C0
ENDCHAR
STARTCHAR 0346
ENCODING 838
SWIDTH 0 0
DWIDTH 0 0
BBX 7 4 -9 16
BITMAP
FE
FE
C6
C6
ENDCHAR
STARTCHAR 0347
ENCODING 839
SWIDTH 0 0
DWIDTH 0 0
BBX 5 5 -8 -6
BITMAP
F8
00
00
F8
F8
ENDCHAR
STARTCHAR 0348
ENCODING 840
SWIDTH 0 0
DWIDTH 0 0
BBX 5 5 -8 -6
BITMAP
98
98
98
98
98
ENDCHAR
STARTCHAR 0349
ENCODING 841
SWIDTH 0 0
DWIDTH 0 0
BBX 5 5 -8 -6
BITMAP
F8
18
18
18
18
ENDCHAR
STARTCHAR 034A
ENCODING 842
SWIDTH 0 0
DWIDTH 0 0
BBX 7 5 -9 15
BITMAP
08
F2
9E
AC
20
ENDCHAR
STARTCHAR 034B
ENCODING 843
SWIDTH 0 0
DWIDTH 0 0
BBX 7 7 -9 14
BITMAP
08
08
E2
FE
8C
60
60
ENDCHAR
STARTCHAR 034C
ENCODING 844
SWIDTH 0 0
DWIDTH 0 0
BBX 7 6 -9 15
BITMAP
02
F6
9C
42
F6
9C
ENDCHAR
STARTCHAR 034D
ENCODING 845
SWIDTH 0 0
DWIDTH 0 0
BBX 9 5 -10 -6
BITMAP
6300
C100
FF80
4100
2200
ENDCHAR
STARTCHAR 034E
ENCODING 846
SWIDTH 0 0
DWIDTH 0 0
BBX 5 5 -8 -6
BITMAP
20
70
F8
28
20
ENDCHAR
STARTCHAR 034F
ENCODING 847
SWIDTH 0 0
DWIDTH 0 0
BBX 0 0 0 0
BITMAP
ENDCHAR
STARTCHAR 0351
ENCODING 849
SWIDTH 0 0
DWIDTH 0 0
BBX 3 7 -7 15
BITMAP
60
E0
80
80
C0
60
20
ENDCHAR
STARTCHAR 0352
ENCODING 850
SWIDTH 0 0
DWIDTH 0 0
BBX 7 6 -9 14
BITMAP
30
7C
C4
B6
30
30
ENDCHAR
STARTCHAR 0353
ENCODING 851
SWIDTH 0 0
DWIDTH 0 0
BBX 5 4 -8 -5
BITMAP
D8
70
70
D8
ENDCHAR
STARTCHAR 0357
ENCODING 855
SWIDTH 0 0
DWIDTH 0 0
BBX 3 7 -7 15
BITMAP
80
C0
60
20
60
C0
80
ENDCHAR
STARTCHAR 0358
ENCODING 856
SWIDTH 0 0
DWIDTH 0 0
BBX 2 3 -2 16
BITMAP
C0
C0
C0
ENDCHAR
STARTCHAR 035A
ENCODING 858
SWIDTH 0 0
DWIDTH 0 0
BBX 8 5 -10 -6
BITMAP
7F
DD
C9
7F
76
ENDCHAR
STARTCHAR 035C
ENCODING 860
SWIDTH 0 0
DWIDTH 0 0
BBX 20 4 -10 -5
BITMAP
C00030
7801E0
1FFF80
03FC00
ENDCHAR
STARTCHAR 035D
ENCODING 861
SWIDTH 0 0
DWIDTH 0 0
BBX 20 4 -10 21
BITMAP
C00030
7801E0
1FFF80
03FC00
ENDCHAR
STARTCHAR 035E
ENCODING 862
SWIDTH 0 0
DWIDTH 0 0
BBX 20 2 -10 21
BITMAP
FFFFF0
FFFFF0
ENDCHAR
STARTCHAR 035F
ENCODING 863
SWIDTH 0 0
DWIDTH 0 0
BBX 20 2 -10 -4
BITMAP
FFFFF0
FFFFF0
ENDCHAR
STARTCHAR 0360
ENCODING 864
SWIDTH 0 0
DWIDTH 0 0
BBX 16 3 -8 19
BITMAP
7F03
E3EE
C0FC
ENDCHAR
STARTCHAR 0361
ENCODING 865
SWIDTH 0 0
DWIDTH 0 0
BBX 20 4 -10 19
BITMAP
07FE00
3FFFC0
F000F0
800030
ENDCHAR
STARTCHAR 0362
ENCODING 866
SWIDTH 0 0
DWIDTH 0 0
BBX 20 5 -10 -6
BITMAP
000060
000020
FFFFF0
000020
000040
ENDCHAR
STARTCHAR 0370
ENCODING 880
SWIDTH 600 0
DWIDTH 15 0
BBX 10 18 2 0
BITMAP
C000
C000
C000
C000
C000
C000
C000
FFC0
FFC0
C000
C000
C000
C000
C000
C000
C000
C000
C000
ENDCHAR
STARTCHAR 0371
ENCODING 881
SWIDTH 520 0
DWIDTH 13 0
BBX 9 14 2 0
BITMAP
C000
C000
C000
C000
C000
C000
FF80
FF80
C000
C000
C000
C000
C000
C000
ENDCHAR
STARTCHAR 0372
ENCODING 882
SWIDTH 760 0
DWIDTH 19 0
BBX 15 18 2 0
BITMAP
FFFE
FFFE
C186
C186
C186
C186
C186
C186
C186
0180
0180
0180
0180
0180
0180
0180
0180
0180
ENDCHAR
STARTCHAR 0373
ENCODING 883
SWIDTH 600 0
DWIDTH 15 0
BBX 10 18 2 0
BITMAP
FFC0
FFC0
CCC0
CCC0
CCC0
CCC0
CCC0
CCC0
CCC0
0C00
0C00
0C00
0C00
0C00
0C00
0C00
0C00
0C00
ENDCHAR
STARTCHAR 0374
ENCODING 884
SWIDTH 240 0
DWIDTH 6 0
BBX 2 6 2 14
BITMAP
C0
C0
C0
C0
C0
80
ENDCHAR
STARTCHAR 0375
ENCODING 885
SWIDTH 240 0
DWIDTH 6 0
BBX 3 6 2 -5
BITMAP
60
40
C0
C0
C0
C0
ENDCHAR
STARTCHAR 0376
ENCODING 886
SWIDTH 680 0
DWIDTH 17 0
BBX 13 18 2 0
BITMAP
C078
C078
C0F8
C0F8
C1F8
C1B8
C3B8
C338
C738
C638
C638
CC38
CC38
D838
D838
F038
F038
E038
ENDCHAR
STARTCHAR 0377
ENCODING 887
SWIDTH 600 0
DWIDTH 15 0
BBX 11 14 2 0
BITMAP
C0E0
C1E0
C1E0
C360
C360
C660
C660
CC60
CC60
D860
F860
F060
E060
E060
ENDCHAR
STARTCHAR 037A
ENCODING 890
SWIDTH 440 0
DWIDTH 11 0
BBX 2 4 5 -5
BITMAP
80
80
80
C0
ENDCHAR
STARTCHAR 037B
ENCODING 891
SWIDTH 480 0
DWIDTH 12 0
BBX 10 14 1 0
BITMAP
7E00
FF00
8380
0180
00C0
00C0
00C0
00C0
00C0
00C0
01C0
8380
FF00
FE00
ENDCHAR
STARTCHAR 037C
ENCODING 892
SWIDTH 480 0
DWIDTH 12 0
BBX 10 14 1 0
BITMAP
0F80
3FC0
7040
6000
6000
E000
C600
C600
C600
E000
6000
7000
3FC0
1FC0
ENDCHAR
STARTCHAR 037D
ENCODING 893
SWIDTH 480 0
DWIDTH 12 0
BBX 10 14 1 0
BITMAP
7E00
FF00
8380
0180
00C0
00C0
18C0
18C0
18C0
00C0
01C0
8380
FF00
FE00
ENDCHAR
STARTCHAR 037E
ENCODING 894
SWIDTH 320 0
DWIDTH 8 0
BBX 3 16 2 -3
BITMAP
60
60
60
00
00
00
00
00
00
00
60
60
60
C0
C0
80
ENDCHAR
STARTCHAR 037F
ENCODING 895
SWIDTH 280 0
DWIDTH 7 0
BBX 5 23 -1 -5
BITMAP
18
18
18
18
18
18
18
18
18
18
18
18
18
18
18
18
18
18
18
18
38
F0
E0
ENDCHAR
STARTCHAR 0384
ENCODING 900
SWIDTH 440 0
DWIDTH 11 0
BBX 5 5 4 15
BITMAP
18
30
60
60
C0
ENDCHAR
STARTCHAR 0385
ENCODING 901
SWIDTH 440 0
DWIDTH 11 0
BBX 7 8 2 16
BITMAP
06
0C
18
18
30
E6
E6
E6
ENDCHAR
STARTCHAR 0386
ENCODING 902
SWIDTH 640 0
DWIDTH 16 0
BBX 15 20 0 0
BITMAP
0C00
1800
3380
23C0
67C0
06C0
06E0
0E60
0C60
0C70
1C30
1830
1838
3FF8
3FF8
301C
700C
600C
600E
E006
ENDCHAR
STARTCHAR 0387
ENCODING 903
SWIDTH 280 0
DWIDTH 7 0
BBX 3 3 2 7
BITMAP
E0
E0
E0
ENDCHAR
STARTCHAR 0388
ENCODING 904
SWIDTH 680 0
DWIDTH 17 0
BBX 15 20 0 0
BITMAP
3800
3000
67FE
C7FE
C600
0600
0600
0600
0600
07FE
07FE
0600
0600
0600
0600
0600
0600
0600
07FE
07FE
ENDCHAR
STARTCHAR 0389
ENCODING 905
SWIDTH 800 0
DWIDTH 20 0
BBX 17 20 0 0
BITMAP
180000
300000
660180
460180
C60180
060180
060180
060180
060180
07FF80
07FF80
060180
060180
060180
060180
060180
060180
060180
060180
060180
ENDCHAR
STARTCHAR 038A
ENCODING 906
SWIDTH 360 0
DWIDTH 9 0
BBX 7 20 0 0
BITMAP
18
30
66
46
C6
06
06
06
06
06
06
06
06
06
06
06
06
06
06
06
ENDCHAR
STARTCHAR 038C
ENCODING 908
SWIDTH 720 0
DWIDTH 18 0
BBX 17 20 0 0
BITMAP
180000
304000
67F800
4FBC00
DC0E00
180700
380300
300300
300380
300380
300180
300180
300380
300380
380300
380300
1C0700
0E0E00
0FFC00
03F800
ENDCHAR
STARTCHAR 038E
ENCODING 910
SWIDTH 760 0
DWIDTH 19 0
BBX 18 20 0 0
BITMAP
380000
300000
6600C0
C30180
838380
018300
00C700
00E600
006C00
007C00
003800
003800
003800
003800
003800
003800
003800
003800
003800
003800
ENDCHAR
STARTCHAR 038F
ENCODING 911
SWIDTH 760 0
DWIDTH 19 0
BBX 17 20 0 0
BITMAP
300000
300000
67F800
CFFC00
9C0E00
180700
380300
300300
300380
300380
300380
300380
300380
300300
180700
1C0600
0C0E00
071C00
7F3F80
7F3F80
ENDCHAR
STARTCHAR 0390
ENCODING 912
SWIDTH 320 0
DWIDTH 8 0
BBX 7 24 0 0
BITMAP
0E
0C
18
30
30
CE
CE
CE
00
00
30
30
30
30
30
30
30
30
30
30
30
30
1E
0E
ENDCHAR
STARTCHAR 0391
ENCODING 913
SWIDTH 600 0
DWIDTH 15 0
BBX 15 18 0 0
BITMAP
0380
03C0
07C0
06C0
06E0
0E60
0C60
0C70
1C30
1830
1838
3FF8
3FF8
301C
700C
600C
600E
E006
ENDCHAR
STARTCHAR 0392
ENCODING 914
SWIDTH 600 0
DWIDTH 15 0
BBX 12 18 2 0
BITMAP
FF80
FFC0
C0E0
C060
C060
C060
C0E0
FFC0
FF80
C0E0
C060
C070
C070
C070
C070
C0E0
FFE0
FF80
ENDCHAR
STARTCHAR 0393
ENCODING 915
SWIDTH 520 0
DWIDTH 13 0
BBX 10 18 2 0
BITMAP
FFC0
FFC0
C000
C000
C000
C000
C000
C000
C000
C000
C000
C000
C000
C000
C000
C000
C000
C000
ENDCHAR
STARTCHAR 0394
ENCODING 916
SWIDTH 600 0
DWIDTH 15 0
BBX 15 18 0 0
BITMAP
0380
03C0
07C0
06C0
06E0
0E60
0C60
0C70
1C30
1830
1838
3818
3018
301C
700C
600C
7FFE
FFFE
ENDCHAR
STARTCHAR 0395
ENCODING 917
SWIDTH 560 0
DWIDTH 14 0
BBX 11 18 2 0
BITMAP
FFE0
FFE0
C000
C000
C000
C000
C000
FFC0
FFC0
C000
C000
C000
C000
C000
C000
C000
FFE0
FFE0
ENDCHAR
STARTCHAR 0396
ENCODING 918
SWIDTH 600 0
DWIDTH 15 0
BBX 13 18 1 0
BITMAP
FFF8
FFF8
0038
0070
00E0
00C0
01C0
0380
0300
0600
0E00
1C00
1800
3800
7000
E000
FFF8
FFF8
ENDCHAR
STARTCHAR 0397
ENCODING 919
SWIDTH 680 0
DWIDTH 17 0
BBX 13 18 2 0
BITMAP
C038
C038
C038
C038
C038
C038
C038
FFF8
FFF8
C038
C038
C038
C038
C038
C038
C038
C038
C038
ENDCHAR
STARTCHAR 0398
ENCODING 920
SWIDTH 720 0
DWIDTH 18 0
BBX 15 19 1 0
BITMAP
0180
0FF0
1EF8
381C
700C
600E
6006
E006
EFF6
EFF6
E006
E006
E006
6006
700E
700C
381C
1FF8
0FE0
ENDCHAR
STARTCHAR 0399
ENCODING 921
SWIDTH 280 0
DWIDTH 7 0
BBX 2 18 2 0
BITMAP
C0
C0
C0
C0
C0
C0
C0
C0
C0
C0
C0
C0
C0
C0
C0
C0
C0
C0
ENDCHAR
STARTCHAR 039A
ENCODING 922
SWIDTH 600 0
DWIDTH 15 0
BBX 13 18 2 0
BITMAP
C070
C0E0
C1C0
C380
C700
CE00
DC00
F800
F800
DC00
CC00
CE00
C700
C380
C1C0
C0E0
C070
C038
ENDCHAR
STARTCHAR 039B
ENCODING 923
SWIDTH 600 0
DWIDTH 15 0
BBX 15 18 0 0
BITMAP
0380
03C0
07C0
06C0
06E0
0E60
0C60
0C70
1C30
1830
1838
3818
3018
301C
700C
600C
600E
E006
ENDCHAR
STARTCHAR 039C
ENCODING 924
SWIDTH 760 0
DWIDTH 19 0
BBX 15 18 2 0
BITMAP
F00E
F01E
D01E
D81E
D836
C836
CC36
CC66
C466
C666
C6C6
C2C6
C3C6
C386
C186
C006
C006
C006
ENDCHAR
STARTCHAR 039D
ENCODING 925
SWIDTH 680 0
DWIDTH 17 0
BBX 13 18 2 0
BITMAP
F038
F038
F838
D838
D838
CC38
CC38
C638
C638
C338
C338
C1B8
C1B8
C1F8
C0F8
C0F8
C078
C078
ENDCHAR
STARTCHAR 039E
ENCODING 926
SWIDTH 560 0
DWIDTH 14 0
BBX 10 18 2 0
BITMAP
FFC0
FFC0
0000
0000
0000
0000
0000
7F80
7F80
0000
0000
0000
0000
0000
0000
0000
FFC0
FFC0
ENDCHAR
STARTCHAR 039F
ENCODING 927
SWIDTH 720 0
DWIDTH 18 0
BBX 15 19 1 0
BITMAP
0180
0FF0
1EF8
381C
700C
600E
6006
E006
E006
E006
E006
E006
E006
6006
700E
700C
381C
1FF8
0FE0
ENDCHAR
STARTCHAR 03A0
ENCODING 928
SWIDTH 680 0
DWIDTH 17 0
BBX 13 18 2 0
BITMAP
FFF8
FFF8
C038
C038
C038
C038
C038
C038
C038
C038
C038
C038
C038
C038
C038
C038
C038
C038
ENDCHAR
STARTCHAR 03A1
ENCODING 929
SWIDTH 560 0
DWIDTH 14 0
BBX 11 18 2 0
BITMAP
FF00
FFC0
C1C0
C0E0
C0E0
C0E0
C0E0
C0C0
C3C0
FF80
FC00
C000
C000
C000
C000
C000
C000
C000
ENDCHAR
STARTCHAR 03A3
ENCODING 931
SWIDTH 560 0
DWIDTH 14 0
BBX 11 18 2 0
BITMAP
FFE0
FFE0
6000
3000
3800
1C00
0E00
0600
0700
0600
0E00
1C00
1800
3000
7000
E000
FFE0
FFE0
ENDCHAR
STARTCHAR 03A4
ENCODING 932
SWIDTH 560 0
DWIDTH 14 0
BBX 14 18 0 0
BITMAP
FFFC
FFFC
0300
0300
0300
0300
0300
0300
0300
0300
0300
0300
0300
0300
0300
0300
0300
0300
ENDCHAR
STARTCHAR 03A5
ENCODING 933
SWIDTH 560 0
DWIDTH 14 0
BBX 13 18 0 0
BITMAP
E018
6038
3030
3870
1860
1CC0
0DC0
0780
0780
0300
0300
0300
0300
0300
0300
0300
0300
0300
ENDCHAR
STARTCHAR 03A6
ENCODING 934
SWIDTH 720 0
DWIDTH 18 0
BBX 15 18 1 0
BITMAP
0180
0180
0FF0
3FF8
399C
718E
6186
E186
E186
E186
E186
6186
718E
399C
1FF8
0FE0
0180
0180
ENDCHAR
STARTCHAR 03A7
ENCODING 935
SWIDTH 600 0
DWIDTH 15 0
BBX 13 18 1 0
BITMAP
6018
7030
3070
1860
1CE0
0DC0
0F80
0780
0700
0780
0F80
0DC0
18C0
3860
3070
7030
6038
C018
ENDCHAR
STARTCHAR 03A8
ENCODING 936
SWIDTH 720 0
DWIDTH 18 0
BBX 15 18 1 0
BITMAP
E186
E186
E186
E186
E186
E186
E186
E186
6186
718E
319C
39BC
1FF8
0FE0
0180
0180
0180
0180
ENDCHAR
STARTCHAR 03A9
ENCODING 937
SWIDTH 680 0
DWIDTH 17 0
BBX 15 18 1 0
BITMAP
0FE0
1FF8
3838
701C
600E
E006
C006
C006
C006
C006
E006
600E
600C
701C
3838
1C70
FC7E
FC7E
ENDCHAR
STARTCHAR 03AA
ENCODING 938
SWIDTH 280 0
DWIDTH 7 0
BBX 7 23 0 0
BITMAP
CE
CE
00
00
00
30
30
30
30
30
30
30
30
30
30
30
30
30
30
30
30
30
30
ENDCHAR
STARTCHAR 03AB
ENCODING 939
SWIDTH 560 0
DWIDTH 14 0
BBX 13 23 0 0
BITMAP
0CC0
0CC0
0000
0000
0000
E018
6038
3030
3870
1860
1CC0
0DC0
0780
0780
0300
0300
0300
0300
0300
0300
0300
0300
0300
ENDCHAR
STARTCHAR 03AC
ENCODING 940
SWIDTH 600 0
DWIDTH 15 0
BBX 13 20 1 0
BITMAP
0180
0300
0300
0600
0C00
0000
1E30
3FB0
71B0
61A0
E0E0
E0E0
C0C0
C0C0
C0C0
E0C0
61E0
61E0
3F78
1F38
ENDCHAR
STARTCHAR 03AD
ENCODING 941
SWIDTH 480 0
DWIDTH 12 0
BBX 10 20 1 0
BITMAP
0180
0300
0600
0600
0C00
0000
1F80
7F80
7000
6000
6000
7000
1E00
3E00
6000
E000
C000
6000
7FC0
3FC0
ENDCHAR
STARTCHAR 03AE
ENCODING 942
SWIDTH 560 0
DWIDTH 14 0
BBX 10 25 2 -5
BITMAP
0180
0300
0300
0600
0C00
0000
CF00
DF80
F1C0
E0C0
C0C0
C0C0
C0C0
C0C0
C0C0
C0C0
C0C0
C0C0
C0C0
C0C0
00C0
00C0
00C0
00C0
00C0
ENDCHAR
STARTCHAR 03AF
ENCODING 943
SWIDTH 320 0
DWIDTH 8 0
BBX 5 20 2 0
BITMAP
18
30
60
60
C0
00
C0
C0
C0
C0
C0
C0
C0
C0
C0
C0
C0
C0
78
38
ENDCHAR
STARTCHAR 03B0
ENCODING 944
SWIDTH 520 0
DWIDTH 13 0
BBX 10 24 2 0
BITMAP
0600
0C00
0C00
1800
3000
6600
6600
6600
0000
0000
C300
C180
C180
C180
C0C0
C0C0
C0C0
C1C0
C180
C180
C180
C300
FF00
7E00
ENDCHAR
STARTCHAR 03B1
ENCODING 945
SWIDTH 600 0
DWIDTH 15 0
BBX 13 14 1 0
BITMAP
1E30
3FB0
71B0
61A0
E0E0
E0E0
C0C0
C0C0
C0C0
E0C0
61E0
61E0
3F78
1F38
ENDCHAR
STARTCHAR 03B2
ENCODING 946
SWIDTH 560 0
DWIDTH 14 0
BBX 11 24 2 -5
BITMAP
3F00
7F80
6180
C180
C0C0
C1C0
C180
C380
CF00
CF80
C3C0
C0C0
C060
C060
C060
C0E0
E0C0
FFC0
DF80
C000
C000
C000
C000
C000
ENDCHAR
STARTCHAR 03B3
ENCODING 947
SWIDTH 520 0
DWIDTH 13 0
BBX 13 19 0 -5
BITMAP
C038
F030
7030
3070
1860
1860
18C0
0CC0
0CC0
0D80
0780
0780
0700
0700
0300
0300
0300
0300
0300
ENDCHAR
STARTCHAR 03B4
ENCODING 948
SWIDTH 560 0
DWIDTH 14 0
BBX 12 19 1 0
BITMAP
0200
3FC0
38C0
7000
3000
3E00
1F80
31C0
60E0
6060
E060
C070
C070
C060
E060
6060
70E0
3FC0
1F80
ENDCHAR
STARTCHAR 03B5
ENCODING 949
SWIDTH 480 0
DWIDTH 12 0
BBX 10 14 1 0
BITMAP
1F80
7F80
7000
6000
6000
7000
1E00
3E00
6000
E000
C000
6000
7FC0
3FC0
ENDCHAR
STARTCHAR 03B6
ENCODING 950
SWIDTH 480 0
DWIDTH 12 0
BBX 10 24 1 -5
BITMAP
7FC0
7FC0
03C0
0700
0E00
1C00
3800
7000
6000
6000
C000
C000
C000
C000
C000
6000
7000
3E00
1F80
01C0
00C0
00C0
01C0
0180
ENDCHAR
STARTCHAR 03B7
ENCODING 951
SWIDTH 560 0
DWIDTH 14 0
BBX 10 19 2 -5
BITMAP
CF00
DF80
F1C0
E0C0
C0C0
C0C0
C0C0
C0C0
C0C0
C0C0
C0C0
C0C0
C0C0
C0C0
00C0
00C0
00C0
00C0
00C0
ENDCHAR
STARTCHAR 03B8
ENCODING 952
SWIDTH 560 0
DWIDTH 14 0
BBX 12 19 1 0
BITMAP
1F00
3F80
30C0
60E0
6060
6060
E060
C060
FFF0
FFF0
C070
C060
E060
6060
6060
60E0
30C0
3F80
1F00
ENDCHAR
STARTCHAR 03B9
ENCODING 953
SWIDTH 320 0
DWIDTH 8 0
BBX 5 14 2 0
BITMAP
C0
C0
C0
C0
C0
C0
C0
C0
C0
C0
C0
C0
78
38
ENDCHAR
STARTCHAR 03BA
ENCODING 954
SWIDTH 520 0
DWIDTH 13 0
BBX 10 14 2 0
BITMAP
C1C0
C380
C700
C600
CC00
D800
FC00
EC00
C600
C700
C300
C180
C1C0
C0C0
ENDCHAR
STARTCHAR 03BB
ENCODING 955
SWIDTH 520 0
DWIDTH 13 0
BBX 11 19 1 0
BITMAP
7800
7C00
0C00
0C00
0600
0600
0600
0F00
0F00
0F00
1980
1980
3980
30C0
30C0
60C0
6060
C060
C060
ENDCHAR
STARTCHAR 03BC
ENCODING 956
SWIDTH 560 0
DWIDTH 14 0
BBX 12 19 2 -5
BITMAP
C0C0
C0C0
C0C0
C0C0
C0C0
C0C0
C0C0
C0C0
C0C0
C0C0
C0C0
E1C0
FFF0
DE70
C000
C000
C000
C000
C000
ENDCHAR
STARTCHAR 03BD
ENCODING 957
SWIDTH 520 0
DWIDTH 13 0
BBX 11 14 1 0
BITMAP
C180
C180
E0C0
60C0
60C0
60E0
30C0
30C0
31C0
3980
1B00
1F00
1E00
1C00
ENDCHAR
STARTCHAR 03BE
ENCODING 958
SWIDTH 520 0
DWIDTH 13 0
BBX 10 24 1 -5
BITMAP
7FC0
7FC0
1C00
7000
6000
6000
6000
7000
3F00
1F00
3C00
6000
C000
C000
C000
E000
6000
7E00
1F80
00C0
00C0
00C0
01C0
0180
ENDCHAR
STARTCHAR 03BF
ENCODING 959
SWIDTH 560 0
DWIDTH 14 0
BBX 12 14 1 0
BITMAP
1F00
3FC0
70C0
6060
6060
E060
C070
C070
C060
E060
6060
70E0
3FC0
1F80
ENDCHAR
STARTCHAR 03C0
ENCODING 960
SWIDTH 560 0
DWIDTH 14 0
BBX 12 14 1 0
BITMAP
FFF0
FFF0
FFF0
60C0
60C0
60C0
60C0
60C0
60C0
60C0
60C0
60C0
60E0
60F0
ENDCHAR
STARTCHAR 03C1
ENCODING 961
SWIDTH 560 0
DWIDTH 14 0
BBX 11 19 2 -5
BITMAP
1F00
3F80
71C0
60C0
C060
C060
C060
C060
C060
C060
E0E0
E0C0
FFC0
DF80
C000
C000
C000
C000
C000
ENDCHAR
STARTCHAR 03C2
ENCODING 962
SWIDTH 520 0
DWIDTH 13 0
BBX 10 19 1 -5
BITMAP
0F80
3FC0
7040
6000
6000
E000
C000
C000
C000
E000
6000
7000
3E00
1F80
0180
00C0
00C0
0380
0380
ENDCHAR
STARTCHAR 03C3
ENCODING 963
SWIDTH 560 0
DWIDTH 14 0
BBX 13 14 1 0
BITMAP
07F8
3FF8
71F8
60E0
6060
E060
C070
C070
C060
E060
6060
70E0
3FC0
1F80
ENDCHAR
STARTCHAR 03C4
ENCODING 964
SWIDTH 560 0
DWIDTH 14 0
BBX 11 14 1 0
BITMAP
FFE0
FFE0
FFE0
0600
0600
0600
0600
0600
0600
0600
0600
0600
07C0
03C0
ENDCHAR
STARTCHAR 03C5
ENCODING 965
SWIDTH 520 0
DWIDTH 13 0
BBX 10 14 2 0
BITMAP
C300
C180
C180
C180
C0C0
C0C0
C0C0
C1C0
C180
C180
C180
C300
FF00
7E00
ENDCHAR
STARTCHAR 03C6
ENCODING 966
SWIDTH 600 0
DWIDTH 15 0
BBX 13 19 1 -5
BITMAP
0980
3BE0
7770
6630
E630
E630
C638
C638
C630
E630
6630
7670
3FE0
1FC0
0600
0600
0600
0600
0600
ENDCHAR
STARTCHAR 03C7
ENCODING 967
SWIDTH 520 0
DWIDTH 13 0
BBX 11 19 1 -5
BITMAP
C060
E0E0
70C0
31C0
1980
1B80
1B00
0F00
0E00
0E00
0E00
1E00
1E00
3B00
3300
7300
6180
E1E0
C0E0
ENDCHAR
STARTCHAR 03C8
ENCODING 968
SWIDTH 600 0
DWIDTH 15 0
BBX 13 19 1 -5
BITMAP
C638
C638
C638
C638
C638
C638
C638
C638
C638
C630
E630
6670
3FE0
1FC0
0600
0600
0600
0600
0600
ENDCHAR
STARTCHAR 03C9
ENCODING 969
SWIDTH 760 0
DWIDTH 19 0
BBX 16 14 1 0
BITMAP
300E
3006
7006
6007
6003
6003
E183
E183
6183
61C3
61C3
7147
3F7E
3E7C
ENDCHAR
STARTCHAR 03CA
ENCODING 970
SWIDTH 320 0
DWIDTH 8 0
BBX 7 19 0 0
BITMAP
CE
CE
CE
00
00
30
30
30
30
30
30
30
30
30
30
30
30
1E
0E
ENDCHAR
STARTCHAR 03CB
ENCODING 971
SWIDTH 520 0
DWIDTH 13 0
BBX 10 19 2 0
BITMAP
6600
6600
6600
0000
0000
C300
C180
C180
C180
C0C0
C0C0
C0C0
C1C0
C180
C180
C180
C300
FF00
7E00
ENDCHAR
STARTCHAR 03CC
ENCODING 972
SWIDTH 560 0
DWIDTH 14 0
BBX 12 20 1 0
BITMAP
0180
0180
0300
0600
0400
0000
1F00
3FC0
70C0
6060
6060
E060
C070
C070
C060
E060
6060
70E0
3FC0
1F80
ENDCHAR
STARTCHAR 03CD
ENCODING 973
SWIDTH 520 0
DWIDTH 13 0
BBX 10 20 2 0
BITMAP
0600
0600
0C00
1800
1000
0000
C300
C180
C180
C180
C0C0
C0C0
C0C0
C1C0
C180
C180
C180
C300
FF00
7E00
ENDCHAR
STARTCHAR 03CE
ENCODING 974
SWIDTH 760 0
DWIDTH 19 0
BBX 16 20 1 0
BITMAP
0030
0060
00C0
0080
0180
0000
300E
3006
7006
6007
6003
6003
E183
E183
6183
61C3
61C3
7147
3F7E
3E7C
ENDCHAR
STARTCHAR 03CF
ENCODING 975
SWIDTH 600 0
DWIDTH 15 0
BBX 13 23 2 -5
BITMAP
C070
C0E0
C1C0
C380
C700
CE00
DC00
F800
F800
DC00
CC00
CE00
C700
C380
C1C0
C0E0
C070
C038
0018
0030
0060
0060
00C0
ENDCHAR
STARTCHAR 03D0
ENCODING 976
SWIDTH 560 0
DWIDTH 14 0
BBX 10 19 2 0
BITMAP
1E00
3F00
6180
6180
C180
C180
C180
C300
FF00
FF00
C380
C1C0
C0C0
C0C0
C0C0
60C0
61C0
3F80
1F00
ENDCHAR
STARTCHAR 03D1
ENCODING 977
SWIDTH 560 0
DWIDTH 14 0
BBX 12 19 1 0
BITMAP
0F80
1FC0
18C0
3060
3060
3060
3860
1860
DFF0
CFF0
C070
C060
C060
6060
6060
60E0
30C0
3F80
1F00
ENDCHAR
STARTCHAR 03D2
ENCODING 978
SWIDTH 640 0
DWIDTH 16 0
BBX 14 18 1 0
BITMAP
F038
F87C
1CFC
0DCC
0780
0780
0700
0700
0300
0300
0300
0300
0300
0300
0300
0300
0300
0300
ENDCHAR
STARTCHAR 03D3
ENCODING 979
SWIDTH 760 0
DWIDTH 19 0
BBX 19 20 0 0
BITMAP
380000
300000
6783C0
C7C7E0
80E6E0
006CC0
006C00
003800
003800
003800
003800
003800
003800
003800
003800
003800
003800
003800
003800
003800
ENDCHAR
STARTCHAR 03D4
ENCODING 980
SWIDTH 640 0
DWIDTH 16 0
BBX 14 23 1 0
BITMAP
0CC0
0CC0
0000
0000
0000
F038
F87C
1CFC
0DCC
0780
0780
0700
0700
0300
0300
0300
0300
0300
0300
0300
0300
0300
0300
ENDCHAR
STARTCHAR 03D5
ENCODING 981
SWIDTH 600 0
DWIDTH 15 0
BBX 13 24 1 -5
BITMAP
0600
0600
0600
0600
0600
1F80
3FE0
7660
6630
6630
C630
C638
C638
C630
E630
6630
7670
3FE0
1FC0
0600
0600
0600
0600
0600
ENDCHAR
STARTCHAR 03D6
ENCODING 982
SWIDTH 760 0
DWIDTH 19 0
BBX 17 14 1 0
BITMAP
FFFF80
FFFF80
FFFF80
600700
600300
600300
E18300
E18300
618300
61C300
61C300
714700
3F7E00
3E7C00
ENDCHAR
STARTCHAR 03D7
ENCODING 983
SWIDTH 600 0
DWIDTH 15 0
BBX 12 19 1 -5
BITMAP
6010
F830
DC70
8CF0
0CE0
0CC0
0F80
0F80
1D80
3980
7180
7190
E0F0
C0F0
0030
0030
0060
03E0
03C0
ENDCHAR
STARTCHAR 03D8
ENCODING 984
SWIDTH 720 0
DWIDTH 18 0
BBX 15 24 1 -5
BITMAP
0180
0FF0
1EF8
381C
700C
600E
6006
E006
E006
E006
E006
E006
E006
6006
700E
700C
381C
1FF8
0FE0
0180
0180
0180
0180
0180
ENDCHAR
STARTCHAR 03D9
ENCODING 985
SWIDTH 560 0
DWIDTH 14 0
BBX 12 19 1 -5
BITMAP
1F00
3FC0
70C0
6060
6060
E060
C070
C070
C060
E060
6060
70E0
3FC0
1F80
0600
0600
0600
0600
0600
ENDCHAR
STARTCHAR 03DA
ENCODING 986
SWIDTH 600 0
DWIDTH 15 0
BBX 11 23 2 -5
BITMAP
1FE0
3FE0
7000
6000
E000
C000
C000
C000
C000
C000
C000
C000
C000
C000
E000
7000
3E00
1F80
0180
0180
0180
0380
0300
ENDCHAR
STARTCHAR 03DB
ENCODING 987
SWIDTH 520 0
DWIDTH 13 0
BBX 11 19 1 -5
BITMAP
07E0
1FE0
3800
6000
6000
E000
C000
C000
C000
E000
6000
7000
3C00
1F00
0380
0180
0180
0380
0300
ENDCHAR
STARTCHAR 03DC
ENCODING 988
SWIDTH 520 0
DWIDTH 13 0
BBX 10 18 2 0
BITMAP
FFC0
FFC0
C000
C000
C000
C000
C000
FF80
FF80
C000
C000
C000
C000
C000
C000
C000
C000
C000
ENDCHAR
STARTCHAR 03DD
ENCODING 989
SWIDTH 400 0
DWIDTH 10 0
BBX 11 24 -2 -5
BITMAP
01E0
03E0
0700
0600
0600
0600
0600
0600
0600
07C0
0600
0600
0600
0600
0600
0600
0600
0600
0600
0600
0C00
0C00
F800
F000
ENDCHAR
STARTCHAR 03DE
ENCODING 990
SWIDTH 600 0
DWIDTH 15 0
BBX 12 18 2 0
BITMAP
E000
F000
3000
3000
3010
3060
30E0
63E0
6FC0
7CC0
70C0
C0C0
0180
0180
0180
0180
01E0
00E0
ENDCHAR
STARTCHAR 03DF
ENCODING 991
SWIDTH 600 0
DWIDTH 15 0
BBX 11 19 2 0
BITMAP
1800
1800
3000
3000
3000
3000
6000
6000
7FE0
FFC0
00C0
00C0
01C0
0180
0180
0180
0300
0300
0300
ENDCHAR
STARTCHAR 03E0
ENCODING 992
SWIDTH 760 0
DWIDTH 19 0
BBX 17 24 1 -5
BITMAP
020000
3FF000
7FF800
EC1C00
8C0E00
0C0600
0C0F00
0C1B00
0C3300
0C6380
006380
006180
006180
006180
006180
006180
006380
006380
006380
000300
000300
000700
000600
000E00
ENDCHAR
STARTCHAR 03E1
ENCODING 993
SWIDTH 560 0
DWIDTH 14 0
BBX 12 19 1 -5
BITMAP
E000
F800
1C00
0E00
0700
0300
0380
0780
0CC0
1DC0
1B60
3360
6660
6C20
0030
0030
0030
0030
0030
ENDCHAR
STARTCHAR 03E2
ENCODING 994
SWIDTH 840 0
DWIDTH 21 0
BBX 19 23 1 -5
BITMAP
180300
380380
300180
7001C0
6000C0
6000C0
E000C0
E0E0E0
E0E0E0
E0E0E0
E0E0E0
E0E0E0
E0E0E0
60E0C0
71B1C0
7FBFC0
3FBF80
1F1F80
000700
001E00
003C00
01F000
03C000
ENDCHAR
STARTCHAR 03E3
ENCODING 995
SWIDTH 760 0
DWIDTH 19 0
BBX 16 19 1 -5
BITMAP
300E
3006
7007
6007
6003
6003
E183
E183
6183
61C3
61C7
7B6F
3F7E
1E3E
001C
0038
0070
01E0
0780
ENDCHAR
STARTCHAR 03E4
ENCODING 996
SWIDTH 680 0
DWIDTH 17 0
BBX 14 23 1 -4
BITMAP
0E1C
1E1C
381C
701C
701C
601C
E01C
E01C
E01C
E01C
E01C
E01C
601C
701C
703C
3C7C
1FFC
0FDC
001C
001C
001C
001C
001C
ENDCHAR
STARTCHAR 03E5
ENCODING 997
SWIDTH 600 0
DWIDTH 15 0
BBX 12 19 1 -5
BITMAP
0C30
3C30
3030
6030
6030
C030
C030
C030
C030
E070
6070
70F0
3FB0
1FB0
0030
0030
0030
0030
0030
ENDCHAR
STARTCHAR 03E6
ENCODING 998
SWIDTH 720 0
DWIDTH 18 0
BBX 15 23 2 -5
BITMAP
C000
C000
C000
C000
C7C0
CFF0
DEF8
F038
E01C
E00C
E00C
C00E
C00E
C00C
C00C
C00C
C01C
C038
0078
00F0
03E0
1F80
1E00
ENDCHAR
STARTCHAR 03E7
ENCODING 999
SWIDTH 560 0
DWIDTH 14 0
BBX 12 14 1 0
BITMAP
1F30
3FB0
71E0
60E0
61E0
67E0
7F60
1C70
0070
0070
0060
20E0
FFC0
BF80
ENDCHAR
STARTCHAR 03E8
ENCODING 1000
SWIDTH 600 0
DWIDTH 15 0
BBX 13 24 1 -5
BITMAP
0600
1FE0
3FF0
7070
7038
E038
0018
0018
0038
0038
0070
0070
00E0
03C0
0780
0F00
1E00
3C00
7000
E000
7008
3C78
1FF0
0FC0
ENDCHAR
STARTCHAR 03E9
ENCODING 1001
SWIDTH 560 0
DWIDTH 14 0
BBX 11 19 1 -5
BITMAP
1F00
3FC0
70E0
6060
0060
0060
0060
0060
00C0
01C0
0380
0F00
1C00
3800
F000
6000
3020
1FE0
0F80
ENDCHAR
STARTCHAR 03EA
ENCODING 1002
SWIDTH 680 0
DWIDTH 17 0
BBX 15 19 1 0
BITMAP
4004
F01E
F81E
1830
0C70
0E60
06E0
07C0
0380
0380
03C0
07C0
06E0
0C60
1C30
1838
3018
FFFE
FFFE
ENDCHAR
STARTCHAR 03EB
ENCODING 1003
SWIDTH 560 0
DWIDTH 14 0
BBX 12 14 1 0
BITMAP
E070
F0F0
38C0
1980
0F80
0F00
0600
0F00
0F80
1980
38C0
70E0
FFF0
FFF0
ENDCHAR
STARTCHAR 03EC
ENCODING 1004
SWIDTH 640 0
DWIDTH 16 0
BBX 13 19 1 0
BITMAP
0008
0FF8
3FF0
3000
6000
67C0
7FE0
F870
F038
E018
E018
E018
C018
E018
6018
6038
7070
3FF0
1FC0
ENDCHAR
STARTCHAR 03ED
ENCODING 1005
SWIDTH 560 0
DWIDTH 14 0
BBX 11 19 1 0
BITMAP
0040
1FC0
3F80
7000
6000
6F00
5F80
F1C0
E0E0
E060
C060
C060
C060
C060
C060
6060
60C0
3FC0
1F80
ENDCHAR
STARTCHAR 03EE
ENCODING 1006
SWIDTH 560 0
DWIDTH 14 0
BBX 13 23 0 -5
BITMAP
0300
0300
0300
0300
FFF8
FFF8
E318
E318
0300
0300
0300
0300
0300
0300
0300
0300
0300
0300
0300
0300
0300
0300
0300
ENDCHAR
STARTCHAR 03EF
ENCODING 1007
SWIDTH 480 0
DWIDTH 12 0
BBX 10 23 1 -5
BITMAP
0C00
0C00
0C00
0C00
FFC0
FFC0
CC40
0C00
0C00
0C00
0C00
0C00
0C00
0C00
0C00
0C00
0C00
0C00
0C00
0C00
0C00
0C00
0C00
ENDCHAR
STARTCHAR 03F0
ENCODING 1008
SWIDTH 600 0
DWIDTH 15 0
BBX 12 14 1 0
BITMAP
6010
F830
DC70
8CF0
0CE0
0CC0
0F80
0F80
1D80
3980
7180
7190
E1F0
C0F0
ENDCHAR
STARTCHAR 03F1
ENCODING 1009
SWIDTH 560 0
DWIDTH 14 0
BBX 11 19 2 -5
BITMAP
1F00
3F80
71C0
60C0
C060
C060
C060
C060
C060
C060
E0E0
E0C0
FFC0
DF80
C000
6000
6000
3FE0
1FE0
ENDCHAR
STARTCHAR 03F2
ENCODING 1010
SWIDTH 480 0
DWIDTH 12 0
BBX 10 14 1 0
BITMAP
0F80
3FC0
7040
6000
6000
E000
C000
C000
C000
E000
6000
7000
3FC0
1FC0
ENDCHAR
STARTCHAR 03F3
ENCODING 1011
SWIDTH 240 0
DWIDTH 6 0
BBX 4 24 0 -5
BITMAP
30
30
30
00
00
30
30
30
30
30
30
30
30
30
30
30
30
30
30
30
30
30
F0
E0
ENDCHAR
STARTCHAR 03F4
ENCODING 1012
SWIDTH 720 0
DWIDTH 18 0
BBX 15 19 1 0
BITMAP
0180
0FF0
1FF8
381C
700C
600E
6006
E006
FFFE
FFFE
E006
E006
E006
6006
700E
700C
381C
1FF8
0FE0
ENDCHAR
STARTCHAR 03F5
ENCODING 1013
SWIDTH 560 0
DWIDTH 14 0
BBX 10 14 1 0
BITMAP
0FC0
3FC0
7000
6000
6000
C000
FFC0
FFC0
C000
E000
6000
7000
3FC0
1FC0
ENDCHAR
STARTCHAR 03F6
ENCODING 1014
SWIDTH 560 0
DWIDTH 14 0
BBX 10 14 2 0
BITMAP
FC00
FF00
0300
0180
0180
01C0
FFC0
FFC0
00C0
0180
0180
0380
FF00
FE00
ENDCHAR
STARTCHAR 03F7
ENCODING 1015
SWIDTH 560 0
DWIDTH 14 0
BBX 11 18 2 0
BITMAP
C000
C000
C000
FF00
FF80
C1C0
C0E0
C0E0
C0E0
C0E0
C0E0
C1C0
FF80
FF00
C000
C000
C000
C000
ENDCHAR
STARTCHAR 03F8
ENCODING 1016
SWIDTH 560 0
DWIDTH 14 0
BBX 11 24 2 -5
BITMAP
C000
C000
C000
C000
C000
CF00
DF80
F1C0
E0C0
C060
C060
C060
C060
C060
C060
E0E0
E0C0
FFC0
DF80
C000
C000
C000
C000
C000
ENDCHAR
STARTCHAR 03F9
ENCODING 1017
SWIDTH 640 0
DWIDTH 16 0
BBX 13 19 1 0
BITMAP
0080
0FF0
1F78
3808
7000
6000
6000
E000
E000
E000
E000
E000
E000
6000
7000
7000
3808
1FF8
0FF0
ENDCHAR
STARTCHAR 03FA
ENCODING 1018
SWIDTH 760 0
DWIDTH 19 0
BBX 15 18 2 0
BITMAP
F01E
F81E
D83E
DC76
CE66
C7E6
C3C6
C386
C006
C006
C006
C006
C006
C006
C006
C006
C006
C006
ENDCHAR
STARTCHAR 03FB
ENCODING 1019
SWIDTH 600 0
DWIDTH 15 0
BBX 12 19 1 -5
BITMAP
F070
F0F0
F8F0
D9F0
CDB0
CF30
C730
C630
C030
C030
C030
C030
C030
C030
C000
C000
C000
C000
C000
ENDCHAR
STARTCHAR 03FC
ENCODING 1020
SWIDTH 560 0
DWIDTH 14 0
BBX 12 19 1 -5
BITMAP
0F80
1FC0
38E0
3060
6030
6030
6030
6030
6030
6030
7070
7060
7FE0
6FC0
6000
6000
FF00
FF00
6000
ENDCHAR
STARTCHAR 03FD
ENCODING 1021
SWIDTH 640 0
DWIDTH 16 0
BBX 13 19 1 0
BITMAP
0400
7FC0
FBE0
C070
8030
0038
0018
0018
0018
0018
0018
0018
0018
0018
0038
8030
C0F0
FFE0
3F80
ENDCHAR
STARTCHAR 03FE
ENCODING 1022
SWIDTH 640 0
DWIDTH 16 0
BBX 13 19 1 0
BITMAP
0080
0FF0
1F78
3808
7000
6000
6000
E000
E000
E0C0
E0C0
E0C0
E000
6000
7000
7000
3808
1FF8
0FF0
ENDCHAR
STARTCHAR 03FF
ENCODING 1023
SWIDTH 640 0
DWIDTH 16 0
BBX 13 19 1 0
BITMAP
0400
7FC0
FBE0
C070
8030
0038
0018
0018
0018
0C18
0C18
0C18
0018
0018
0038
8030
C0F0
FFE0
3F80
ENDCHAR
STARTCHAR 0400
ENCODING 1024
SWIDTH 560 0
DWIDTH 14 0
BBX 11 24 2 0
BITMAP
0C00
0C00
0600
0300
0000
0000
FFE0
FFE0
C000
C000
C000
C000
C000
FFC0
FFC0
C000
C000
C000
C000
C000
C000
C000
FFE0
FFE0
ENDCHAR
STARTCHAR 0401
ENCODING 1025
SWIDTH 560 0
DWIDTH 14 0
BBX 11 23 2 0
BITMAP
3380
3380
0000
0000
0000
FFE0
FFE0
C000
C000
C000
C000
C000
FFC0
FFC0
C000
C000
C000
C000
C000
C000
C000
FFE0
FFE0
ENDCHAR
STARTCHAR 0402
ENCODING 1026
SWIDTH 720 0
DWIDTH 18 0
BBX 16 23 0 -5
BITMAP
FFF8
FFF8
0600
0600
0600
0600
0600
07F8
07FE
060E
0607
0603
0603
0603
0603
0603
0603
0603
0003
0007
0006
003E
003C
ENDCHAR
STARTCHAR 0403
ENCODING 1027
SWIDTH 560 0
DWIDTH 14 0
BBX 10 24 2 0
BITMAP
0300
0600
0600
0C00
0000
0000
FFC0
FFC0
C000
C000
C000
C000
C000
C000
C000
C000
C000
C000
C000
C000
C000
C000
C000
C000
ENDCHAR
STARTCHAR 0404
ENCODING 1028
SWIDTH 640 0
DWIDTH 16 0
BBX 13 19 1 0
BITMAP
0080
0FF0
1F78
3808
7000
6000
6000
E000
E000
FFE0
FFE0
E000
E000
6000
6000
7000
3808
1FF8
0FF0
ENDCHAR
STARTCHAR 0405
ENCODING 1029
SWIDTH 560 0
DWIDTH 14 0
BBX 12 19 1 0
BITMAP
0200
3FE0
7DE0
6020
6000
E000
6000
7000
7E00
3FC0
07E0
00F0
0070
0030
0030
0070
4070
7FE0
7FC0
ENDCHAR
STARTCHAR 0406
ENCODING 1030
SWIDTH 280 0
DWIDTH 7 0
BBX 2 18 2 0
BITMAP
C0
C0
C0
C0
C0
C0
C0
C0
C0
C0
C0
C0
C0
C0
C0
C0
C0
C0
ENDCHAR
STARTCHAR 0407
ENCODING 1031
SWIDTH 280 0
DWIDTH 7 0
BBX 7 23 0 0
BITMAP
CE
CE
00
00
00
30
30
30
30
30
30
30
30
30
30
30
30
30
30
30
30
30
30
ENDCHAR
STARTCHAR 0408
ENCODING 1032
SWIDTH 280 0
DWIDTH 7 0
BBX 5 23 -1 -5
BITMAP
18
18
18
18
18
18
18
18
18
18
18
18
18
18
18
18
18
18
18
18
38
F0
E0
ENDCHAR
STARTCHAR 0409
ENCODING 1033
SWIDTH 1000 0
DWIDTH 25 0
BBX 22 18 1 0
BITMAP
0FFC00
0FFC00
0C1C00
0C1C00
0C1C00
0C1C00
0C1C00
0C1FC0
0C1FF0
0C1C38
0C1C1C
1C1C0C
181C0C
181C0C
381C1C
701C38
E01FF8
C01FE0
ENDCHAR
STARTCHAR 040A
ENCODING 1034
SWIDTH 960 0
DWIDTH 24 0
BBX 20 18 2 0
BITMAP
C07000
C07000
C07000
C07000
C07000
C07000
C07000
FFFF00
FFFFC0
C070E0
C07070
C07070
C07030
C07030
C07070
C070E0
C07FE0
C07F80
ENDCHAR
STARTCHAR 040B
ENCODING 1035
SWIDTH 720 0
DWIDTH 18 0
BBX 16 18 0 0
BITMAP
FFF8
FFF8
0600
0600
0600
0600
0600
07F8
07FE
060E
0607
0603
0603
0603
0603
0603
0603
0603
ENDCHAR
STARTCHAR 040C
ENCODING 1036
SWIDTH 640 0
DWIDTH 16 0
BBX 13 24 2 0
BITMAP
0180
0300
0600
0400
0000
0000
C038
C070
C0E0
C1C0
C380
C700
CE00
CE00
DF00
FB00
F180
E1C0
C0C0
C0E0
C060
C030
C038
C018
ENDCHAR
STARTCHAR 040D
ENCODING 1037
SWIDTH 680 0
DWIDTH 17 0
BBX 13 24 2 0
BITMAP
0C00
0C00
0600
0300
0000
0000
C078
C078
C0F8
C0F8
C1F8
C1B8
C3B8
C338
C738
C638
C638
CC38
CC38
D838
D838
F038
F038
E038
ENDCHAR
STARTCHAR 040E
ENCODING 1038
SWIDTH 560 0
DWIDTH 14 0
BBX 12 24 1 0
BITMAP
3080
1980
1F00
0000
0000
0000
C030
C070
E060
6060
70E0
30C0
31C0
3980
1980
1B80
1F00
0F00
0E00
0600
0E00
0C00
7C00
7800
ENDCHAR
STARTCHAR 040F
ENCODING 1039
SWIDTH 680 0
DWIDTH 17 0
BBX 13 22 2 -4
BITMAP
C038
C038
C038
C038
C038
C038
C038
C038
C038
C038
C038
C038
C038
C038
C038
C038
FFF8
FFF8
0200
0200
0200
0200
ENDCHAR
STARTCHAR 0410
ENCODING 1040
SWIDTH 600 0
DWIDTH 15 0
BBX 15 18 0 0
BITMAP
0380
03C0
07C0
06C0
06E0
0E60
0C60
0C70
1C30
1830
1838
3FF8
3FF8
301C
700C
600C
600E
E006
ENDCHAR
STARTCHAR 0411
ENCODING 1041
SWIDTH 600 0
DWIDTH 15 0
BBX 12 18 2 0
BITMAP
FFE0
FFE0
C000
C000
C000
C000
C000
FF00
FFC0
C1E0
C070
C070
C070
C070
C070
C0E0
FFE0
FF80
ENDCHAR
STARTCHAR 0412
ENCODING 1042
SWIDTH 600 0
DWIDTH 15 0
BBX 12 18 2 0
BITMAP
FF80
FFC0
C0E0
C060
C060
C060
C0E0
FFC0
FF80
C0E0
C060
C070
C070
C070
C070
C0E0
FFE0
FF80
ENDCHAR
STARTCHAR 0413
ENCODING 1043
SWIDTH 560 0
DWIDTH 14 0
BBX 10 18 2 0
BITMAP
FFC0
FFC0
C000
C000
C000
C000
C000
C000
C000
C000
C000
C000
C000
C000
C000
C000
C000
C000
ENDCHAR
STARTCHAR 0414
ENCODING 1044
SWIDTH 720 0
DWIDTH 18 0
BBX 15 22 1 -4
BITMAP
0FFC
0FFC
0C1C
0C1C
0C1C
0C1C
0C1C
0C1C
0C1C
0C1C
1C1C
1C1C
181C
181C
381C
301C
FFFE
FFFE
C002
C002
C002
C002
ENDCHAR
STARTCHAR 0415
ENCODING 1045
SWIDTH 560 0
DWIDTH 14 0
BBX 11 18 2 0
BITMAP
FFE0
FFE0
C000
C000
C000
C000
C000
FFC0
FFC0
C000
C000
C000
C000
C000
C000
C000
FFE0
FFE0
ENDCHAR
STARTCHAR 0416
ENCODING 1046
SWIDTH 960 0
DWIDTH 24 0
BBX 23 18 1 0
BITMAP
E0301C
703038
383070
1C3060
0C30C0
0631C0
073380
07B780
07FF80
0EFCC0
0C7CC0
1C3860
183070
303030
703038
603018
E0300C
C0300E
ENDCHAR
STARTCHAR 0417
ENCODING 1047
SWIDTH 560 0
DWIDTH 14 0
BBX 12 19 1 0
BITMAP
0400
7FC0
7FE0
0060
0070
0070
0060
00E0
1FC0
1F80
01E0
0060
0030
0030
0030
0070
C0E0
FFC0
7F80
ENDCHAR
STARTCHAR 0418
ENCODING 1048
SWIDTH 680 0
DWIDTH 17 0
BBX 13 18 2 0
BITMAP
C078
C078
C0F8
C0F8
C1F8
C1B8
C3B8
C338
C738
C638
C638
CC38
CC38
D838
D838
F038
F038
E038
ENDCHAR
STARTCHAR 0419
ENCODING 1049
SWIDTH 680 0
DWIDTH 17 0
BBX 13 24 2 0
BITMAP
10C0
1980
0F80
0000
0000
0000
C078
C078
C0F8
C0F8
C1F8
C1B8
C3B8
C338
C738
C638
C638
CC38
CC38
D838
D838
F038
F038
E038
ENDCHAR
STARTCHAR 041A
ENCODING 1050
SWIDTH 640 0
DWIDTH 16 0
BBX 13 18 2 0
BITMAP
C038
C070
C0E0
C1C0
C380
C700
CE00
CE00
DF00
FB00
F180
E1C0
C0C0
C0E0
C060
C030
C038
C018
ENDCHAR
STARTCHAR 041B
ENCODING 1051
SWIDTH 680 0
DWIDTH 17 0
BBX 14 18 1 0
BITMAP
0FFC
0FFC
0C1C
0C1C
0C1C
0C1C
0C1C
0C1C
0C1C
0C1C
0C1C
1C1C
181C
181C
381C
701C
E01C
C01C
ENDCHAR
STARTCHAR 041C
ENCODING 1052
SWIDTH 760 0
DWIDTH 19 0
BBX 15 18 2 0
BITMAP
F00E
F01E
D01E
D81E
D836
C836
CC36
CC66
C466
C666
C6C6
C2C6
C3C6
C386
C186
C006
C006
C006
ENDCHAR
STARTCHAR 041D
ENCODING 1053
SWIDTH 680 0
DWIDTH 17 0
BBX 13 18 2 0
BITMAP
C038
C038
C038
C038
C038
C038
C038
FFF8
FFF8
C038
C038
C038
C038
C038
C038
C038
C038
C038
ENDCHAR
STARTCHAR 041E
ENCODING 1054
SWIDTH 720 0
DWIDTH 18 0
BBX 15 19 1 0
BITMAP
0180
0FF0
1EF8
381C
700C
600E
6006
E006
E006
E006
E006
E006
E006
6006
700E
700C
381C
1FF8
0FE0
ENDCHAR
STARTCHAR 041F
ENCODING 1055
SWIDTH 680 0
DWIDTH 17 0
BBX 13 18 2 0
BITMAP
FFF8
FFF8
C038
C038
C038
C038
C038
C038
C038
C038
C038
C038
C038
C038
C038
C038
C038
C038
ENDCHAR
STARTCHAR 0420
ENCODING 1056
SWIDTH 560 0
DWIDTH 14 0
BBX 11 18 2 0
BITMAP
FF00
FFC0
C1C0
C0E0
C0E0
C0E0
C0E0
C0C0
C3C0
FF80
FC00
C000
C000
C000
C000
C000
C000
C000
ENDCHAR
STARTCHAR 0421
ENCODING 1057
SWIDTH 640 0
DWIDTH 16 0
BBX 13 19 1 0
BITMAP
0080
0FF0
1F78
3808
7000
6000
6000
E000
E000
E000
E000
E000
E000
6000
7000
7000
3808
1FF8
0FF0
ENDCHAR
STARTCHAR 0422
ENCODING 1058
SWIDTH 560 0
DWIDTH 14 0
BBX 14 18 0 0
BITMAP
FFFC
FFFC
0300
0300
0300
0300
0300
0300
0300
0300
0300
0300
0300
0300
0300
0300
0300
0300
ENDCHAR
STARTCHAR 0423
ENCODING 1059
SWIDTH 560 0
DWIDTH 14 0
BBX 12 18 1 0
BITMAP
C030
C070
E060
6060
70E0
30C0
31C0
3980
1980
1B80
1F00
0F00
0E00
0600
0E00
0C00
7C00
7800
ENDCHAR
STARTCHAR 0424
ENCODING 1060
SWIDTH 760 0
DWIDTH 19 0
BBX 17 18 1 0
BITMAP
00C000
01C000
0FFC00
3FFE00
78C700
70C300
60C380
E0C180
E0C180
E0C180
E0C380
60C380
70C700
3CDE00
1FFC00
03F000
00C000
00C000
ENDCHAR
STARTCHAR 0425
ENCODING 1061
SWIDTH 600 0
DWIDTH 15 0
BBX 13 18 1 0
BITMAP
6018
7030
3070
1860
1CE0
0DC0
0F80
0780
0700
0780
0F80
0DC0
18C0
3860
3070
7030
6038
C018
ENDCHAR
STARTCHAR 0426
ENCODING 1062
SWIDTH 680 0
DWIDTH 17 0
BBX 15 22 2 -4
BITMAP
C038
C038
C038
C038
C038
C038
C038
C038
C038
C038
C038
C038
C038
C038
C038
C038
FFFE
FFFE
0006
0006
0006
0006
ENDCHAR
STARTCHAR 0427
ENCODING 1063
SWIDTH 600 0
DWIDTH 15 0
BBX 11 18 2 0
BITMAP
C060
C060
C060
C060
C060
C060
C060
E060
7FE0
3FE0
0FE0
0060
0060
0060
0060
0060
0060
0060
ENDCHAR
STARTCHAR 0428
ENCODING 1064
SWIDTH 960 0
DWIDTH 24 0
BBX 20 18 2 0
BITMAP
C06030
C06030
C06030
C06030
C06030
C06030
C06030
C06030
C06030
C06030
C06030
C06030
C06030
C06030
C06030
C06030
FFFFF0
FFFFF0
ENDCHAR
STARTCHAR 0429
ENCODING 1065
SWIDTH 1000 0
DWIDTH 25 0
BBX 22 22 2 -4
BITMAP
C06030
C06030
C06030
C06030
C06030
C06030
C06030
C06030
C06030
C06030
C06030
C06030
C06030
C06030
C06030
C06030
FFFFFC
FFFFFC
00000C
00000C
00000C
00000C
ENDCHAR
STARTCHAR 042A
ENCODING 1066
SWIDTH 760 0
DWIDTH 19 0
BBX 16 18 1 0
BITMAP
FE00
FE00
0E00
0E00
0E00
0E00
0E00
0FF0
0FFE
0E0E
0E07
0E03
0E03
0E03
0E07
0E0F
0FFE
0FF8
ENDCHAR
STARTCHAR 042B
ENCODING 1067
SWIDTH 800 0
DWIDTH 20 0
BBX 16 18 2 0
BITMAP
C007
C007
C007
C007
C007
C007
C007
FF07
FFC7
C0E7
C077
C077
C077
C077
C077
C0E7
FFE7
FF87
ENDCHAR
STARTCHAR 042C
ENCODING 1068
SWIDTH 600 0
DWIDTH 15 0
BBX 12 18 2 0
BITMAP
C000
C000
C000
C000
C000
C000
C000
FF00
FFC0
C0E0
C070
C070
C070
C070
C070
C0E0
FFE0
FF80
ENDCHAR
STARTCHAR 042D
ENCODING 1069
SWIDTH 640 0
DWIDTH 16 0
BBX 13 19 1 0
BITMAP
0400
7FC0
FBE0
C070
8030
0038
0018
0018
0018
3FF8
3FF8
0018
0018
0018
0038
8030
C070
FFE0
3F80
ENDCHAR
STARTCHAR 042E
ENCODING 1070
SWIDTH 960 0
DWIDTH 24 0
BBX 21 19 2 0
BITMAP
000400
E03F80
E0FBE0
E0C0E0
E1C070
E18030
E38038
E30038
E30018
FF0018
FF0018
E30018
E30038
E38038
E18030
E1C070
E0E0E0
E07FC0
E03F80
ENDCHAR
STARTCHAR 042F
ENCODING 1071
SWIDTH 640 0
DWIDTH 16 0
BBX 11 18 2 0
BITMAP
3FE0
7FE0
6060
E060
E060
E060
E060
6060
7FE0
1FE0
0C60
1C60
1860
3060
7060
6060
E060
C060
ENDCHAR
STARTCHAR 0430
ENCODING 1072
SWIDTH 560 0
DWIDTH 14 0
BBX 11 14 1 0
BITMAP
3F00
7F80
41C0
00C0
0060
07E0
3FE0
7060
6060
C0E0
C0E0
61E0
7F60
3E60
ENDCHAR
STARTCHAR 0431
ENCODING 1073
SWIDTH 560 0
DWIDTH 14 0
BBX 12 19 1 0
BITMAP
0FC0
1FC0
3800
6000
6000
CF00
FFC0
F0E0
E060
E060
E070
E070
C070
E070
6060
6060
70E0
3FC0
1F80
ENDCHAR
STARTCHAR 0432
ENCODING 1074
SWIDTH 520 0
DWIDTH 13 0
BBX 10 14 2 0
BITMAP
FC00
FF00
C380
C180
C180
C380
FE00
FF80
C1C0
C0C0
C0C0
C1C0
FF80
FF00
ENDCHAR
STARTCHAR 0433
ENCODING 1075
SWIDTH 480 0
DWIDTH 12 0
BBX 9 14 2 0
BITMAP
FF80
FF80
C000
C000
C000
C000
C000
C000
C000
C000
C000
C000
C000
C000
ENDCHAR
STARTCHAR 0434
ENCODING 1076
SWIDTH 640 0
DWIDTH 16 0
BBX 13 17 1 -3
BITMAP
1FF0
1FF0
1830
1830
1830
1830
1830
1830
1830
1830
3830
3030
FFF8
FFF8
C008
C008
C008
ENDCHAR
STARTCHAR 0435
ENCODING 1077
SWIDTH 560 0
DWIDTH 14 0
BBX 12 14 1 0
BITMAP
0F80
3FC0
70E0
6060
6060
C030
FFF0
FFF0
C000
E000
6000
7000
3FE0
1FE0
ENDCHAR
STARTCHAR 0436
ENCODING 1078
SWIDTH 800 0
DWIDTH 20 0
BBX 18 14 1 0
BITMAP
60C1C0
70C180
38C300
18C600
0CCC00
06DC00
0FFC00
0FFE00
19E600
38C300
30C300
60C180
60C1C0
C0C0C0
ENDCHAR
STARTCHAR 0437
ENCODING 1079
SWIDTH 480 0
DWIDTH 12 0
BBX 10 14 1 0
BITMAP
7E00
7F80
0180
0180
0180
0380
1E00
1F80
0180
00C0
00C0
0180
FF80
FF00
ENDCHAR
STARTCHAR 0438
ENCODING 1080
SWIDTH 600 0
DWIDTH 15 0
BBX 11 14 2 0
BITMAP
C0E0
C1E0
C1E0
C360
C360
C660
C660
CC60
CC60
D860
F860
F060
E060
E060
ENDCHAR
STARTCHAR 0439
ENCODING 1081
SWIDTH 600 0
DWIDTH 15 0
BBX 11 19 2 0
BITMAP
2180
3180
3F00
0E00
0000
C0E0
C1E0
C1E0
C360
C360
C660
C660
CC60
CC60
D860
F860
F060
E060
E060
ENDCHAR
STARTCHAR 043A
ENCODING 1082
SWIDTH 560 0
DWIDTH 14 0
BBX 11 14 2 0
BITMAP
C0C0
C180
C300
C600
CE00
DC00
FC00
FE00
E600
C300
C380
C180
C0C0
C0E0
ENDCHAR
STARTCHAR 043B
ENCODING 1083
SWIDTH 560 0
DWIDTH 14 0
BBX 12 14 1 0
BITMAP
1FF0
1FF0
1870
1870
1870
1870
1870
1870
1870
1870
3070
7070
E070
C070
ENDCHAR
STARTCHAR 043C
ENCODING 1084
SWIDTH 680 0
DWIDTH 17 0
BBX 13 14 2 0
BITMAP
E038
E038
F078
F078
D8D8
D8D8
C898
CD98
CD98
C718
C718
C018
C018
C018
ENDCHAR
STARTCHAR 043D
ENCODING 1085
SWIDTH 600 0
DWIDTH 15 0
BBX 11 14 2 0
BITMAP
C060
C060
C060
C060
C060
C060
FFE0
FFE0
C060
C060
C060
C060
C060
C060
ENDCHAR
STARTCHAR 043E
ENCODING 1086
SWIDTH 560 0
DWIDTH 14 0
BBX 12 14 1 0
BITMAP
1F00
3FC0
70C0
6060
6060
E060
C070
C070
C060
E060
6060
70E0
3FC0
1F80
ENDCHAR
STARTCHAR 043F
ENCODING 1087
SWIDTH 600 0
DWIDTH 15 0
BBX 11 14 2 0
BITMAP
FFE0
FFE0
C060
C060
C060
C060
C060
C060
C060
C060
C060
C060
C060
C060
ENDCHAR
STARTCHAR 0440
ENCODING 1088
SWIDTH 560 0
DWIDTH 14 0
BBX 11 19 2 -5
BITMAP
CF00
DF80
F1C0
E0C0
C060
C060
C060
C060
C060
C060
E0E0
E0C0
FFC0
DF80
C000
C000
C000
C000
C000
ENDCHAR
STARTCHAR 0441
ENCODING 1089
SWIDTH 480 0
DWIDTH 12 0
BBX 10 14 1 0
BITMAP
0F80
3FC0
7040
6000
6000
E000
C000
C000
C000
E000
6000
7000
3FC0
1FC0
ENDCHAR
STARTCHAR 0442
ENCODING 1090
SWIDTH 520 0
DWIDTH 13 0
BBX 11 14 1 0
BITMAP
FFE0
FFE0
0600
0600
0600
0600
0600
0600
0600
0600
0600
0600
0600
0600
ENDCHAR
STARTCHAR 0443
ENCODING 1091
SWIDTH 520 0
DWIDTH 13 0
BBX 12 19 1 -5
BITMAP
C070
C060
E060
60E0
60C0
30C0
3180
3180
1980
1B00
1B00
0F00
0E00
0600
0E00
0C00
0C00
7800
7800
ENDCHAR
STARTCHAR 0444
ENCODING 1092
SWIDTH 760 0
DWIDTH 19 0
BBX 17 23 1 -5
BITMAP
00C000
00C000
00C000
00C000
1CDC00
3EFE00
73E300
61C300
E0C180
C0C180
C0C180
C0C180
C0C180
C0C180
60C380
61C300
3EFF00
3EFE00
00C000
00C000
00C000
00C000
00C000
ENDCHAR
STARTCHAR 0445
ENCODING 1093
SWIDTH 520 0
DWIDTH 13 0
BBX 11 14 1 0
BITMAP
E060
60E0
31C0
3980
1B80
0F00
0E00
0E00
1F00
1B80
3180
70C0
60E0
C060
ENDCHAR
STARTCHAR 0446
ENCODING 1094
SWIDTH 600 0
DWIDTH 15 0
BBX 12 17 2 -3
BITMAP
C060
C060
C060
C060
C060
C060
C060
C060
C060
C060
C060
C060
FFF0
FFF0
0010
0010
0010
ENDCHAR
STARTCHAR 0447
ENCODING 1095
SWIDTH 520 0
DWIDTH 13 0
BBX 9 14 2 0
BITMAP
C180
C180
C180
C180
C180
C180
FF80
7F80
0180
0180
0180
0180
0180
0180
ENDCHAR
STARTCHAR 0448
ENCODING 1096
SWIDTH 840 0
DWIDTH 21 0
BBX 17 14 2 0
BITMAP
C18180
C18180
C18180
C18180
C18180
C18180
C18180
C18180
C18180
C18180
C18180
C18180
FFFF80
FFFF80
ENDCHAR
STARTCHAR 0449
ENCODING 1097
SWIDTH 840 0
DWIDTH 21 0
BBX 18 17 2 -3
BITMAP
C18180
C18180
C18180
C18180
C18180
C18180
C18180
C18180
C18180
C18180
C18180
C18180
FFFFC0
FFFFC0
000040
000040
000040
ENDCHAR
STARTCHAR 044A
ENCODING 1098
SWIDTH 640 0
DWIDTH 16 0
BBX 14 14 1 0
BITMAP
FC00
FC00
0C00
0C00
0C00
0C00
0FF0
0FF8
0C18
0C1C
0C1C
0C18
0FF8
0FE0
ENDCHAR
STARTCHAR 044B
ENCODING 1099
SWIDTH 720 0
DWIDTH 18 0
BBX 14 14 2 0
BITMAP
C00C
C00C
C00C
C00C
C00C
C00C
FF0C
FF8C
C1CC
C0CC
C0CC
C1CC
FF8C
FF0C
ENDCHAR
STARTCHAR 044C
ENCODING 1100
SWIDTH 520 0
DWIDTH 13 0
BBX 10 14 2 0
BITMAP
C000
C000
C000
C000
C000
C000
FF00
FF80
C1C0
C0C0
C0C0
C1C0
FF80
FF00
ENDCHAR
STARTCHAR 044D
ENCODING 1101
SWIDTH 480 0
DWIDTH 12 0
BBX 10 14 1 0
BITMAP
7C00
FF00
8380
0180
01C0
00C0
3FC0
3FC0
00C0
00C0
0180
0380
FF00
FE00
ENDCHAR
STARTCHAR 044E
ENCODING 1102
SWIDTH 760 0
DWIDTH 19 0
BBX 16 14 2 0
BITMAP
C0F0
C3FC
C30E
C606
C606
CE07
FE03
FE03
CE07
C606
C606
C70E
C3FC
C1F8
ENDCHAR
STARTCHAR 044F
ENCODING 1103
SWIDTH 560 0
DWIDTH 14 0
BBX 10 14 2 0
BITMAP
1FC0
7FC0
E0C0
C0C0
C0C0
E0C0
7FC0
3FC0
18C0
30C0
70C0
60C0
C0C0
C0C0
ENDCHAR
STARTCHAR 0450
ENCODING 1104
SWIDTH 560 0
DWIDTH 14 0
BBX 12 20 1 0
BITMAP
3000
1800
0C00
0400
0600
0000
0F80
3FC0
70E0
6060
6060
C030
FFF0
FFF0
C000
E000
6000
7000
3FE0
1FE0
ENDCHAR
STARTCHAR 0451
ENCODING 1105
SWIDTH 560 0
DWIDTH 14 0
BBX 12 19 1 0
BITMAP
19C0
19C0
19C0
0000
0000
0F80
3FC0
70E0
6060
6060
C030
FFF0
FFF0
C000
E000
6000
7000
3FE0
1FE0
ENDCHAR
STARTCHAR 0452
ENCODING 1106
SWIDTH 560 0
DWIDTH 14 0
BBX 12 24 1 -5
BITMAP
6000
6000
6000
6000
6000
FF80
FF80
6000
6000
6000
67C0
6FE0
7860
7070
7030
6030
6030
6030
6060
0060
00C0
01C0
0380
0200
ENDCHAR
STARTCHAR 0453
ENCODING 1107
SWIDTH 480 0
DWIDTH 12 0
BBX 9 20 2 0
BITMAP
0300
0300
0600
0C00
0800
0000
FF80
FF80
C000
C000
C000
C000
C000
C000
C000
C000
C000
C000
C000
C000
ENDCHAR
STARTCHAR 0454
ENCODING 1108
SWIDTH 480 0
DWIDTH 12 0
BBX 10 14 1 0
BITMAP
0F80
3FC0
7040
6000
6000
E000
FF80
FF80
C000
E000
6000
7000
3FC0
1FC0
ENDCHAR
STARTCHAR 0455
ENCODING 1109
SWIDTH 480 0
DWIDTH 12 0
BBX 10 14 1 0
BITMAP
3F00
7F80
6080
C000
C000
6000
7E00
1F80
0380
01C0
00C0
8180
FF80
FF00
ENDCHAR
STARTCHAR 0456
ENCODING 1110
SWIDTH 240 0
DWIDTH 6 0
BBX 2 19 2 0
BITMAP
C0
C0
C0
00
00
C0
C0
C0
C0
C0
C0
C0
C0
C0
C0
C0
C0
C0
C0
ENDCHAR
STARTCHAR 0457
ENCODING 1111
SWIDTH 240 0
DWIDTH 6 0
BBX 6 19 0 0
BITMAP
CC
CC
CC
00
00
30
30
30
30
30
30
30
30
30
30
30
30
30
30
ENDCHAR
STARTCHAR 0458
ENCODING 1112
SWIDTH 240 0
DWIDTH 6 0
BBX 4 24 0 -5
BITMAP
30
30
30
00
00
30
30
30
30
30
30
30
30
30
30
30
30
30
30
30
30
30
F0
E0
ENDCHAR
STARTCHAR 0459
ENCODING 1113
SWIDTH 800 0
DWIDTH 20 0
BBX 18 14 1 0
BITMAP
1FE000
1FE000
186000
186000
186000
186000
187F00
187F80
1861C0
1860C0
3060C0
7061C0
E07F80
C07F00
ENDCHAR
STARTCHAR 045A
ENCODING 1114
SWIDTH 800 0
DWIDTH 20 0
BBX 17 14 2 0
BITMAP
C0C000
C0C000
C0C000
C0C000
C0C000
C0C000
FFFE00
FFFF00
C0C380
C0C180
C0C180
C0C380
C0FF00
C0FE00
ENDCHAR
STARTCHAR 045B
ENCODING 1115
SWIDTH 600 0
DWIDTH 15 0
BBX 12 19 1 0
BITMAP
6000
6000
6000
6000
6000
FF80
FF80
6000
6000
6000
67C0
6FE0
7860
7030
7030
6030
6030
6030
6030
ENDCHAR
STARTCHAR 045C
ENCODING 1116
SWIDTH 560 0
DWIDTH 14 0
BBX 11 20 2 0
BITMAP
0300
0600
0600
0C00
1800
0000
C0C0
C180
C300
C600
CE00
DC00
FC00
FE00
E600
C300
C380
C180
C0C0
C0E0
ENDCHAR
STARTCHAR 045D
ENCODING 1117
SWIDTH 600 0
DWIDTH 15 0
BBX 11 20 2 0
BITMAP
6000
3000
1800
0800
0C00
0000
C0E0
C1E0
C1E0
C360
C360
C660
C660
CC60
CC60
D860
F860
F060
E060
E060
ENDCHAR
STARTCHAR 045E
ENCODING 1118
SWIDTH 520 0
DWIDTH 13 0
BBX 12 24 1 -5
BITMAP
3080
3180
1F00
0E00
0000
C070
C060
E060
60E0
60C0
30C0
3180
3180
1980
1B00
1B00
0F00
0E00
0600
0E00
0C00
0C00
7800
7800
ENDCHAR
STARTCHAR 045F
ENCODING 1119
SWIDTH 600 0
DWIDTH 15 0
BBX 11 17 2 -3
BITMAP
C060
C060
C060
C060
C060
C060
C060
C060
C060
C060
C060
C060
FFE0
FFE0
0400
0400
0400
ENDCHAR
STARTCHAR 0460
ENCODING 1120
SWIDTH 840 0
DWIDTH 21 0
BBX 19 18 1 0
BITMAP
180300
380380
300180
7001C0
6000C0
6000C0
E000C0
E0E0E0
E0E0E0
E0E0E0
E0E0E0
E0E0E0
E0E0E0
60E0C0
71B1C0
7FBFC0
3FBF80
1F1F00
ENDCHAR
STARTCHAR 0461
ENCODING 1121
SWIDTH 760 0
DWIDTH 19 0
BBX 16 14 1 0
BITMAP
300E
3006
7006
6007
6003
6003
E183
E183
6183
61C3
61C3
7147
3F7E
3E7C
ENDCHAR
STARTCHAR 0462
ENCODING 1122
SWIDTH 680 0
DWIDTH 17 0
BBX 16 18 0 0
BITMAP
0E00
0E00
0E00
FFE0
FFE0
0E00
0E00
0FF0
0FFC
0E0E
0E07
0E03
0E03
0E03
0E07
0E0E
0FFE
0FF8
ENDCHAR
STARTCHAR 0463
ENCODING 1123
SWIDTH 600 0
DWIDTH 15 0
BBX 14 19 0 0
BITMAP
0C00
0C00
0C00
0C00
0C00
FFE0
FFE0
0C00
0C00
0C00
0C00
0FF0
0FF8
0C1C
0C0C
0C0C
0C1C
0FF8
0FF0
ENDCHAR
STARTCHAR 0464
ENCODING 1124
SWIDTH 840 0
DWIDTH 21 0
BBX 18 19 2 0
BITMAP
000800
E07F80
E1FFC0
E380C0
E38000
E70000
E70000
E60000
FFFE00
FFFE00
E60000
E60000
E60000
E70000
E30000
E38040
E1C0C0
E0FFC0
E07F80
ENDCHAR
STARTCHAR 0465
ENCODING 1125
SWIDTH 680 0
DWIDTH 17 0
BBX 13 14 2 0
BITMAP
C1F8
C3F8
C700
CE00
CC00
CC00
FFE0
FFE0
CC00
CC00
CE00
C600
C7F8
C1F8
ENDCHAR
STARTCHAR 0466
ENCODING 1126
SWIDTH 800 0
DWIDTH 20 0
BBX 19 18 0 0
BITMAP
00E000
00F000
01F000
01B800
039800
031C00
070C00
070E00
060600
0FFF00
0FFF00
1C6380
186180
3861C0
3060C0
7060C0
6060E0
E06060
ENDCHAR
STARTCHAR 0467
ENCODING 1127
SWIDTH 720 0
DWIDTH 18 0
BBX 16 14 1 0
BITMAP
0180
03C0
03C0
06E0
0660
0C70
1C30
1FF8
3FF8
318C
718C
6186
E186
C183
ENDCHAR
STARTCHAR 0468
ENCODING 1128
SWIDTH 1040 0
DWIDTH 26 0
BBX 23 18 2 0
BITMAP
C00E00
C00F00
C01F00
C01B80
C03980
C031C0
C070C0
FFE0E0
FFE060
C0FFF0
C0FFF0
C1C638
C18618
C38618
C3061C
C7060C
C6060E
CE0606
ENDCHAR
STARTCHAR 0469
ENCODING 1129
SWIDTH 920 0
DWIDTH 23 0
BBX 20 14 2 0
BITMAP
C01800
C03800
C03C00
C06C00
C0E600
C0C700
FFC300
FFFF80
C3FF80
C319C0
C618C0
C61860
CC1860
CC1830
ENDCHAR
STARTCHAR 046A
ENCODING 1130
SWIDTH 720 0
DWIDTH 18 0
BBX 15 18 1 0
BITMAP
7FFE
3FFC
381C
1818
1C38
0C30
0E70
06E0
07E0
0FF0
1FF8
399C
718C
618E
6186
E186
E186
E186
ENDCHAR
STARTCHAR 046B
ENCODING 1131
SWIDTH 560 0
DWIDTH 14 0
BBX 12 14 1 0
BITMAP
FFF0
7FE0
70C0
30C0
3980
1980
1F00
1F80
3FC0
76E0
6660
E660
C660
C670
ENDCHAR
STARTCHAR 046C
ENCODING 1132
SWIDTH 920 0
DWIDTH 23 0
BBX 20 18 2 0
BITMAP
C3FFE0
C3FFE0
C181C0
C1C1C0
C0C380
C0E300
C06700
FFF600
FFFE00
C07F00
C1FF80
C399C0
C318E0
C71860
C61860
C61870
C61870
C61870
ENDCHAR
STARTCHAR 046D
ENCODING 1133
SWIDTH 760 0
DWIDTH 19 0
BBX 15 14 2 0
BITMAP
CFFE
C7FE
C60C
C31C
C318
C1B8
FFB0
FFF0
C3FC
C76C
C66E
CC66
CC66
CC66
ENDCHAR
STARTCHAR 046E
ENCODING 1134
SWIDTH 560 0
DWIDTH 14 0
BBX 12 28 1 -5
BITMAP
11C0
1900
0B00
0A00
0E00
7F80
7FC0
00E0
0060
0060
0060
00E0
0FC0
0F80
03C0
0060
0060
0070
0060
0060
00E0
7FC0
7F80
C000
C000
E000
7FC0
3FC0
ENDCHAR
STARTCHAR 046F
ENCODING 1135
SWIDTH 480 0
DWIDTH 12 0
BBX 10 24 1 -5
BITMAP
2180
2300
3200
1600
1400
7E00
7F80
0180
0180
0180
0780
1E00
1F80
0180
00C0
00C0
0180
7F80
FF00
C000
C000
C000
7F00
1D00
ENDCHAR
STARTCHAR 0470
ENCODING 1136
SWIDTH 760 0
DWIDTH 19 0
BBX 19 18 0 0
BITMAP
00C0E0
E0C1E0
60C380
60C300
70C300
30C600
30C600
18C600
18CC00
18CC00
0CCC00
0CD800
0FF800
07F800
00C000
00C000
00C000
00C000
ENDCHAR
STARTCHAR 0471
ENCODING 1137
SWIDTH 800 0
DWIDTH 20 0
BBX 18 24 1 -5
BITMAP
018000
018000
018000
018000
018000
C181C0
C183C0
C18700
618600
618600
618E00
318C00
318C00
319C00
199800
199800
19B800
0FF000
0FF000
018000
018000
018000
018000
018000
ENDCHAR
STARTCHAR 0472
ENCODING 1138
SWIDTH 720 0
DWIDTH 18 0
BBX 15 19 1 0
BITMAP
0180
0FF0
1FF8
381C
700C
600E
6006
E006
FFFE
FFFE
E006
E006
E006
6006
700E
700C
381C
1FF8
0FE0
ENDCHAR
STARTCHAR 0473
ENCODING 1139
SWIDTH 560 0
DWIDTH 14 0
BBX 12 14 1 0
BITMAP
1F00
3FC0
70C0
6060
6060
C060
FFF0
FFF0
C060
E060
6060
70E0
3FC0
1F80
ENDCHAR
STARTCHAR 0474
ENCODING 1140
SWIDTH 720 0
DWIDTH 18 0
BBX 17 18 0 1
BITMAP
E00780
600780
600E00
700C00
301C00
301800
381800
183800
183000
0C3000
0C7000
0C6000
066000
06E000
06C000
03C000
038000
038000
ENDCHAR
STARTCHAR 0475
ENCODING 1141
SWIDTH 600 0
DWIDTH 15 0
BBX 13 14 1 0
BITMAP
C038
C078
C060
60E0
60C0
60C0
3180
3180
3180
1B00
1B00
1B00
0E00
0E00
ENDCHAR
STARTCHAR 0476
ENCODING 1142
SWIDTH 720 0
DWIDTH 18 0
BBX 17 24 0 0
BITMAP
198000
0CC000
064000
026000
000000
000000
E00780
600780
600E00
700C00
301C00
301800
381800
183800
183000
0C3000
0C7000
0C6000
066000
06E000
06C000
03C000
038000
038000
ENDCHAR
STARTCHAR 0477
ENCODING 1143
SWIDTH 600 0
DWIDTH 15 0
BBX 13 20 1 0
BITMAP
3300
1900
0980
0C80
04C0
0000
C038
C078
C060
60E0
60C0
60C0
3180
3180
3180
1B00
1B00
1B00
0E00
0E00
ENDCHAR
STARTCHAR 0478
ENCODING 1144
SWIDTH 880 0
DWIDTH 22 0
BBX 21 24 1 -5
BITMAP
040000
1F0000
3B8000
71C000
60C000
60D838
60D830
E0EC30
E0EC70
E0EC60
E0E660
E0E6C0
E0E7C0
60C3C0
60C380
60C380
318380
3F8300
1F0300
000700
000600
000600
003C00
003C00
ENDCHAR
STARTCHAR 0479
ENCODING 1145
SWIDTH 800 0
DWIDTH 20 0
BBX 19 19 1 -5
BITMAP
1E60E0
3F60C0
6330C0
61B1C0
61B180
C19980
C19B00
C19F00
C18F00
E18E00
618E00
638E00
3F0C00
3E0C00
001C00
001800
001800
00F000
00F000
ENDCHAR
STARTCHAR 047A
ENCODING 1146
SWIDTH 840 0
DWIDTH 21 0
BBX 19 18 1 1
BITMAP
01F800
1FFF00
3C6780
3001C0
7000C0
6000E0
E00060
E00060
E00060
E00060
E00060
6000E0
6000E0
7000C0
3801C0
3EEF80
0FFF00
00E000
ENDCHAR
STARTCHAR 047B
ENCODING 1147
SWIDTH 680 0
DWIDTH 17 0
BBX 15 14 1 0
BITMAP
0180
1FF0
3BB8
600C
600C
E006
C006
C006
C006
600E
600C
711C
3FF8
07C0
ENDCHAR
STARTCHAR 047C
ENCODING 1148
SWIDTH 1080 0
DWIDTH 27 0
BBX 24 24 1 0
BITMAP
000C00
003F00
00E100
008100
001C00
001C00
000C00
000800
18181C
38000C
30000E
700006
600006
600003
600003
E00003
C00003
C00003
E00003
E07E03
70FF87
7FE3FF
7F80FE
3F007C
ENDCHAR
STARTCHAR 047D
ENCODING 1149
SWIDTH 920 0
DWIDTH 23 0
BBX 19 19 2 0
BITMAP
007000
01F800
078C00
04EC00
00E000
002000
006000
60C0C0
6000C0
E00060
C00060
C00060
C00060
C00060
C00060
C1F060
C3F860
FE0FE0
7C07C0
ENDCHAR
STARTCHAR 047E
ENCODING 1150
SWIDTH 840 0
DWIDTH 21 0
BBX 19 22 1 0
BITMAP
07FC00
044400
000000
000000
180300
380380
300180
7001C0
6000C0
6000C0
E000C0
E0E0E0
E0E0E0
E0E0E0
E0E0E0
E0E0E0
E0E0E0
60E0C0
71B1C0
7FBFC0
3FBF80
1F1F00
ENDCHAR
STARTCHAR 047F
ENCODING 1151
SWIDTH 760 0
DWIDTH 19 0
BBX 16 18 1 0
BITMAP
0FF8
0898
0000
0000
300E
3006
7006
6007
6003
6003
E183
E183
6183
61C3
61C3
7147
3F7E
3E7C
ENDCHAR
STARTCHAR 0480
ENCODING 1152
SWIDTH 640 0
DWIDTH 16 0
BBX 13 24 1 -5
BITMAP
0080
0FF0
1F78
3808
7000
6000
6000
E000
E000
E000
E000
E000
E000
6000
7000
3000
3C00
1FF0
07F0
0030
0030
0030
0030
0030
ENDCHAR
STARTCHAR 0481
ENCODING 1153
SWIDTH 480 0
DWIDTH 12 0
BBX 10 19 1 -5
BITMAP
0F80
3FC0
7040
6000
6000
E000
C000
C000
C000
6000
6000
7000
3F80
0F80
0180
0180
0180
0180
0180
ENDCHAR
STARTCHAR 0482
ENCODING 1154
SWIDTH 440 0
DWIDTH 11 0
BBX 10 12 1 -1
BITMAP
0300
3B00
3F00
0F00
0FC0
DD80
F880
7800
3E00
7E00
6200
2000
ENDCHAR
STARTCHAR 0483
ENCODING 1155
SWIDTH 0 0
DWIDTH 0 0
BBX 10 5 -12 15
BITMAP
01C0
3FC0
FFC0
E000
6000
ENDCHAR
STARTCHAR 0484
ENCODING 1156
SWIDTH 0 0
DWIDTH 0 0
BBX 8 4 -8 16
BITMAP
1C
7E
E3
81
ENDCHAR
STARTCHAR 0485
ENCODING 1157
SWIDTH 0 0
DWIDTH 0 0
BBX 2 5 -6 15
BITMAP
C0
C0
80
80
C0
ENDCHAR
STARTCHAR 0486
ENCODING 1158
SWIDTH 0 0
DWIDTH 0 0
BBX 2 5 -6 15
BITMAP
C0
C0
40
40
80
ENDCHAR
STARTCHAR 0487
ENCODING 1159
SWIDTH 0 0
DWIDTH 0 0
BBX 17 5 -17 15
BITMAP
0E0000
3FC000
61F000
C03F80
000380
ENDCHAR
STARTCHAR 0488
ENCODING 1160
SWIDTH 360 0
DWIDTH 9 0
BBX 32 28 -23 -5
BITMAP
0003C000
0007E000
00042000
00000000
07C003F0
0CC00330
08600210
00000000
00000000
00000000
00000000
00000000
7800001E
7C00003F
C6000061
00000000
00000000
00000000
00000000
00000000
00000000
07C003F0
0CC00330
08600210
0003C000
0007E000
00042000
00043000
ENDCHAR
STARTCHAR 0489
ENCODING 1161
SWIDTH 360 0
DWIDTH 9 0
BBX 30 33 -22 -7
BITMAP
00008000
00018000
00018000
00030000
06030000
06030000
030000E0
030003C0
03800700
01800200
00000000
00000000
00000000
00000000
80000000
FC0000C0
7C0000F0
1C0000FC
0000000C
00000000
00000000
00000000
00000000
01000200
03800700
07800700
1F000300
08030180
00030180
00030000
00030000
00060000
00060000
ENDCHAR
STARTCHAR 048A
ENCODING 1162
SWIDTH 680 0
DWIDTH 17 0
BBX 15 29 2 -5
BITMAP
10C0
1980
0F80
0000
0000
0000
C078
C078
C0F8
C0F8
C1F8
C1B8
C3B8
C338
C738
C638
C638
CC38
CC38
D838
D838
F038
F03E
E03E
000C
000C
0018
0030
0020
ENDCHAR
STARTCHAR 048B
ENCODING 1163
SWIDTH 600 0
DWIDTH 15 0
BBX 13 24 2 -5
BITMAP
2180
3180
1F00
0E00
0000
C0E0
C1E0
C1E0
C360
C360
C660
C660
CC60
CC60
D860
D860
F060
F078
E078
0030
0030
0060
0060
00C0
ENDCHAR
STARTCHAR 048C
ENCODING 1164
SWIDTH 600 0
DWIDTH 15 0
BBX 14 18 0 0
BITMAP
3000
3000
3000
FC00
FC00
3000
3000
3FC0
3FF0
3038
301C
301C
301C
301C
301C
3038
3FF8
3FE0
ENDCHAR
STARTCHAR 048D
ENCODING 1165
SWIDTH 520 0
DWIDTH 13 0
BBX 12 18 0 0
BITMAP
3000
3000
3000
3000
FC00
FC00
3000
3000
3000
3000
3FC0
3FE0
3070
3030
3030
3070
3FE0
3FC0
ENDCHAR
STARTCHAR 048E
ENCODING 1166
SWIDTH 560 0
DWIDTH 14 0
BBX 12 18 2 0
BITMAP
FF00
FFC0
C1C0
C0E0
C0E0
C6E0
C3E0
C1C0
C3E0
FFF0
FE20
C000
C000
C000
C000
C000
C000
C000
ENDCHAR
STARTCHAR 048F
ENCODING 1167
SWIDTH 560 0
DWIDTH 14 0
BBX 11 19 2 -5
BITMAP
CF00
DF80
F1C0
E0C0
C060
C060
C060
C060
C060
C260
E3E0
E3C0
FFC0
DFC0
C060
C040
C000
C000
C000
ENDCHAR
STARTCHAR 0490
ENCODING 1168
SWIDTH 560 0
DWIDTH 14 0
BBX 10 22 2 0
BITMAP
0040
0040
0040
0040
FFC0
FFC0
C000
C000
C000
C000
C000
C000
C000
C000
C000
C000
C000
C000
C000
C000
C000
C000
ENDCHAR
STARTCHAR 0491
ENCODING 1169
SWIDTH 480 0
DWIDTH 12 0
BBX 9 18 2 0
BITMAP
0180
0180
0180
0180
FF80
FF80
C000
C000
C000
C000
C000
C000
C000
C000
C000
C000
C000
C000
ENDCHAR
STARTCHAR 0492
ENCODING 1170
SWIDTH 600 0
DWIDTH 15 0
BBX 13 18 1 0
BITMAP
1FF8
1FF8
1800
1800
1800
1800
1800
1800
FFE0
FFE0
1800
1800
1800
1800
1800
1800
1800
1800
ENDCHAR
STARTCHAR 0493
ENCODING 1171
SWIDTH 520 0
DWIDTH 13 0
BBX 11 14 1 0
BITMAP
3FE0
3FE0
3800
3800
3800
3800
FF80
FF80
3800
3800
3800
3800
3800
3800
ENDCHAR
STARTCHAR 0494
ENCODING 1172
SWIDTH 560 0
DWIDTH 14 0
BBX 11 23 2 -5
BITMAP
FFC0
FFC0
C000
C000
C000
C000
C000
FF00
FFC0
C1E0
C060
C060
C060
C060
C060
C060
C060
C060
0060
0060
00E0
03C0
0380
ENDCHAR
STARTCHAR 0495
ENCODING 1173
SWIDTH 480 0
DWIDTH 12 0
BBX 9 19 2 -5
BITMAP
FF80
FF80
C000
C000
C000
C000
FE00
FF80
C180
C180
C180
C180
C180
C180
0180
0180
0180
1F80
1F00
ENDCHAR
STARTCHAR 0496
ENCODING 1174
SWIDTH 960 0
DWIDTH 24 0
BBX 23 22 1 -4
BITMAP
E0301C
703038
383070
1C3060
0C30C0
0631C0
073380
07B780
07FF80
0EFCC0
0C7CC0
1C3860
183070
303030
703038
603018
E0300E
C0300E
000006
000006
000006
000006
ENDCHAR
STARTCHAR 0497
ENCODING 1175
SWIDTH 800 0
DWIDTH 20 0
BBX 19 17 1 -3
BITMAP
60C1C0
70C180
38C300
18C600
0CCC00
06DC00
0FFC00
0FFE00
19E600
38C300
30C300
60C180
60C1E0
C0C0E0
000060
000060
000060
ENDCHAR
STARTCHAR 0498
ENCODING 1176
SWIDTH 560 0
DWIDTH 14 0
BBX 12 24 1 -5
BITMAP
0400
7FC0
7FE0
0060
0070
0070
0060
00E0
1FC0
1F80
01E0
0060
0030
0030
0030
0070
C0E0
FFC0
7F80
0600
0200
0200
1E00
1C00
ENDCHAR
STARTCHAR 0499
ENCODING 1177
SWIDTH 480 0
DWIDTH 12 0
BBX 10 19 1 -5
BITMAP
7E00
7F80
0180
0180
0180
0380
1E00
1F80
0180
00C0
00C0
0180
FF80
FF00
0800
0C00
0400
3C00
3800
ENDCHAR
STARTCHAR 049A
ENCODING 1178
SWIDTH 640 0
DWIDTH 16 0
BBX 14 22 2 -4
BITMAP
C038
C070
C0E0
C1C0
C380
C700
CE00
CE00
DF00
FB00
F180
E1C0
C0C0
C0E0
C060
C030
C03C
C01C
000C
000C
000C
000C
ENDCHAR
STARTCHAR 049B
ENCODING 1179
SWIDTH 560 0
DWIDTH 14 0
BBX 11 17 2 -3
BITMAP
C0C0
C180
C300
C600
CE00
DC00
FC00
FE00
E600
C300
C380
C180
C0E0
C0E0
0060
0060
0060
ENDCHAR
STARTCHAR 049C
ENCODING 1180
SWIDTH 640 0
DWIDTH 16 0
BBX 13 18 2 0
BITMAP
C038
C070
C8E0
C9C0
CB80
CF00
CE00
CE00
DF00
FB00
F980
E9C0
C8C0
C8E0
C060
C030
C038
C018
ENDCHAR
STARTCHAR 049D
ENCODING 1181
SWIDTH 560 0
DWIDTH 14 0
BBX 11 14 2 0
BITMAP
C0C0
C180
C300
D600
DE00
DC00
FC00
FE00
F600
D300
D380
C180
C0C0
C0E0
ENDCHAR
STARTCHAR 049E
ENCODING 1182
SWIDTH 640 0
DWIDTH 16 0
BBX 15 18 0 0
BITMAP
300E
301C
3038
FC70
30E0
31C0
3380
3380
37C0
3EC0
3C60
3870
3030
3038
3018
300C
300E
3006
ENDCHAR
STARTCHAR 049F
ENCODING 1183
SWIDTH 560 0
DWIDTH 14 0
BBX 12 19 1 0
BITMAP
6000
7E00
FE00
6000
6000
6060
60C0
6180
6300
6700
6E00
7E00
7F00
7300
6180
61C0
60C0
6060
6070
ENDCHAR
STARTCHAR 04A0
ENCODING 1184
SWIDTH 760 0
DWIDTH 19 0
BBX 18 18 1 0
BITMAP
FE0380
FE0700
0E0E00
0E1C00
0E3800
0E3000
0E7000
0EE000
0FF000
0FB800
0F1800
0E1C00
0E0C00
0E0600
0E0700
0E0300
0E0180
0E01C0
ENDCHAR
STARTCHAR 04A1
ENCODING 1185
SWIDTH 760 0
DWIDTH 19 0
BBX 15 14 0 0
BITMAP
FE0E
FE1C
0638
0630
0660
06C0
07E0
07E0
0730
0638
0618
060C
060E
0606
ENDCHAR
STARTCHAR 04A2
ENCODING 1186
SWIDTH 680 0
DWIDTH 17 0
BBX 15 22 2 -4
BITMAP
C038
C038
C038
C038
C038
C038
C038
FFF8
FFF8
C038
C038
C038
C038
C038
C038
C038
C03E
C03E
0006
0006
0006
0006
ENDCHAR
STARTCHAR 04A3
ENCODING 1187
SWIDTH 600 0
DWIDTH 15 0
BBX 13 17 2 -3
BITMAP
C060
C060
C060
C060
C060
C060
FFE0
FFE0
C060
C060
C060
C060
C078
C078
0018
0018
0018
ENDCHAR
STARTCHAR 04A4
ENCODING 1188
SWIDTH 920 0
DWIDTH 23 0
BBX 21 18 2 0
BITMAP
C03FF8
C03FF8
C03800
C03800
C03800
C03800
C03800
FFF800
FFF800
C03800
C03800
C03800
C03800
C03800
C03800
C03800
C03800
C03800
ENDCHAR
STARTCHAR 04A5
ENCODING 1189
SWIDTH 800 0
DWIDTH 20 0
BBX 17 14 2 0
BITMAP
C07F80
C07F80
C06000
C06000
C06000
C06000
FFE000
FFE000
C06000
C06000
C06000
C06000
C06000
C06000
ENDCHAR
STARTCHAR 04A6
ENCODING 1190
SWIDTH 960 0
DWIDTH 24 0
BBX 22 23 2 -5
BITMAP
FFF800
FFF800
C03800
C03800
C03800
C03800
C03800
C03FE0
C03FF0
C03838
C03818
C0381C
C0380C
C0380C
C0380C
C0380C
C0380C
C0380C
00001C
00001C
000038
0000F8
0000E0
ENDCHAR
STARTCHAR 04A7
ENCODING 1191
SWIDTH 840 0
DWIDTH 21 0
BBX 18 19 2 -5
BITMAP
FFE000
FFE000
C06000
C06000
C06000
C06000
C07F00
C07F80
C061C0
C060C0
C060C0
C060C0
C060C0
C060C0
0000C0
0000C0
0000C0
000F80
000F80
ENDCHAR
STARTCHAR 04A8
ENCODING 1192
SWIDTH 800 0
DWIDTH 20 0
BBX 19 19 1 0
BITMAP
010000
0F0000
1F3E00
387F00
70E300
60C380
60C380
E0C180
E1C180
E1C180
E0C180
E0C380
E0C380
60E300
706700
303600
383C00
1FFFE0
07F7E0
ENDCHAR
STARTCHAR 04A9
ENCODING 1193
SWIDTH 640 0
DWIDTH 16 0
BBX 14 14 1 0
BITMAP
0C00
3C40
39F0
61B8
6398
E318
C318
C318
C318
E1B8
61B0
70E0
3FFC
1FBC
ENDCHAR
STARTCHAR 04AA
ENCODING 1194
SWIDTH 640 0
DWIDTH 16 0
BBX 13 24 1 -5
BITMAP
0080
0FF0
1F78
3808
7000
6000
6000
E000
E000
E000
E000
E000
E000
6000
7000
7000
3808
1FF8
0FF0
0080
00C0
00C0
03C0
0380
ENDCHAR
STARTCHAR 04AB
ENCODING 1195
SWIDTH 480 0
DWIDTH 12 0
BBX 10 19 1 -5
BITMAP
0F80
3FC0
7040
6000
6000
E000
C000
C000
C000
E000
6000
7000
3FC0
1FC0
0200
0100
0100
0F00
0E00
ENDCHAR
STARTCHAR 04AC
ENCODING 1196
SWIDTH 560 0
DWIDTH 14 0
BBX 14 22 0 -4
BITMAP
FFFC
FFFC
0300
0300
0300
0300
0300
0300
0300
0300
0300
0300
0300
0300
0300
0300
03C0
03C0
00C0
00C0
00C0
00C0
ENDCHAR
STARTCHAR 04AD
ENCODING 1197
SWIDTH 520 0
DWIDTH 13 0
BBX 11 17 1 -3
BITMAP
FFE0
FFE0
0600
0600
0600
0600
0600
0600
0600
0600
0600
0600
0780
0780
0180
0180
0180
ENDCHAR
STARTCHAR 04AE
ENCODING 1198
SWIDTH 560 0
DWIDTH 14 0
BBX 13 18 0 0
BITMAP
E018
6038
3030
3870
1860
1CC0
0DC0
0780
0780
0300
0300
0300
0300
0300
0300
0300
0300
0300
ENDCHAR
STARTCHAR 04AF
ENCODING 1199
SWIDTH 520 0
DWIDTH 13 0
BBX 12 19 1 -5
BITMAP
C070
C060
E060
60E0
60C0
30C0
3180
3180
1980
1B00
1B00
0F00
0E00
0600
0600
0600
0600
0600
0600
ENDCHAR
STARTCHAR 04B0
ENCODING 1200
SWIDTH 560 0
DWIDTH 14 0
BBX 13 18 0 0
BITMAP
E018
6038
3030
3870
1860
1CC0
0DC0
0780
0780
0300
0300
1FE0
1FE0
0300
0300
0300
0300
0300
ENDCHAR
STARTCHAR 04B1
ENCODING 1201
SWIDTH 520 0
DWIDTH 13 0
BBX 12 19 1 -5
BITMAP
C070
C060
E060
60E0
60C0
30C0
3180
3180
1980
1B00
1B00
0F00
0E00
0600
0600
3FC0
3FC0
0600
0600
ENDCHAR
STARTCHAR 04B2
ENCODING 1202
SWIDTH 600 0
DWIDTH 15 0
BBX 14 22 1 -4
BITMAP
6018
7030
3070
1860
1CE0
0DC0
0F80
0780
0700
0780
0F80
0DC0
18C0
3860
3070
7030
603C
C01C
000C
000C
000C
000C
ENDCHAR
STARTCHAR 04B3
ENCODING 1203
SWIDTH 520 0
DWIDTH 13 0
BBX 12 17 1 -3
BITMAP
E060
60E0
31C0
3980
1B80
0F00
0E00
0E00
1F00
1B80
3180
70C0
60F0
C070
0030
0030
0030
ENDCHAR
STARTCHAR 04B4
ENCODING 1204
SWIDTH 840 0
DWIDTH 21 0
BBX 20 22 0 -4
BITMAP
FFFCC0
FFFCC0
0300C0
0300C0
0300C0
0300C0
0300C0
0300C0
0300C0
0300C0
0300C0
0300C0
0300C0
0300C0
0300C0
0300C0
03FFF0
03FFF0
000030
000030
000030
000030
ENDCHAR
STARTCHAR 04B5
ENCODING 1205
SWIDTH 720 0
DWIDTH 18 0
BBX 18 17 0 -3
BITMAP
FFF300
FFF300
060300
060300
060300
060300
060300
060300
060300
060300
060300
060300
07FFC0
07FFC0
0000C0
0000C0
0000C0
ENDCHAR
STARTCHAR 04B6
ENCODING 1206
SWIDTH 600 0
DWIDTH 15 0
BBX 13 22 2 -4
BITMAP
C060
C060
C060
C060
C060
C060
E060
7FE0
3FE0
0060
0060
0060
0060
0060
0060
0060
0078
0078
0018
0018
0018
0018
ENDCHAR
STARTCHAR 04B7
ENCODING 1207
SWIDTH 520 0
DWIDTH 13 0
BBX 11 17 2 -3
BITMAP
C180
C180
C180
C180
C180
E180
7F80
1F80
0180
0180
0180
0180
01E0
01E0
0060
0060
0060
ENDCHAR
STARTCHAR 04B8
ENCODING 1208
SWIDTH 600 0
DWIDTH 15 0
BBX 11 18 2 0
BITMAP
C060
C060
C060
C660
C660
C660
E660
7FE0
3FE0
0660
0660
0660
0660
0060
0060
0060
0060
0060
ENDCHAR
STARTCHAR 04B9
ENCODING 1209
SWIDTH 520 0
DWIDTH 13 0
BBX 9 14 2 0
BITMAP
C180
C180
C180
C980
C980
E980
7F80
1F80
0980
0980
0180
0180
0180
0180
ENDCHAR
STARTCHAR 04BA
ENCODING 1210
SWIDTH 600 0
DWIDTH 15 0
BBX 11 18 2 0
BITMAP
C000
C000
C000
C000
C000
C000
C000
FF00
FFC0
C1E0
C0E0
C060
C060
C060
C060
C060
C060
C060
ENDCHAR
STARTCHAR 04BB
ENCODING 1211
SWIDTH 560 0
DWIDTH 14 0
BBX 10 19 2 0
BITMAP
C000
C000
C000
C000
C000
CF00
DF80
F1C0
E0C0
C0C0
C0C0
C0C0
C0C0
C0C0
C0C0
C0C0
C0C0
C0C0
C0C0
ENDCHAR
STARTCHAR 04BC
ENCODING 1212
SWIDTH 840 0
DWIDTH 21 0
BBX 20 19 0 0
BITMAP
000800
00FF00
01F780
0381C0
C300E0
C70060
C70060
660070
7FFFF0
3FFFF0
060000
060000
060000
070000
070000
038020
01C0E0
00FFE0
007F80
ENDCHAR
STARTCHAR 04BD
ENCODING 1213
SWIDTH 640 0
DWIDTH 16 0
BBX 15 14 0 0
BITMAP
01F0
03F8
070C
CE06
CC06
CC06
7FFE
1FFE
0C00
0C00
0E00
0602
03FE
01FC
ENDCHAR
STARTCHAR 04BE
ENCODING 1214
SWIDTH 840 0
DWIDTH 21 0
BBX 20 24 0 -5
BITMAP
000800
00FF00
01F780
0381C0
C300E0
C70060
C70060
660070
7FFFF0
3FFFF0
060000
060000
060000
070000
070000
038020
01C0E0
00FFE0
007F80
001800
001800
001800
001800
001800
ENDCHAR
STARTCHAR 04BF
ENCODING 1215
SWIDTH 640 0
DWIDTH 16 0
BBX 15 18 0 -4
BITMAP
01F0
03F8
070C
CE06
CC06
CC06
7FFE
1FFE
0C00
0C00
0E00
0602
03FE
01FC
0060
0060
0060
0060
ENDCHAR
STARTCHAR 04C0
ENCODING 1216
SWIDTH 280 0
DWIDTH 7 0
BBX 2 18 2 0
BITMAP
C0
C0
C0
C0
C0
C0
C0
C0
C0
C0
C0
C0
C0
C0
C0
C0
C0
C0
ENDCHAR
STARTCHAR 04C1
ENCODING 1217
SWIDTH 960 0
DWIDTH 24 0
BBX 23 24 1 0
BITMAP
008600
00CC00
007C00
000000
000000
000000
E0301C
703038
383070
1C3060
0C30C0
0631C0
073380
07B780
07FF80
0EFCC0
0C7CC0
1C3860
183070
303030
703038
603018
E0300C
C0300E
ENDCHAR
STARTCHAR 04C2
ENCODING 1218
SWIDTH 800 0
DWIDTH 20 0
BBX 18 20 1 0
BITMAP
021800
031800
03F000
00E000
000000
000000
60C1C0
70C180
38C300
18C600
0CCC00
06DC00
0FFC00
0FFE00
19E600
38C300
30C300
60C180
60C1C0
C0C0C0
ENDCHAR
STARTCHAR 04C3
ENCODING 1219
SWIDTH 600 0
DWIDTH 15 0
BBX 12 23 2 -5
BITMAP
C070
C0E0
C1C0
C380
C700
CE00
DC00
FF00
FFC0
C1E0
C060
C060
C060
C060
C060
C060
C060
C060
0060
0060
00E0
03C0
0380
ENDCHAR
STARTCHAR 04C4
ENCODING 1220
SWIDTH 560 0
DWIDTH 14 0
BBX 11 19 2 -5
BITMAP
C0E0
C1C0
C380
C700
CE00
D800
FE00
FF80
C180
C180
C180
C180
C180
C180
0180
0180
0180
0F80
0F00
ENDCHAR
STARTCHAR 04C5
ENCODING 1221
SWIDTH 680 0
DWIDTH 17 0
BBX 16 23 1 -5
BITMAP
0FFC
0FFC
0C1C
0C1C
0C1C
0C1C
0C1C
0C1C
0C1C
0C1C
1C1C
1C1C
181C
181C
381C
701C
F01F
C01F
0007
0006
000C
0018
0010
ENDCHAR
STARTCHAR 04C6
ENCODING 1222
SWIDTH 600 0
DWIDTH 15 0
BBX 15 19 0 -5
BITMAP
0FF8
0FF8
0C38
0C38
0C38
0C38
0C38
0C38
0C38
1C38
1838
1838
F03E
E03E
000C
000C
0018
0010
0030
ENDCHAR
STARTCHAR 04C7
ENCODING 1223
SWIDTH 680 0
DWIDTH 17 0
BBX 13 23 2 -5
BITMAP
C038
C038
C038
C038
C038
C038
C038
FFF8
FFF8
C038
C038
C038
C038
C038
C038
C038
C038
C038
0038
0030
0070
01F0
01C0
ENDCHAR
STARTCHAR 04C8
ENCODING 1224
SWIDTH 600 0
DWIDTH 15 0
BBX 11 19 2 -5
BITMAP
C060
C060
C060
C060
C060
C060
FFE0
FFE0
C060
C060
C060
C060
C060
C060
0060
0060
00E0
07C0
0780
ENDCHAR
STARTCHAR 04C9
ENCODING 1225
SWIDTH 680 0
DWIDTH 17 0
BBX 15 23 2 -5
BITMAP
C038
C038
C038
C038
C038
C038
C038
FFF8
FFF8
C038
C038
C038
C038
C038
C038
C038
C03E
C03E
000E
000C
0018
0030
0020
ENDCHAR
STARTCHAR 04CA
ENCODING 1226
SWIDTH 600 0
DWIDTH 15 0
BBX 13 19 2 -5
BITMAP
C060
C060
C060
C060
C060
C060
FFE0
FFE0
C060
C060
C060
C060
C078
C078
0030
0030
0020
0060
0040
ENDCHAR
STARTCHAR 04CB
ENCODING 1227
SWIDTH 600 0
DWIDTH 15 0
BBX 11 22 2 -4
BITMAP
C060
C060
C060
C060
C060
C060
E060
7FE0
3FE0
0060
0060
0060
0060
0060
0060
0060
01E0
01E0
0180
0180
0180
0180
ENDCHAR
STARTCHAR 04CC
ENCODING 1228
SWIDTH 520 0
DWIDTH 13 0
BBX 9 17 2 -3
BITMAP
C180
C180
C180
C180
C180
E180
7F80
1F80
0180
0180
0180
0180
0780
0780
0600
0600
0600
ENDCHAR
STARTCHAR 04CD
ENCODING 1229
SWIDTH 800 0
DWIDTH 20 0
BBX 17 23 2 -5
BITMAP
F00E00
F01E00
D01E00
D81E00
D83600
C83600
CC3600
CC6600
C46600
C66600
C6C600
C2C600
C3C600
C38600
C18600
C00600
C00780
C00780
000180
000300
000300
000600
000C00
ENDCHAR
STARTCHAR 04CE
ENCODING 1230
SWIDTH 680 0
DWIDTH 17 0
BBX 15 19 2 -5
BITMAP
E038
E038
F078
F078
D8D8
D8D8
C898
CD98
CD98
C718
C718
C018
C01E
C01E
0006
000C
0008
0018
0010
ENDCHAR
STARTCHAR 04CF
ENCODING 1231
SWIDTH 240 0
DWIDTH 6 0
BBX 2 19 2 0
BITMAP
C0
C0
C0
C0
C0
C0
C0
C0
C0
C0
C0
C0
C0
C0
C0
C0
C0
C0
C0
ENDCHAR
STARTCHAR 04D0
ENCODING 1232
SWIDTH 600 0
DWIDTH 15 0
BBX 15 24 0 0
BITMAP
0C20
0420
07E0
03C0
0000
0000
0380
03C0
07C0
06C0
06E0
0E60
0C60
0C70
1C30
1830
1838
3FF8
3FF8
301C
700C
600C
600E
E006
ENDCHAR
STARTCHAR 04D1
ENCODING 1233
SWIDTH 560 0
DWIDTH 14 0
BBX 11 20 1 0
BITMAP
2080
3180
1F00
0E00
0000
0000
3F00
7F80
41C0
00C0
0060
07E0
3FE0
7060
6060
C0E0
C0E0
61E0
7F60
3E60
ENDCHAR
STARTCHAR 04D2
ENCODING 1234
SWIDTH 600 0
DWIDTH 15 0
BBX 15 23 0 0
BITMAP
0E60
0E60
0000
0000
0000
0380
03C0
07C0
06C0
06E0
0E60
0C60
0C70
1C30
1830
1838
3FF8
3FF8
301C
700C
600C
600E
E006
ENDCHAR
STARTCHAR 04D3
ENCODING 1235
SWIDTH 560 0
DWIDTH 14 0
BBX 11 19 1 0
BITMAP
3980
3980
3980
0000
0000
3F00
7F80
41C0
00C0
0060
07E0
3FE0
7060
6060
C0E0
C0E0
61E0
7F60
3E60
ENDCHAR
STARTCHAR 04D4
ENCODING 1236
SWIDTH 880 0
DWIDTH 22 0
BBX 20 18 0 0
BITMAP
01FFF0
03FFF0
033000
033000
063000
063000
0E3000
0C3FF0
0C3FF0
1C3000
183000
1FF000
3FF000
303000
703000
603000
603FF0
E03FF0
ENDCHAR
STARTCHAR 04D5
ENCODING 1237
SWIDTH 880 0
DWIDTH 22 0
BBX 20 14 1 0
BITMAP
3F0F80
7F9FC0
41F0E0
00E060
006030
07E030
3FFFF0
707FF0
606000
C0E000
C0E000
61B000
7FBFE0
3F0FE0
ENDCHAR
STARTCHAR 04D6
ENCODING 1238
SWIDTH 560 0
DWIDTH 14 0
BBX 11 24 2 0
BITMAP
2180
3B80
1F00
0000
0000
0000
FFE0
FFE0
C000
C000
C000
C000
C000
FFC0
FFC0
C000
C000
C000
C000
C000
C000
C000
FFE0
FFE0
ENDCHAR
STARTCHAR 04D7
ENCODING 1239
SWIDTH 560 0
DWIDTH 14 0
BBX 12 20 1 0
BITMAP
10C0
18C0
1F80
0700
0000
0000
0F80
3FC0
70E0
6060
6060
C030
FFF0
FFF0
C000
E000
6000
7000
3FE0
1FE0
ENDCHAR
STARTCHAR 04D8
ENCODING 1240
SWIDTH 720 0
DWIDTH 18 0
BBX 15 19 1 0
BITMAP
0100
1FF0
3FF8
201C
000C
000E
0006
0006
0006
FFFE
FFFE
E006
6006
6006
700E
300C
381C
1FF8
0FE0
ENDCHAR
STARTCHAR 04D9
ENCODING 1241
SWIDTH 560 0
DWIDTH 14 0
BBX 12 14 1 0
BITMAP
3F00
7FC0
41C0
0060
0060
0070
0030
FFF0
C070
C060
6060
60E0
3FC0
1F80
ENDCHAR
STARTCHAR 04DA
ENCODING 1242
SWIDTH 720 0
DWIDTH 18 0
BBX 15 23 1 0
BITMAP
0660
0660
0000
0000
0100
1FF0
3FF8
201C
000C
000E
0006
0006
0006
FFFE
FFFE
E006
6006
6006
700E
300C
381C
1FF8
0FE0
ENDCHAR
STARTCHAR 04DB
ENCODING 1243
SWIDTH 560 0
DWIDTH 14 0
BBX 12 19 1 0
BITMAP
3980
3980
3980
0000
0000
3F00
7FC0
41C0
0060
0060
0070
0030
FFF0
C070
C060
6060
60E0
3FC0
1F80
ENDCHAR
STARTCHAR 04DC
ENCODING 1244
SWIDTH 960 0
DWIDTH 24 0
BBX 23 23 1 0
BITMAP
00CC00
00CC00
000000
000000
000000
E0301C
703038
383070
1C3060
0C30C0
0631C0
073380
07B780
07FF80
0EFCC0
0C7CC0
1C3860
183070
303030
703038
603018
E0300C
C0300E
ENDCHAR
STARTCHAR 04DD
ENCODING 1245
SWIDTH 800 0
DWIDTH 20 0
BBX 18 19 1 0
BITMAP
033000
033000
033000
000000
000000
60C1C0
70C180
38C300
18C600
0CCC00
06DC00
0FFC00
0FFE00
19E600
38C300
30C300
60C180
60C1C0
C0C0C0
ENDCHAR
STARTCHAR 04DE
ENCODING 1246
SWIDTH 560 0
DWIDTH 14 0
BBX 12 23 1 0
BITMAP
1980
1980
0000
0000
0400
7FC0
7FE0
0060
0070
0070
0060
00E0
1FC0
1F80
01E0
0060
0030
0030
0030
0070
C0E0
FFC0
7F80
ENDCHAR
STARTCHAR 04DF
ENCODING 1247
SWIDTH 480 0
DWIDTH 12 0
BBX 10 19 1 0
BITMAP
3380
3380
3380
0000
0000
7E00
7F80
0180
0180
0180
0380
1E00
1F80
0180
00C0
00C0
0180
FF80
FF00
ENDCHAR
STARTCHAR 04E0
ENCODING 1248
SWIDTH 600 0
DWIDTH 15 0
BBX 12 19 2 -1
BITMAP
FFE0
FFE0
00C0
01C0
0380
0300
0600
0E00
0F80
0FE0
0060
0070
0030
0030
0030
0070
F1E0
FFC0
1F00
ENDCHAR
STARTCHAR 04E1
ENCODING 1249
SWIDTH 520 0
DWIDTH 13 0
BBX 11 19 1 -5
BITMAP
FFC0
FFC0
01C0
0380
0300
0600
0E00
1C00
1E00
1F80
03C0
00C0
00E0
0060
00E0
00E0
81C0
FF80
FF00
ENDCHAR
STARTCHAR 04E2
ENCODING 1250
SWIDTH 680 0
DWIDTH 17 0
BBX 13 23 2 0
BITMAP
1FC0
1FC0
0000
0000
0000
C078
C078
C0F8
C0F8
C1F8
C1B8
C3B8
C338
C738
C638
C638
CC38
CC38
D838
D838
F038
F038
E038
ENDCHAR
STARTCHAR 04E3
ENCODING 1251
SWIDTH 600 0
DWIDTH 15 0
BBX 11 19 2 0
BITMAP
3F80
3F80
0000
0000
0000
C0E0
C1E0
C1E0
C360
C360
C660
C660
CC60
CC60
D860
F860
F060
E060
E060
ENDCHAR
STARTCHAR 04E4
ENCODING 1252
SWIDTH 680 0
DWIDTH 17 0
BBX 13 23 2 0
BITMAP
19C0
19C0
0000
0000
0000
C078
C078
C0F8
C0F8
C1F8
C1B8
C3B8
C338
C738
C638
C638
CC38
CC38
D838
D838
F038
F038
E038
ENDCHAR
STARTCHAR 04E5
ENCODING 1253
SWIDTH 600 0
DWIDTH 15 0
BBX 11 19 2 0
BITMAP
3300
3300
3300
0000
0000
C0E0
C1E0
C1E0
C360
C360
C660
C660
CC60
CC60
D860
F860
F060
E060
E060
ENDCHAR
STARTCHAR 04E6
ENCODING 1254
SWIDTH 720 0
DWIDTH 18 0
BBX 15 23 1 0
BITMAP
0660
0660
0000
0000
0180
0FF0
1EF8
381C
700C
600E
6006
E006
E006
E006
E006
E006
E006
6006
700E
700C
381C
1FF8
0FE0
ENDCHAR
STARTCHAR 04E7
ENCODING 1255
SWIDTH 560 0
DWIDTH 14 0
BBX 12 19 1 0
BITMAP
1980
1980
1980
0000
0000
1F00
3FC0
70C0
6060
6060
E060
C070
C070
C060
E060
6060
70E0
3FC0
1F80
ENDCHAR
STARTCHAR 04E8
ENCODING 1256
SWIDTH 720 0
DWIDTH 18 0
BBX 15 19 1 0
BITMAP
0180
0FF0
1FF8
381C
700C
600E
6006
E006
FFFE
FFFE
E006
E006
E006
6006
700E
700C
381C
1FF8
0FE0
ENDCHAR
STARTCHAR 04E9
ENCODING 1257
SWIDTH 560 0
DWIDTH 14 0
BBX 12 14 1 0
BITMAP
1F00
3FC0
70C0
6060
6060
C060
FFF0
FFF0
C060
E060
6060
70E0
3FC0
1F80
ENDCHAR
STARTCHAR 04EA
ENCODING 1258
SWIDTH 720 0
DWIDTH 18 0
BBX 15 23 1 0
BITMAP
0660
0660
0000
0000
0180
0FF0
1FF8
381C
700C
600E
6006
E006
FFFE
FFFE
E006
E006
E006
6006
700E
700C
381C
1FF8
0FE0
ENDCHAR
STARTCHAR 04EB
ENCODING 1259
SWIDTH 560 0
DWIDTH 14 0
BBX 12 19 1 0
BITMAP
1980
1980
1980
0000
0000
1F00
3FC0
70C0
6060
6060
C060
FFF0
FFF0
C060
E060
6060
70E0
3FC0
1F80
ENDCHAR
STARTCHAR 04EC
ENCODING 1260
SWIDTH 640 0
DWIDTH 16 0
BBX 13 23 1 0
BITMAP
3980
3980
0000
0000
0400
7FC0
FBE0
C070
8030
0038
0018
0018
0018
3FF8
3FF8
0018
0018
0018
0038
8030
C070
FFE0
3F80
ENDCHAR
STARTCHAR 04ED
ENCODING 1261
SWIDTH 480 0
DWIDTH 12 0
BBX 10 19 1 0
BITMAP
6700
6700
6700
0000
0000
7C00
FF00
8380
0180
01C0
00C0
3FC0
3FC0
00C0
00C0
0180
0380
FF00
FE00
ENDCHAR
STARTCHAR 04EE
ENCODING 1262
SWIDTH 560 0
DWIDTH 14 0
BBX 12 23 1 0
BITMAP
1F80
1F80
0000
0000
0000
C030
C070
E060
6060
70E0
30C0
31C0
3980
1980
1B80
1F00
0F00
0E00
0600
0E00
0C00
7C00
7800
ENDCHAR
STARTCHAR 04EF
ENCODING 1263
SWIDTH 520 0
DWIDTH 13 0
BBX 12 24 1 -5
BITMAP
3F80
3F80
0000
0000
0000
C070
C060
E060
60E0
60C0
30C0
3180
3180
1980
1B00
1B00
0F00
0E00
0600
0E00
0C00
0C00
7800
7800
ENDCHAR
STARTCHAR 04F0
ENCODING 1264
SWIDTH 560 0
DWIDTH 14 0
BBX 12 23 1 0
BITMAP
1980
1980
0000
0000
0000
C030
C070
E060
6060
70E0
30C0
31C0
3980
1980
1B80
1F00
0F00
0E00
0600
0E00
0C00
7C00
7800
ENDCHAR
STARTCHAR 04F1
ENCODING 1265
SWIDTH 520 0
DWIDTH 13 0
BBX 12 24 1 -5
BITMAP
3980
3980
3980
0000
0000
C070
C060
E060
60E0
60C0
30C0
3180
3180
1980
1B00
1B00
0F00
0E00
0600
0E00
0C00
0C00
7800
7800
ENDCHAR
STARTCHAR 04F2
ENCODING 1266
SWIDTH 560 0
DWIDTH 14 0
BBX 12 24 1 0
BITMAP
0660
0CC0
1980
1900
0000
0000
C030
C070
E060
6060
70E0
30C0
31C0
3980
1980
1B80
1F00
0F00
0E00
0600
0E00
0C00
7C00
7800
ENDCHAR
STARTCHAR 04F3
ENCODING 1267
SWIDTH 520 0
DWIDTH 13 0
BBX 12 25 1 -5
BITMAP
04C0
0CC0
0980
1900
1300
0000
C070
C060
E060
60E0
60C0
30C0
3180
3180
1980
1B00
1B00
0F00
0E00
0600
0E00
0C00
0C00
7800
7800
ENDCHAR
STARTCHAR 04F4
ENCODING 1268
SWIDTH 600 0
DWIDTH 15 0
BBX 11 23 2 0
BITMAP
1980
1980
0000
0000
0000
C060
C060
C060
C060
C060
C060
C060
E060
7FE0
3FE0
0FE0
0060
0060
0060
0060
0060
0060
0060
ENDCHAR
STARTCHAR 04F5
ENCODING 1269
SWIDTH 520 0
DWIDTH 13 0
BBX 9 19 2 0
BITMAP
7300
7300
7300
0000
0000
C180
C180
C180
C180
C180
C180
FF80
7F80
0180
0180
0180
0180
0180
0180
ENDCHAR
STARTCHAR 04F6
ENCODING 1270
SWIDTH 560 0
DWIDTH 14 0
BBX 10 22 2 -4
BITMAP
FFC0
FFC0
C000
C000
C000
C000
C000
C000
C000
C000
C000
C000
C000
C000
C000
C000
F800
F800
3800
3800
3800
3800
ENDCHAR
STARTCHAR 04F7
ENCODING 1271
SWIDTH 480 0
DWIDTH 12 0
BBX 9 17 2 -3
BITMAP
FF80
FF80
C000
C000
C000
C000
C000
C000
C000
C000
C000
C000
F000
F000
3000
3000
3000
ENDCHAR
STARTCHAR 04F8
ENCODING 1272
SWIDTH 800 0
DWIDTH 20 0
BBX 16 23 2 0
BITMAP
0670
0670
0000
0000
0000
C007
C007
C007
C007
C007
C007
C007
FF07
FFC7
C0E7
C077
C077
C077
C077
C077
C0E7
FFE7
FF87
ENDCHAR
STARTCHAR 04F9
ENCODING 1273
SWIDTH 720 0
DWIDTH 18 0
BBX 14 19 2 0
BITMAP
1CC0
1CC0
1CC0
0000
0000
C00C
C00C
C00C
C00C
C00C
C00C
FF0C
FF8C
C1CC
C0CC
C0CC
C1CC
FF8C
FF0C
ENDCHAR
STARTCHAR 04FA
ENCODING 1274
SWIDTH 600 0
DWIDTH 15 0
BBX 13 23 1 -5
BITMAP
1FF8
1FF8
1800
1800
1800
1800
1800
1800
FFE0
FFE0
1800
1800
1800
1800
1800
1800
1F80
1F80
0180
0180
0380
3F00
3E00
ENDCHAR
STARTCHAR 04FB
ENCODING 1275
SWIDTH 520 0
DWIDTH 13 0
BBX 11 19 1 -5
BITMAP
3FE0
3FE0
3800
3800
3800
3800
FF80
FF80
3800
3800
3800
3800
3F80
3F80
0380
0300
0300
3F00
3E00
ENDCHAR
STARTCHAR 04FC
ENCODING 1276
SWIDTH 600 0
DWIDTH 15 0
BBX 13 23 1 -5
BITMAP
6018
7030
3070
1860
1CE0
0DC0
0F80
0780
0700
0780
0F80
0DC0
18C0
3860
3070
7030
6038
C018
0018
0018
0038
00F0
00E0
ENDCHAR
STARTCHAR 04FD
ENCODING 1277
SWIDTH 520 0
DWIDTH 13 0
BBX 11 19 1 -5
BITMAP
E060
60E0
31C0
3980
1B80
0F00
0E00
0E00
1F00
1B80
3180
70C0
60E0
C060
0060
0060
0060
07E0
07C0
ENDCHAR
STARTCHAR 04FE
ENCODING 1278
SWIDTH 600 0
DWIDTH 15 0
BBX 13 18 1 0
BITMAP
6018
7030
3070
1860
1CE0
0DC0
0F80
0780
7FF8
0780
0F80
0DC0
18C0
3860
3070
7030
6038
C018
ENDCHAR
STARTCHAR 04FF
ENCODING 1279
SWIDTH 520 0
DWIDTH 13 0
BBX 11 14 1 0
BITMAP
E060
60E0
31C0
3980
1B80
0F00
7FE0
7FE0
1F00
1B80
3180
70C0
60E0
C060
ENDCHAR
STARTCHAR 0500
ENCODING 1280
SWIDTH 600 0
DWIDTH 15 0
BBX 11 18 2 0
BITMAP
0060
0060
0060
0060
0060
0060
0060
0FE0
7FE0
F060
C060
C060
C060
C060
C060
E060
7FE0
3FE0
ENDCHAR
STARTCHAR 0501
ENCODING 1281
SWIDTH 520 0
DWIDTH 13 0
BBX 10 14 1 0
BITMAP
00C0
00C0
00C0
00C0
00C0
00C0
3FC0
7FC0
E0C0
C0C0
C0C0
E0C0
7FC0
3FC0
ENDCHAR
STARTCHAR 0502
ENCODING 1282
SWIDTH 920 0
DWIDTH 23 0
BBX 18 18 2 0
BITMAP
006000
006000
006000
006000
0060C0
0060C0
0060C0
0FE0C0
7FE0C0
F060C0
C060C0
C060C0
C060C0
C060C0
C0E0C0
E0F1C0
7FBF80
3F1F80
ENDCHAR
STARTCHAR 0503
ENCODING 1283
SWIDTH 800 0
DWIDTH 20 0
BBX 17 14 1 0
BITMAP
00C000
00C000
00C000
00C000
00C000
00C180
3FC180
7FC180
E0C180
C0C180
C0C180
E1E380
7F7F00
3E3E00
ENDCHAR
STARTCHAR 0504
ENCODING 1284
SWIDTH 880 0
DWIDTH 22 0
BBX 18 19 2 0
BITMAP
080000
FF0000
FF8000
01C000
00C000
00C1C0
00C1C0
01C1C0
1F81C0
1F01C0
0381C0
00C1C0
00C1C0
00E1C0
00E1C0
00E1C0
006180
007F80
003F00
ENDCHAR
STARTCHAR 0505
ENCODING 1285
SWIDTH 800 0
DWIDTH 20 0
BBX 16 14 2 0
BITMAP
FC00
FF00
0300
0300
0300
0703
3C03
3F03
0303
0183
0186
0186
01FE
00FC
ENDCHAR
STARTCHAR 0506
ENCODING 1286
SWIDTH 600 0
DWIDTH 15 0
BBX 13 24 2 -5
BITMAP
0800
FF00
FF80
01C0
00C0
00C0
00C0
01C0
1F80
1F00
0380
00C0
00C0
00E0
00E0
00E0
00E0
00F8
00F8
0018
0018
0018
0018
0018
ENDCHAR
STARTCHAR 0507
ENCODING 1287
SWIDTH 520 0
DWIDTH 13 0
BBX 11 19 2 -5
BITMAP
FC00
FF00
0300
0300
0300
0700
3C00
3F00
0300
0180
0180
0180
01E0
01E0
0060
0060
0060
0060
0060
ENDCHAR
STARTCHAR 0508
ENCODING 1288
SWIDTH 960 0
DWIDTH 24 0
BBX 21 18 1 0
BITMAP
0FFC00
0FFC00
0C1C00
0C1C00
0C1C18
0C1C18
0C1C18
0C1C18
0C1C18
0C1C18
1C1C18
1C1C18
181C18
181C18
380C38
700C30
F00FF0
C007E0
ENDCHAR
STARTCHAR 0509
ENCODING 1289
SWIDTH 880 0
DWIDTH 22 0
BBX 20 14 0 0
BITMAP
0FF800
0FF800
0C3800
0C3800
0C3800
0C3870
0C3870
0C3870
0C3870
1C3860
181860
181860
F01FE0
E00FC0
ENDCHAR
STARTCHAR 050A
ENCODING 1290
SWIDTH 1000 0
DWIDTH 25 0
BBX 21 18 2 0
BITMAP
C03800
C03800
C03800
C03800
C03818
C03818
C03818
FFF818
FFF818
C03818
C03818
C03818
C03818
C01818
C01818
C01838
C01FF0
C00FE0
ENDCHAR
STARTCHAR 050B
ENCODING 1291
SWIDTH 880 0
DWIDTH 22 0
BBX 18 14 2 0
BITMAP
C06000
C06000
C06000
C06000
C06000
C060C0
FFE0C0
FFE0C0
C060C0
C060C0
C061C0
C06180
C07F80
C03F00
ENDCHAR
STARTCHAR 050C
ENCODING 1292
SWIDTH 680 0
DWIDTH 17 0
BBX 15 19 1 0
BITMAP
0080
0FF8
1F7C
380C
7000
6000
6000
E00E
E00E
E00E
E00E
E00E
E00E
600E
600E
700C
380C
1FFC
07F8
ENDCHAR
STARTCHAR 050D
ENCODING 1293
SWIDTH 600 0
DWIDTH 15 0
BBX 11 14 1 0
BITMAP
0F80
3FE0
7060
6000
6000
E000
C060
C060
C060
E060
6060
70E0
3FC0
1F80
ENDCHAR
STARTCHAR 050E
ENCODING 1294
SWIDTH 680 0
DWIDTH 17 0
BBX 15 18 0 0
BITMAP
FFFC
FFFC
0300
0300
0306
0306
0306
0306
0306
0306
0306
0306
0306
0306
0306
038E
01FC
00F8
ENDCHAR
STARTCHAR 050F
ENCODING 1295
SWIDTH 640 0
DWIDTH 16 0
BBX 14 14 0 0
BITMAP
FFF0
FFF0
0600
0600
0600
060C
060C
060C
060C
060C
060C
071C
03F8
01F0
ENDCHAR
STARTCHAR 0510
ENCODING 1296
SWIDTH 560 0
DWIDTH 14 0
BBX 11 19 2 0
BITMAP
0400
3FC0
7FC0
E000
E000
C000
E000
6000
3F00
3F00
7000
E000
C000
C000
C000
C000
E020
7FE0
3FC0
ENDCHAR
STARTCHAR 0511
ENCODING 1297
SWIDTH 480 0
DWIDTH 12 0
BBX 10 14 1 0
BITMAP
1F80
7F80
7000
6000
6000
7000
1E00
3E00
6000
E000
C000
6000
7FC0
3FC0
ENDCHAR
STARTCHAR 0512
ENCODING 1298
SWIDTH 680 0
DWIDTH 17 0
BBX 14 23 1 -5
BITMAP
0FFC
0FFC
0C1C
0C1C
0C1C
0C1C
0C1C
0C1C
0C1C
0C1C
0C1C
1C1C
181C
181C
381C
701C
E01C
C01C
001C
0018
0038
00F8
00E0
ENDCHAR
STARTCHAR 0513
ENCODING 1299
SWIDTH 560 0
DWIDTH 14 0
BBX 12 19 1 -5
BITMAP
1FF0
1FF0
1870
1870
1870
1870
1870
1870
1870
1870
3070
7070
E070
C070
0070
0060
0060
01E0
01C0
ENDCHAR
ENDFONT
